<?xml version="1.0" encoding="utf-8" ?>
<svg baseProfile="full" height="300mm" version="1.1" viewBox="0,0,200,300" width="200mm" xmlns="http://www.w3.org/2000/svg" xmlns:ev="http://www.w3.org/2001/xml-events" xmlns:xlink="http://www.w3.org/1999/xlink"><defs /><rect fill="#222222" height="300" width="200" x="0" y="0" /><text fill="#FFFFFF" style="font-size:12px; font-family:Arial; font-weight:bold;" x="10" y="20">tg</text><text fill="#FFFFFF" style="font-size:4px; font-family:Arial" x="10" y="280">ATHLETE</text><text fill="#FFFFFF" style="font-size:9px; font-family:Arial" x="10" y="290">Andy Chen</text><text fill="#FFFFFF" style="font-size:4px; font-family:Arial" x="120" y="280">STATISTICS</text><text fill="#FFFFFF" style="font-size:3px; font-family:Arial" x="120" y="285">Number: 4</text><text fill="#FFFFFF" style="font-size:3px; font-family:Arial" x="120" y="290">Weekly: 4.0</text><text fill="#FFFFFF" style="font-size:3px; font-family:Arial" x="141" y="285">Total: 4.8 km</text><text fill="#FFFFFF" style="font-size:3px; font-family:Arial" x="141" y="290">Avg: 1.2 km</text><text fill="#FFFFFF" style="font-size:3px; font-family:Arial" x="167" y="285">Min: 0.9 km</text><text fill="#FFFFFF" style="font-size:3px; font-family:Arial" x="167" y="290">Max: 1.4 km</text><polyline fill="none" points="55.66393442451954,87.68547727586702 74.2540983594954,93.8359926333651 88.86065573617816,91.52954996190965 93.5081967227161,88.45429196860641 94.83606557175517,79.22851047152653 90.85245901346207,66.92745092418045 86.86885245516896,63.08336570346728 74.2540983594954,67.69626773241907 65.62295081838965,68.46508446428925 59.64754098281264,66.92745092418045 33.09016393497586,56.164007366169244 29.10655737668276,56.164007366169244 22.467213112860918,59.239278523251414 15.827868852764368,67.69626773241907 14.5,73.07798320334405 15.827868852764368,83.841402631253 19.147540982812643,89.22310658590868 23.131147537380457,91.52954996190965 28.44262294843793,90.76073557976633 36.40983606502414,86.14784765057266 45.704918030649424,86.91666250256822 61.63934426382184,84.6102177160792 91.5163934417069,89.22310658590868 93.5081967227161,87.68547727586702 95.5,84.6102177160792 90.18852459266782,70.77153418492526 88.19672130793333,68.46508446428925 81.55737704783678,68.46508446428925 78.2377049177885,70.77153418492526 60.31147540733218,70.77153418492526 54.33606557548046,72.30916694365442 39.06557376682758,70.00271769147366 23.795081965625286,70.77153418492526 21.13934426009655,71.54035060340539 18.483606554567814,75.38443151442334 18.483606554567814,85.37903272267431 19.811475407332182,89.22310658590868 27.11475409567356,92.2983642630279 32.42622950673103,91.52954996190965 36.40983606502414,88.45429196860641 53.0081967189908,86.14784765057266 92.18032786995173,87.68547727586702 94.83606557175517,86.14784765057266 95.5,82.30377222271636 90.18852459266782,66.15863403491676 84.87704918161035,64.62100002728403 80.22950819507241,64.62100002728403 74.2540983594954,67.69626773241907 69.60655737668276,66.92745092418045 61.63934426382184,71.54035060340539 49.68852458894253,72.30916694365442 26.450819667428732,70.00271769147366 21.80327868834138,72.30916694365442 19.811475407332182,79.99732602573931 20.47540983557701,87.68547727586702 23.131147537380457,90.76073557976633 25.786885246634483,92.2983642630279 28.44262294843793,92.2983642630279 32.42622950673103,88.45429196860641 41.05737704783678,83.0725874658674 45.040983606129885,83.0725874658674 53.67213114723563,86.14784765057266 74.91803278401494,88.45429196860641 90.18852459266782,88.45429196860641 92.84426229447126,86.14784765057266 93.5081967227161,83.0725874658674 93.5081967227161,77.69087912421674" stroke="#4dd2ff" stroke-linecap="round" stroke-linejoin="round" stroke-width="0.5"><title>2023-07-13 0.9km</title></polyline><polyline fill="none" points="181.61199999973178,65.99564475286752 179.66799999773502,62.99418438784778 177.72399999946356,61.49345374526456 156.3399999961257,60.74308831244707 144.02799999713898,58.49199154553935 125.88399999588728,58.49199154553935 109.68399999663234,63.7445495929569 107.73999999836087,66.74600965064019 107.09199999645352,68.99710389273241 108.38800000026822,75.75038248719648 112.92399999499321,87.00583304837346 116.16399999707937,89.25692109577358 129.12399999424815,91.50800845492631 132.36399999633431,90.75764607824385 135.60399999842048,86.25547021161765 138.84399999678135,84.75474431365728 152.45199999958277,85.50510730082169 166.70799999684095,87.75619580643252 177.72399999946356,85.50510730082169 182.9079999960959,83.25401810742915 184.85199999809265,79.50220125401393 184.85199999809265,76.50074639217928 182.9079999960959,71.99856181116775 170.59599999710917,65.24527977593243 162.81999999657273,66.74600965064019 157.6359999962151,65.24527977593243 138.84399999678135,73.49929031124339 118.75599999725819,70.49783300701529 114.2199999988079,71.24819744424894 114.2199999988079,75.00001850584522 115.51599999889731,81.00292822299525 117.45999999716878,86.25547021161765 120.0519999973476,87.00583304837346 133.01199999824166,87.00583304837346 142.73199999704957,84.00438124733046 153.09999999776483,84.75474431365728 163.4679999947548,87.00583304837346 171.24399999901652,86.25547021161765 179.66799999773502,86.25547021161765 184.2039999999106,84.75474431365728 184.85199999809265,81.75329159293324 185.5,75.75038248719648 183.55599999800324,65.99564475286752 180.31599999591708,65.24527977593243 164.7639999985695,68.24673922313377 152.45199999958277,63.7445495929569 107.73999999836087,63.7445495929569 105.79599999636412,65.24527977593243 104.5,67.49637447483838 105.14799999818206,71.24819744424894 109.03599999472499,79.50220125401393 117.45999999716878,90.00728362658992 120.0519999973476,89.25692109577358 128.47599999979138,84.75474431365728 133.01199999824166,85.50510730082169 138.84399999678135,84.75474431365728 145.32399999722838,87.00583304837346 151.15599999576807,85.50510730082169 162.81999999657273,87.00583304837346 180.96399999782443,84.00438124733046 183.55599999800324,82.50365488836542 183.55599999800324,73.49929031124339 180.96399999782443,66.74600965064019 178.37199999764562,65.99564475286752 172.53999999910593,66.74600965064019 162.17199999839067,65.24527977593243 149.85999999567866,70.49783300701529 149.85999999567866,71.99856181116775 147.9159999974072,72.74892609892413 130.41999999806285,68.24673922313377 118.75599999725819,68.24673922313377 116.81199999898672,68.99710389273241 115.51599999889731,71.99856181116775 116.16399999707937,84.75474431365728 118.10799999535084,87.00583304837346 127.82799999788404,89.25692109577358 134.95599999651313,86.25547021161765 144.02799999713898,86.25547021161765 151.80399999767542,86.25547021161765 162.17199999839067,88.50655848998576 166.70799999684095,87.75619580643252 182.26000000163913,81.75329159293324 183.55599999800324,79.50220125401393 183.55599999800324,73.49929031124339 180.96399999782443,67.49637447483838 177.72399999946356,65.99564475286752 157.6359999962151,68.24673922313377 144.02799999713898,67.49637447483838 135.60399999842048,65.24527977593243 120.0519999973476,65.24527977593243 112.27599999308586,65.24527977593243" stroke="#4dd2ff" stroke-linecap="round" stroke-linejoin="round" stroke-width="0.5"><title>2023-07-12 1.2km</title></polyline><polyline fill="none" points="72.82000000029802,241.50802561920136 79.30000000074506,242.25838845595717 90.31599999964237,240.7576627084054 93.55599999800324,238.50657351501286 94.85199999809265,235.50512018427253 94.2039999999106,231.0029378947802 87.72399999946356,216.74600915284827 83.83599999919534,215.24527820711955 71.52400000020862,215.24527820711955 58.56399999931455,209.9927174844779 36.53199999779463,206.24088610289618 24.219999998807907,209.2423513601534 17.092000000178814,215.24527820711955 15.148000001907349,218.9971050005406 15.148000001907349,225.00002389587462 18.38800000026822,238.50657351501286 20.980000000447035,240.7576627084054 31.34800000116229,243.75911389756948 39.12399999797344,240.7576627084054 47.54800000041723,240.007299721241 68.9320000000298,240.7576627084054 85.13199999928474,240.007299721241 88.3720000013709,239.25693665491417 90.31599999964237,233.25402938295156 86.42799999937415,221.9985650582239 83.83599999919534,219.74747013067827 72.17200000211596,221.9985650582239 59.212000001221895,217.49637451162562 35.23600000143051,217.49637451162562 19.03599999472499,220.49783518351614 15.148000001907349,222.7489298824221 15.148000001907349,225.750388414599 19.683999996632338,239.25693665491417 21.627999998629093,240.7576627084054 28.10800000280142,241.50802561920136 41.0679999999702,237.00584700051695 63.747999999672174,239.25693665491417 87.72399999946356,237.75621029594913 89.02000000327826,237.00584700051695 89.66799999773502,234.75475666159764 88.3720000013709,221.24820016045123 86.42799999937415,218.2467397954315 70.87599999830127,220.49783518351614 53.37999999895692,218.2467397954315 37.17999999970198,218.9971050005406 22.9239999987185,218.2467397954315 16.443999998271465,219.74747013067827 14.5,222.7489298824221 17.092000000178814,232.50366563070565 19.03599999472499,234.75475666159764 26.81199999898672,240.7576627084054 38.475999999791384,240.007299721241 48.19599999859929,237.75621029594913 68.9320000000298,240.7576627084054 78.652000002563,238.50657351501286 89.02000000327826,239.25693665491417 92.26000000163913,237.75621029594913 92.9079999960959,234.004393060226 89.66799999773502,224.24965930031613 85.13199999928474,218.9971050005406 78.00400000065565,217.49637451162562 65.04399999976158,218.9971050005406 53.37999999895692,216.74600915284827 44.30799999833107,220.49783518351614 33.291999999433756,220.49783518351614 19.03599999472499,223.4992946307175 17.092000000178814,224.24965930031613 15.795999996364117,226.50075285183266 17.092000000178814,234.004393060226 20.980000000447035,240.007299721241 24.219999998807907,240.007299721241 32.64399999752641,236.25548363057896 37.17999999970198,235.50512018427253 41.715999998152256,233.25402938295156 46.899999998509884,232.50366563070565 61.15599999949336,237.75621029594913 74.76399999856949,240.7576627084054 92.26000000163913,241.50802561920136 94.2039999999106,240.007299721241 95.5,237.75621029594913 95.5,234.75475666159764 89.66799999773502,221.24820016045123 87.72399999946356,218.9971050005406 82.53999999910593,217.49637451162562 69.57999999821186,220.49783518351614 54.02800000086427,218.9971050005406 51.43600000068545,219.74747013067827 47.54800000041723,222.7489298824221 20.331999998539686,223.4992946307175 15.148000001907349,224.24965930031613 14.5,226.50075285183266 18.38800000026822,238.50657351501286 23.57200000062585,243.00875121401623 28.755999997258186,243.00875121401623 35.23600000143051,240.007299721241 43.66000000014901,238.50657351501286 50.787999998778105,238.50657351501286 61.80400000140071,240.7576627084054 65.04399999976158,240.007299721241" stroke="#4dd2ff" stroke-linecap="round" stroke-linejoin="round" stroke-width="0.5"><title>2023-07-11 1.4km</title></polyline><polyline fill="none" points="179.524590164423,237.30105927214026 180.18852459266782,238.8386881123297 183.50819672644138,236.53224473632872 184.83606557920575,233.4569858009927 184.83606557920575,228.84409505315125 179.524590164423,212.698955219239 153.63114754483104,211.93013817770407 139.024590164423,208.8548692157492 110.4754098393023,210.39250385388732 105.82786885648966,212.698955219239 104.5,216.54303926695138 106.4918032810092,229.6129103731364 109.14754098653793,234.22580065298826 112.46721311658621,236.53224473632872 143.0081967227161,239.60750241344795 150.9754098393023,238.8386881123297 164.91803279146552,241.14513078378513 173.54918033257127,241.14513078378513 182.18032786995173,238.8386881123297 184.17213115096092,235.76343011902645 184.17213115096092,231.91935586649925 181.51639344915748,219.61830509407446 178.86065573990345,214.2365890746005 176.86885246261954,213.4677721853368 164.91803279146552,213.4677721853368 152.30327869206667,211.1613210537471 134.37704918161035,215.0054058828391 127.07377049326897,213.4677721853368 115.78688524663448,214.2365890746005 106.4918032810092,216.54303926695138 104.5,220.3871213537641 107.15573770925403,227.30646417615935 111.13934426382184,233.4569858009927 114.45901639387012,236.53224473632872 118.44262295216322,238.06987373018637 126.40983606874943,237.30105927214026 134.37704918161035,234.22580065298826 146.9918032810092,231.91935586649925 156.28688525035977,234.22580065298826 166.2459016405046,232.68817087309435 179.524590164423,234.99461542628706 183.50819672644138,232.68817087309435 184.17213115096092,229.6129103731364 182.18032786995173,218.84948875382543 181.51639344915748,217.3118558418937 178.19672131165862,215.0054058828391 166.2459016405046,217.3118558418937 152.9672131203115,215.7742226147093 148.9836065620184,213.4677721853368 135.04098360985518,216.54303926695138 127.07377049326897,211.93013817770407 115.12295082211494,211.1613210537471 111.13934426382184,212.698955219239 108.4836065582931,214.2365890746005 107.15573770925403,219.61830509407446 107.81967213377357,227.30646417615935 110.4754098393023,234.99461542628706 118.44262295216322,240.37631663819775 124.41803279146552,238.8386881123297 131.7213114798069,230.38172561628744 136.36885246261954,228.84409505315125 180.85245902091265,236.53224473632872 183.50819672644138,234.22580065298826 184.83606557920575,231.15054078167304 181.51639344915748,219.61830509407446 179.524590164423,217.3118558418937 170.89344262704253,214.2365890746005 164.91803279146552,216.54303926695138 158.27868852764368,215.0054058828391 152.30327869206667,217.3118558418937 131.7213114798069,218.0806723353453 115.78688524663448,215.7742226147093 110.4754098393023,218.0806723353453 109.81147541105747,223.46238561486825 111.80327869206667,234.99461542628706 115.12295082211494,236.53224473632872 126.40983606874943,234.99461542628706 137.6967213153839,236.53224473632872 153.63114754483104,232.68817087309435 165.58196721598506,233.4569858009927 176.86885246261954,235.76343011902645 182.84426229819655,234.99461542628706 185.5,231.91935586649925 184.83606557920575,225.76883298624307 180.18852459266782,218.84948875382543 174.87704918161035,215.7742226147093 160.27049180865288,217.3118558418937 156.28688525035977,215.0054058828391 143.67213115096092,212.698955219239 139.68852459266782,213.4677721853368 134.37704918161035,216.54303926695138 125.08196721598506,213.4677721853368 116.45081967487931,212.698955219239 108.4836065582931,215.7742226147093 107.15573770925403,218.0806723353453" stroke="#4dd2ff" stroke-linecap="round" stroke-linejoin="round" stroke-width="0.5"><title>2023-07-10 1.3km</title></polyline></svg>