<?xml version="1.0" encoding="utf-8" ?>
<svg baseProfile="full" height="300mm" version="1.1" viewBox="0,0,200,300" width="200mm" xmlns="http://www.w3.org/2000/svg" xmlns:ev="http://www.w3.org/2001/xml-events" xmlns:xlink="http://www.w3.org/1999/xlink"><defs /><rect fill="#222222" height="300" width="200" x="0" y="0" /><text fill="#FFFFFF" style="font-size:12px; font-family:Arial; font-weight:bold;" x="10" y="20">Over 1km Runs</text><text fill="#FFFFFF" style="font-size:4px; font-family:Arial" x="10" y="280">ATHLETE</text><text fill="#FFFFFF" style="font-size:9px; font-family:Arial" x="10" y="290">Andy Chen</text><text fill="#FFFFFF" style="font-size:4px; font-family:Arial" x="120" y="280">STATISTICS</text><text fill="#FFFFFF" style="font-size:3px; font-family:Arial" x="120" y="285">Number: 7</text><text fill="#FFFFFF" style="font-size:3px; font-family:Arial" x="120" y="290">Weekly: 2.3</text><text fill="#FFFFFF" style="font-size:3px; font-family:Arial" x="141" y="285">Total: 10.2 km</text><text fill="#FFFFFF" style="font-size:3px; font-family:Arial" x="141" y="290">Avg: 1.5 km</text><text fill="#FFFFFF" style="font-size:3px; font-family:Arial" x="167" y="285">Min: 1.1 km</text><text fill="#FFFFFF" style="font-size:3px; font-family:Arial" x="167" y="290">Max: 1.9 km</text><polyline fill="none" points="48.323308270424604,67.52245746273547 56.443609019741416,69.87321822484955 64.15789473615587,67.99260970996693 66.18796992301941,66.11200042907149 67.0,63.2910850699991 66.18796992301941,58.119402434211224 64.15789473615587,55.29848218895495 62.533834585919976,53.88802141929045 46.29323308356106,48.24617402860895 41.827067667618394,48.24617402860895 27.616541352123022,51.06709858588874 21.120300751179457,49.656636523548514 17.872180450707674,50.12679059058428 14.218045111745596,53.41786773269996 13.40601503662765,56.23878912720829 16.654135338962078,64.70154296560213 18.68421052582562,67.52245746273547 21.526315789669752,68.93291406333447 24.774436090141535,68.93291406333447 28.834586465731263,65.64184798812494 34.11278195492923,64.23139038262889 44.669172931462526,67.52245746273547 58.8796992469579,68.93291406333447 63.34586465917528,67.52245746273547 64.15789473615587,65.17169550154358 64.56390977464616,61.41047387337312 61.72180451080203,53.88802141929045 58.8796992469579,53.41786773269996 50.35338345915079,53.41786773269996 43.045112781226635,52.0074063888751 36.95488721691072,53.41786773269996 26.804511277005076,53.88802141929045 18.27819548919797,52.477560218889266 13.8120300732553,53.88802141929045 13.40601503662765,56.23878912720829 17.060150373727083,65.64184798812494 19.90225563943386,67.99260970996693 27.210526315495372,70.34337023319677 29.64661654084921,70.34337023319677 33.70676691643894,69.4030661676079 38.578947369009256,70.34337023319677 42.639097744598985,69.87321822484955 51.57142857089639,71.75382597139105 54.81954887136817,70.34337023319677 58.06766917183995,69.87321822484955 61.72180451080203,67.99260970996693 64.15789473615587,64.70154296560213 64.56390977464616,59.05970879783854 62.127819549292326,53.88802141929045 60.097744358703494,53.41786773269996 48.729323307052255,52.477560218889266 37.360902255401015,53.41786773269996 31.676691729575396,50.59694461384788 23.556390976533294,48.24617402860895 20.30827067606151,48.716328241396695 15.842105261981487,50.59694461384788 13.8120300732553,52.947713998146355 13.40601503662765,54.35817505652085 15.436090225353837,60.47016798751429 16.654135338962078,63.2910850699991 19.90225563943386,67.0523051652126 23.96240601502359,69.4030661676079 26.804511277005076,66.58215282158926 37.360902255401015,65.17169550154358 51.16541353240609,68.93291406333447 55.631578946486115,67.52245746273547 60.909774435684085,67.99260970996693 63.34586465917528,66.58215282158926 63.75187969766557,65.17169550154358 62.93984962441027,59.05970879783854 61.72180451080203,56.23878912720829 59.691729322075844,54.35817505652085 58.06766917183995,54.82832864718512 43.45112781971693,52.477560218889266 40.6090225558728,52.477560218889266 36.142857141792774,54.35817505652085 33.30075187981129,54.35817505652085 30.458646615967155,52.477560218889266 21.932330826297402,51.06709858588874 17.872180450707674,51.5372525122948 15.030075186863542,52.477560218889266 13.40601503662765,56.23878912720829 14.218045111745596,59.05970879783854 19.496240600943565,66.58215282158926 22.744360903277993,68.93291406333447 24.774436090141535,68.93291406333447 36.95488721691072,67.52245746273547 42.23308270610869,67.52245746273547 53.601503759622574,70.34337023319677 61.72180451080203,69.4030661676079 64.56390977464616,67.0523051652126 65.37593984976411,62.82093234313652 65.37593984976411,58.119402434211224 64.56390977464616,55.29848218895495 62.533834585919976,53.88802141929045 57.6616541352123,52.477560218889266 47.10526315867901,51.06709858588874 44.263157894834876,51.06709858588874 38.172932328656316,52.477560218889266 24.774436090141535,51.5372525122948 17.46616541221738,52.477560218889266 14.218045111745596,53.41786773269996 13.8120300732553,55.76863568322733 15.030075186863542,59.529861909803 17.872180450707674,64.70154296560213 19.496240600943565,66.58215282158926 28.428571429103613,67.52245746273547 36.95488721691072,67.52245746273547 52.78947368077934,69.87321822484955 62.533834585919976,69.4030661676079 64.56390977464616,67.52245746273547 65.37593984976411,66.11200042907149 65.78195488452911,62.35077956691384 64.56390977464616,55.29848218895495 64.15789473615587,53.88802141929045 62.93984962441027,52.947713998146355 55.225563909858465,51.5372525122948 40.6090225558728,51.5372525122948 34.92481203004718,52.477560218889266 29.64661654084921,50.59694461384788 22.338345864787698,50.59694461384788 15.436090225353837,52.0074063888751 13.8120300732553,52.477560218889266 13.0,54.82832864718512 13.8120300732553,58.119402434211224 15.842105261981487,62.82093234313652 19.090225564315915,66.58215282158926 22.744360903277993,67.99260970996693 32.48872180469334,69.4030661676079 38.98496240749955,68.46276191016659 53.19548872113228,70.81352219451219 60.909774435684085,69.4030661676079 64.15789473615587,67.52245746273547 65.37593984976411,65.64184798812494 65.78195488452911,63.76123775029555" stroke="#4dd2ff" stroke-linecap="round" stroke-linejoin="round" stroke-width="0.5"><title>2023-07-25 1.9km</title></polyline><polyline fill="none" points="185.3759398497641,69.63813977595419 186.5939849615097,67.75753087783232 187.0,65.40676867822185 185.78195488639176,57.884321589488536 184.96992481313646,55.53355435933918 183.34586466103792,54.593247131444514 175.63157894834876,54.12309344485402 163.85714285634458,50.361862235702574 158.17293233051896,49.89170811930671 151.6766917295754,52.24247822444886 141.12030075117946,51.30217032553628 134.2180451117456,54.593247131444514 133.0,57.884321589488536 133.81203007511795,61.17539369966835 136.24812030047178,65.87692121369764 138.27819548733532,68.2276831753552 146.80451127886772,70.10829188022763 151.6766917295754,69.63813977595419 160.6090225558728,68.2276831753552 181.31578947417438,70.10829188022763 185.3759398497641,68.2276831753552 186.1879699267447,67.28737853420898 185.78195488639176,63.99631078215316 184.56390977464616,56.944014839828014 180.50375939905643,55.06340076867491 169.9473684206605,52.712632100563496 137.46616541408002,55.06340076867491 134.62406014837325,56.00370790110901 133.81203007511795,57.884321589488536 138.68421052582562,67.28737853420898 141.12030075117946,68.2276831753552 143.55639097839594,68.69783542258665 158.5789473671466,65.87692121369764 165.07518796995282,68.2276831753552 174.00751879625022,69.63813977595419 182.12781954742968,69.16798762278631 184.56390977464616,68.69783542258665 185.3759398497641,67.28737853420898 186.1879699267447,63.99631078215316 185.78195488639176,58.354474891442806 183.75187969952822,56.00370790110901 180.50375939905643,55.06340076867491 163.85714285634458,53.652939710300416 150.0526315793395,54.593247131444514 139.49624060094357,53.652939710300416 134.62406014837325,54.593247131444514 133.81203007511795,56.00370790110901 133.40601503662765,60.235087621957064 136.65413533709943,65.40676867822185 139.49624060094357,68.2276831753552 145.99248120374978,69.63813977595419 152.08270676620305,67.28737853420898 176.84962406009436,68.2276831753552 183.75187969952822,67.28737853420898 184.96992481313646,66.34707370074466 185.78195488639176,61.64554666634649 184.96992481313646,55.06340076867491 184.15789473615587,54.12309344485402 174.81954887136817,52.24247822444886 169.13533834554255,51.772324298042804 154.11278195492923,53.652939710300416 137.46616541408002,54.12309344485402 134.2180451117456,55.53355435933918 133.81203007511795,57.884321589488536 138.27819548733532,66.34707370074466 142.74436090141535,69.16798762278631 157.36090225726366,65.87692121369764 161.0150375943631,66.34707370074466 164.26315789483488,68.69783542258665 166.6992481201887,69.16798762278631 178.0676691737026,68.2276831753552 182.53383458778262,68.69783542258665 185.78195488639176,67.28737853420898 186.1879699267447,63.99631078215316 184.96992481313646,58.824628146365285 182.93984962627292,57.884321589488536 174.81954887136817,58.354474891442806 168.3233082704246,56.47386139538139 164.66917293332517,56.47386139538139 139.09022556431592,54.12309344485402 135.03007518686354,55.06340076867491 133.81203007511795,56.00370790110901 133.81203007511795,57.884321589488536 135.03007518686354,61.17539369966835 138.27819548733532,67.28737853420898 142.3383458647877,69.63813977595419 145.58646616525948,70.10829188022763 148.83458646573126,69.16798762278631 154.11278195492923,64.93661609524861 158.17293233051896,63.99631078215316 165.48120300658047,64.93661609524861 168.7293233089149,65.87692121369764 183.34586466103792,68.2276831753552 186.5939849615097,67.28737853420898 187.0,64.93661609524861 184.15789473615587,58.824628146365285 178.0676691737026,55.53355435933918 167.105263158679,54.12309344485402 153.70676691830158,54.12309344485402 140.3082706760615,52.712632100563496 134.62406014837325,54.593247131444514 133.81203007511795,55.53355435933918 133.40601503662765,58.354474891442806 136.24812030047178,64.46646346291527" stroke="#4dd2ff" stroke-linecap="round" stroke-linejoin="round" stroke-width="0.5"><title>2023-07-24 1.8km</title></polyline><polyline fill="none" points="52.82400706410408,138.90004209801555 57.09867608547211,138.90004209801555 59.43031373433769,138.0000458578579 60.984738832339644,136.65005115559325 64.48219530470669,130.35007041646168 63.31637647934258,126.75007738685235 58.653101183474064,120.45008252328262 58.26449491083622,118.65008233953267 59.81892000697553,111.90007511759177 62.53916393220425,104.70005604019389 62.927770206704736,101.10004209820181 60.596132557839155,97.05002290848643 55.54425098747015,93.0 53.601219614967704,93.0 49.32655059359968,94.35000804951414 39.22278745286167,93.45000272989273 34.55951215699315,94.35000804951414 28.730418037623167,100.65004015015438 21.735505094751716,104.25005445862189 17.849442346021533,107.85006583062932 16.295017248019576,111.00007337424904 16.295017248019576,115.95008068857715 18.626654896885157,121.8000821787864 18.238048622384667,128.10007511638105 19.015261169523,131.70006704563275 22.12411136738956,134.4000590648502 26.398780388757586,137.10004943516105 30.284843135625124,138.0000458578579 33.39369333162904,136.65005115559325 34.94811843149364,143.40002054348588 36.891149803996086,143.8500181371346 45.05188157223165,142.950022906065 51.65818824060261,139.80003815423697 55.54425098747015,139.35004014987499 59.43031373433769,137.55004767002538 62.15055765584111,133.5000619092025 63.31637647934258,129.45007243333384 62.53916393220425,126.75007738685235 58.653101183474064,123.60008107870817 57.87588863633573,120.0000825454481 58.653101183474064,113.70007805200294 61.76195138320327,106.50006191013381 62.15055765584111,102.0000458592549 60.207526283338666,97.95002749375999 55.54425098747015,94.80001063970849 52.435400791466236,94.35000804951414 43.10885019786656,95.25001318473369 38.44557490199804,93.90000541321933 35.336724704131484,94.35000804951414 32.22787450812757,95.70001568458974 26.398780388757586,102.90004943637177 20.958292542025447,104.70005604019389 17.072229797020555,109.20006933948025 15.517804697155952,112.35007592011243 15.906410973519087,116.40008107945323 17.849442346021533,121.8000821787864 16.683623522520065,126.75007738685235 16.683623522520065,128.10007511638105 18.238048622384667,130.8000693381764 27.953205486759543,137.10004943516105 29.507630586624146,137.55004767002538 34.170905880630016,137.55004767002538 34.94811843149364,142.50002522254363 36.891149803996086,145.65000804839656 47.383519219234586,143.40002054348588 49.32655059359968,142.50002522254363 51.65818824060261,139.80003815423697 58.26449491083622,138.90004209801555 59.81892000697553,138.0000458578579 62.15055765584111,134.85005757538602 63.31637647934258,131.25006821425632 62.927770206704736,129.00007337378338 59.43031373433769,124.50008025299758 58.653101183474064,122.70008172048256 58.653101183474064,118.20008218009025 62.15055765584111,106.95006326260045 62.15055765584111,104.25005445862189 59.43031373433769,98.85003189509735 57.87588863633573,96.60002054553479 54.37843216396868,95.25001318473369 46.99491294659674,95.25001318473369 41.94303137436509,94.35000804951414 35.336724704131484,95.25001318473369 32.22787450812757,97.05002290848643 31.062055684626102,99.75003611436114 29.119024312123656,101.55004400247708 20.569686269387603,104.70005604019389 18.238048622384667,108.30006704619154 16.295017248019576,113.25007738638669 16.295017248019576,115.05007977224886 18.238048622384667,122.25008197221905 18.238048622384667,124.50008025299758 17.072229797020555,129.00007337378338 18.626654896885157,131.25006821425632 26.787386663258076,135.30005603842437 32.616480784490705,136.20005282992497 33.39369333162904,137.55004767002538 34.55951215699315,142.950022906065 35.72533098049462,144.75001318426803 37.279756078496575,144.75001318426803 46.60630667023361,143.8500181371346 48.93794431909919,142.50002522254363 51.65818824060261,139.35004014987499 57.487282359972596,138.4500440005213 62.15055765584111,135.7500544572249 63.31637647934258,128.55007426813245 61.373345106840134,125.40007924288511 58.653101183474064,123.15008142171428 57.87588863633573,120.0000825454481 58.653101183474064,113.70007805200294 61.373345106840134,105.15005757566541 61.373345106840134,101.55004400247708 60.596132557839155,99.75003611436114 57.487282359972596,96.15001813741401 55.54425098747015,94.80001063970849 49.32655059359968,95.25001318473369 34.170905880630016,94.35000804951414 31.062055684626102,96.60002054553479 26.787386663258076,102.45004767132923 21.735505094751716,104.70005604019389 17.849442346021533,108.30006704619154 15.517804697155952,112.35007592011243 15.517804697155952,117.30008172011003 17.849442346021533,123.15008142171428 17.849442346021533,129.00007337378338 19.015261169523,131.25006821425632 20.958292542025447,133.05006326269358 27.953205486759543,136.65005115559325 29.507630586624146,137.10004943516105 32.22787450812757,136.20005282992497 33.39369333162904,136.65005115559325 34.94811843149364,144.75001318426803 36.5025435294956,147.0 38.83418117649853,145.65000804839656" stroke="#4dd2ff" stroke-linecap="round" stroke-linejoin="round" stroke-width="0.5"><title>2023-07-23 1.6km</title></polyline><polyline fill="none" points="182.57377049326897,130.76343261264265 186.55737704969943,128.71325915679336 184.78688524663448,125.12545359507203 184.34426229447126,118.46237933449447 183.45901639387012,116.92474555782974 180.36065573617816,116.41220086393878 178.59016393497586,115.3871113145724 172.3934426214546,113.3369315895252 166.63934426382184,108.72402415238321 156.9016393441707,109.2365696313791 149.81967213004827,113.3369315895252 135.21311475336552,116.92474555782974 133.44262295030057,118.46237933449447 133.44262295030057,123.07527784071863 134.7704918012023,127.68817211454734 136.54098360612988,130.25088932784274 140.08196721225977,131.2759758476168 146.27868852205575,130.25088932784274 154.68852458894253,127.68817211454734 164.42622950859368,128.20071566058323 180.36065573617816,127.68817211454734 183.90163934603333,126.15054115932435 185.2295081950724,121.5376454750076 183.45901639387012,119.48746825708076 181.68852458894253,118.97492382256314 172.83606557175517,118.46237933449447 164.42622950859368,115.89965611463413 151.14754098281264,114.36202155658975 144.06557376869023,117.94983479566872 133.88524590060115,121.5376454750076 133.0,123.07527784071863 133.44262295030057,125.12545359507203 135.65573770552874,129.2258025999181 137.42622950859368,131.2759758476168 139.63934426382184,131.2759758476168 146.72131147421896,128.71325915679336 161.77049180306494,128.71325915679336 168.85245901718736,126.66308486321941 181.68852458894253,127.17562851402909 186.55737704969943,125.63799740280956 185.67213114723563,120.00001264037564 184.78688524663448,117.94983479566872 178.14754098281264,113.8494765968062 173.2786885239184,112.82438652822748 168.85245901718736,110.26166043477133 160.8852459024638,111.28675102815032 137.86885245889425,118.97492382256314 135.65573770552874,122.5627337708138 136.0983606558293,127.68817211454734 136.9836065582931,128.71325915679336 138.7540983594954,128.71325915679336 145.83606557361782,125.63799740280956 154.24590163864195,123.58782185567543 158.67213114909828,124.1003658217378 166.19672131165862,123.07527784071863 180.36065573617816,124.61290973424911 183.45901639387012,123.07527784071863 182.13114754110575,120.51255696918815 178.14754098281264,120.00001264037564 176.81967213004827,117.43729020282626 164.42622950859368,115.89965611463413 153.80327868834138,121.5376454750076 136.54098360612988,122.5627337708138 134.7704918012023,124.61290973424911 135.21311475336552,128.20071566058323 136.54098360612988,129.73834598995745 138.7540983594954,130.25088932784274 143.18032786808908,129.73834598995745 148.93442622944713,126.15054115932435 152.03278688527644,125.63799740280956 176.81967213004827,125.63799740280956 183.90163934603333,126.15054115932435 187.0,124.61290973424911 185.2295081950724,123.58782185567543" stroke="#4dd2ff" stroke-linecap="round" stroke-linejoin="round" stroke-width="0.5"><title>2023-07-22 1.1km</title></polyline><polyline fill="none" points="63.11199999973178,171.9961229255423 61.81599999964237,170.99563582940027 47.559999998658895,170.4953922079876 39.35199999809265,168.99466103035957 27.25599999912083,168.99466103035957 16.45600000023842,172.49636639514938 15.160000000149012,174.49733976693824 14.727999998256564,175.9980692616664 15.592000000178814,180.50025499146432 18.615999998524785,188.00388869876042 20.776000000536442,189.5046140635386 29.415999999269843,191.00533896917477 31.575999999418855,190.5050973854959 33.735999999567866,187.5036468077451 35.89599999971688,186.50316287577152 44.96800000034273,187.00340486690402 54.47199999913573,188.50413053762168 61.81599999964237,187.00340486690402 65.27199999988079,185.50267873751 66.5679999999702,183.0014675022103 66.5679999999702,181.00049759447575 65.27199999988079,177.99904120713472 57.06399999931455,173.49685318395495 51.87999999895692,174.49733976693824 48.424000000581145,173.49685318395495 35.89599999971688,178.9995268736966 22.503999998793006,176.99855533754453 19.480000000447035,177.49879829632118 19.480000000447035,180.00001233629882 20.34400000050664,184.00195214897394 21.6399999987334,187.5036468077451 23.36799999885261,188.00388869876042 32.0080000013113,188.00388869876042 38.48799999989569,186.00292083108798 45.40000000037253,186.50316287577152 52.31199999898672,188.00388869876042 57.49599999934435,187.5036468077451 63.11199999973178,187.5036468077451 66.13600000180304,186.50316287577152 66.5679999999702,184.50219439482316 67.0,180.50025499146432 65.7039999999106,173.99709650175646 63.54399999976158,173.49685318395495 53.175999999046326,175.4978261482902 44.96800000034273,172.49636639514938 15.160000000149012,172.49636639514938 13.864000000059605,173.49685318395495 13.0,174.99758298322558 13.432000000029802,177.49879829632118 16.02399999834597,183.0014675022103 21.6399999987334,190.00485575012863 23.36799999885261,189.5046140635386 28.984000001102686,186.50316287577152 32.0080000013113,187.00340486690402 35.89599999971688,186.50316287577152 40.2160000000149,188.00388869876042 44.10399999842048,187.00340486690402 51.87999999895692,188.00388869876042 63.975999999791384,186.00292083108798 65.7039999999106,185.00243659177795 65.7039999999106,178.9995268736966 63.975999999791384,174.49733976693824 62.24800000153482,173.99709650175646 58.3600000012666,174.49733976693824 51.44800000078976,173.49685318395495 43.23999999836087,176.99855533754453 43.23999999836087,177.99904120713472 41.943999998271465,178.4992840657942 30.280000001192093,175.4978261482902 22.503999998793006,175.4978261482902 21.2079999987036,175.9980692616664 20.34400000050664,177.99904120713472 20.776000000536442,186.50316287577152 22.071999998763204,188.00388869876042 28.55199999921024,189.5046140635386 33.303999999538064,187.5036468077451 39.35199999809265,187.5036468077451 44.536000000312924,187.5036468077451 51.44800000078976,189.00437232665718 54.47199999913573,188.50413053762168 64.84000000171363,184.50219439482316 65.7039999999106,183.0014675022103 65.7039999999106,178.9995268736966 63.975999999791384,174.99758298322558 61.81599999964237,173.99709650175646 48.424000000581145,175.4978261482902 39.35199999809265,174.99758298322558 33.735999999567866,173.49685318395495 23.36799999885261,173.49685318395495" stroke="#4dd2ff" stroke-linecap="round" stroke-linejoin="round" stroke-width="0.5"><title>2023-07-12 1.2km</title></polyline><polyline fill="none" points="171.88000000081956,191.0053504128009 176.2000000011176,191.50559230381623 183.54399999976158,190.50510847195983 185.7039999999106,189.0043823425658 186.5679999999702,187.00341345602646 186.1359999999404,184.00195859652013 181.81599999964237,174.49733943445608 179.22399999946356,173.49685213761404 171.0159999988973,173.49685213761404 162.3760000001639,169.99514498887584 147.68799999915063,167.49392406828701 139.4799999985844,169.4949009064585 134.7280000001192,173.49685213761404 133.4320000000298,175.9980700002052 133.4320000000298,180.00001593027264 135.5920000001788,189.0043823425658 137.32000000029802,190.50510847195983 144.23200000077486,192.50607593171299 149.41599999926984,190.50510847195983 155.03199999965727,190.00486648082733 169.28800000064075,190.50510847195983 180.0880000013858,190.00486648082733 182.24799999967217,189.50462443614379 183.54399999976158,185.50268625468016 180.95199999958277,177.99904337199405 179.22399999946356,176.49831342045218 171.44800000078976,177.99904337199405 162.80800000019372,174.99758300790563 146.82400000095367,174.99758300790563 136.02399999834597,176.99855678901076 133.4320000000298,178.4992865882814 133.4320000000298,180.50025894260034 136.45599999837577,189.50462443614379 137.75199999846518,190.50510847195983 142.07200000062585,191.0053504128009 150.71199999935925,188.00389799987897 165.8319999985397,189.50462443614379 181.81599999964237,188.50414019683376 182.68000000156462,188.00389799987897 183.11199999973178,186.5031711072661 182.24799999967217,177.49880010681227 180.95199999958277,175.4978265305981 170.5839999988675,176.99855678901076 158.9199999999255,175.4978265305981 148.12000000104308,175.9980700002052 138.61600000038743,175.4978265305981 134.2960000000894,176.49831342045218 133.0,178.4992865882814 134.7280000001192,185.00244375364855 136.02399999834597,186.5031711072661 141.2079999987036,190.50510847195983 148.98399999924004,190.00486648082733 155.46399999968708,188.50414019683376 169.28800000064075,190.50510847195983 175.76800000108778,189.0043823425658 182.68000000156462,189.50462443614379 184.839999999851,188.50414019683376 185.27199999801815,186.00292870681733 183.11199999973178,179.4997728667222 180.0880000013858,175.9980700002052 175.33599999919534,174.99758300790563 166.6959999985993,175.9980700002052 158.9199999999255,174.49733943445608 152.87199999950826,176.99855678901076 145.52800000086427,176.99855678901076 136.02399999834597,178.999529753346 134.7280000001192,179.4997728667222 133.86399999819696,181.000501901377 134.7280000001192,186.00292870681733 137.32000000029802,190.00486648082733 139.4799999985844,190.00486648082733 145.09599999897182,187.50365575402975 148.12000000104308,187.00341345602646 151.14399999938905,185.50268625468016 154.59999999962747,185.00244375364855 164.10400000028312,188.50414019683376 173.17599999904633,190.50510847195983 184.839999999851,191.0053504128009 186.1359999999404,190.00486648082733 187.0,188.50414019683376 187.0,186.5031711072661 183.11199999973178,177.49880010681227 181.81599999964237,175.9980700002052 178.35999999940395,174.99758300790563 169.7199999988079,176.99855678901076 159.35200000181794,175.9980700002052 157.6239999998361,176.49831342045218 155.03199999965727,178.4992865882814 136.88800000026822,178.999529753346 133.4320000000298,179.4997728667222 133.0,181.000501901377 135.5920000001788,189.0043823425658 139.0479999985546,192.0058341426775 142.503999998793,192.0058341426775 146.82400000095367,190.00486648082733 152.4400000013411,189.0043823425658 157.19199999794364,189.0043823425658 164.53600000031292,190.50510847195983 166.6959999985993,190.00486648082733" stroke="#4dd2ff" stroke-linecap="round" stroke-linejoin="round" stroke-width="0.5"><title>2023-07-11 1.4km</title></polyline><polyline fill="none" points="63.01639344356954,248.20070618158206 63.459016393870115,249.22579207457602 65.67213115096092,247.68816315801814 66.55737705156207,245.6379905338399 66.55737705156207,242.5627300357446 63.01639344356954,231.799303479027 45.75409836322069,231.28675878513604 36.01639344356954,229.23657947778702 16.983606558293104,230.26166923576966 13.885245904326439,231.799303479027 13.0,234.36202617827803 14.327868852764368,243.0752735817805 16.098360657691956,246.15053376881406 18.311475411057472,247.68816315801814 38.67213114909828,249.73833494260907 43.98360656015575,249.22579207457602 53.278688525781035,250.76342052221298 59.03278688713908,250.76342052221298 64.78688524663448,249.22579207457602 66.11475409939885,247.1756200795062 66.11475409939885,244.61290391115472 64.34426229819655,236.41220339620486 62.57377049326897,232.824392716866 61.2459016405046,232.31184812402353 53.278688525781035,232.31184812402353 44.8688524607569,230.7742140358314 32.91803278774023,233.33693725569174 28.049180326983333,232.31184812402353 20.52459016442299,232.824392716866 14.327868852764368,234.36202617827803 13.0,236.9247475694865 14.770491804927588,241.53764278441668 17.426229510456324,245.6379905338399 19.63934426382184,247.68816315801814 22.295081969350576,248.71324915392324 27.606557378545403,248.20070618158206 32.91803278774023,246.15053376881406 41.32786885462701,244.61290391115472 47.524590166285634,246.15053376881406 54.163934426382184,245.12544724904 63.01639344356954,246.66307695070282 65.67213115096092,245.12544724904 66.11475409939885,243.0752735817805 64.78688524663448,235.89965916937217 64.34426229819655,234.8745705615729 62.13114754110575,233.33693725569174 54.163934426382184,234.8745705615729 45.31147541292012,233.8494817437604 42.65573770739138,232.31184812402353 33.36065573990345,234.36202617827803 28.049180326983333,231.28675878513604 20.081967214122415,230.7742140358314 17.426229510456324,231.799303479027 15.655737705528736,232.824392716866 14.770491804927588,236.41220339620486 15.213114755228162,241.53764278441668 16.983606558293104,246.66307695070282 22.295081969350576,250.25087775941938 26.278688525781035,249.22579207457602 31.147540984675288,243.58781707799062 34.2459016405046,242.5627300357446 63.901639346033335,247.68816315801814 65.67213115096092,246.15053376881406 66.55737705156207,244.10036052111536 64.34426229819655,236.41220339620486 63.01639344356954,234.8745705615729 57.26229508407414,232.824392716866 53.278688525781035,234.36202617827803 48.85245901905,233.33693725569174 44.8688524607569,234.8745705615729 31.147540984675288,235.38711489038542 20.52459016442299,233.8494817437604 16.983606558293104,235.38711489038542 16.540983606129885,238.97492374293506 17.868852460756898,246.66307695070282 20.081967214122415,247.68816315801814 27.606557378545403,246.66307695070282 35.13114754296839,247.68816315801814 45.75409836322069,245.12544724904 53.72131147608161,245.6379905338399 61.2459016405046,247.1756200795062 65.2295081987977,246.66307695070282 67.0,244.61290391115472 66.55737705156207,240.51255532400683 63.459016393870115,235.89965916937217 59.91803278774023,233.8494817437604 50.18032787181437,234.8745705615729 47.524590166285634,233.33693725569174 39.11475409939885,231.799303479027 36.459016393870115,232.31184812402353 32.91803278774023,234.36202617827803 26.72131147608161,232.31184812402353 20.96721311658621,231.799303479027" stroke="#4dd2ff" stroke-linecap="round" stroke-linejoin="round" stroke-width="0.5"><title>2023-07-10 1.3km</title></polyline></svg>