<?xml version="1.0" encoding="utf-8" ?>
<svg baseProfile="full" height="300mm" version="1.1" viewBox="0,0,200,300" width="200mm" xmlns="http://www.w3.org/2000/svg" xmlns:ev="http://www.w3.org/2001/xml-events" xmlns:xlink="http://www.w3.org/1999/xlink"><defs /><rect fill="#222222" height="300" width="200" x="0" y="0" /><text fill="#FFFFFF" style="font-size:12px; font-family:Arial; font-weight:bold;" x="10" y="20">Over 1km Runs</text><text fill="#FFFFFF" style="font-size:4px; font-family:Arial" x="10" y="280">ATHLETE</text><text fill="#FFFFFF" style="font-size:9px; font-family:Arial" x="10" y="290">Andy Chen</text><text fill="#FFFFFF" style="font-size:4px; font-family:Arial" x="120" y="280">STATISTICS</text><text fill="#FFFFFF" style="font-size:3px; font-family:Arial" x="120" y="285">Number: 6</text><text fill="#FFFFFF" style="font-size:3px; font-family:Arial" x="120" y="290">Weekly: 2.0</text><text fill="#FFFFFF" style="font-size:3px; font-family:Arial" x="141" y="285">Total: 8.4 km</text><text fill="#FFFFFF" style="font-size:3px; font-family:Arial" x="141" y="290">Avg: 1.4 km</text><text fill="#FFFFFF" style="font-size:3px; font-family:Arial" x="167" y="285">Min: 1.1 km</text><text fill="#FFFFFF" style="font-size:3px; font-family:Arial" x="167" y="290">Max: 1.8 km</text><polyline fill="none" points="83.83458646573126,82.8508530347608 85.45864661410451,80.34337450424209 86.0,77.20902490476146 84.37593984976411,67.17909545265138 83.29323308356106,64.04473914578557 81.12781954742968,62.79099617572501 70.84210526384413,62.164124593604356 55.142857141792774,57.14914964791387 47.56390977278352,56.52227749302983 38.902255637571216,59.6566376327537 24.827067667618394,58.40289376769215 15.624060148373246,62.79099617572501 14.0,67.17909545265138 15.082706766203046,71.56719159986824 18.33082706667483,77.83589495206252 21.037593983113766,80.97024423396215 32.40601503662765,83.47772250743583 38.902255637571216,82.8508530347608 50.812030075117946,80.97024423396215 78.42105263099074,83.47772250743583 83.83458646573126,80.97024423396215 84.91729323379695,79.71650471212342 84.37593984976411,75.3284143768251 82.75187969766557,65.92535312008113 77.33834586292505,63.41786769172177 63.26315789297223,60.2835094681941 19.95488721691072,63.41786769172177 16.165413530543447,64.67161053465679 15.082706766203046,67.17909545265138 21.57894736714661,79.71650471212342 24.827067667618394,80.97024423396215 28.07518796995282,81.59711389709264 48.10526315681636,77.83589495206252 56.766917292028666,80.97024423396215 68.67669172771275,82.8508530347608 79.50375939719379,82.22398349735886 82.75187969766557,81.59711389709264 83.83458646573126,79.71650471212342 84.91729323379695,75.3284143768251 84.37593984976411,67.80596652207896 81.66917293332517,64.67161053465679 77.33834586292505,63.41786769172177 55.142857141792774,61.5372529476881 36.73684210330248,62.79099617572501 22.661654133349657,61.5372529476881 16.165413530543447,62.79099617572501 15.082706766203046,64.67161053465679 14.5413533821702,70.31345016276464 18.87218044884503,77.20902490476146 22.661654133349657,80.97024423396215 31.32330827228725,82.8508530347608 39.443609019741416,79.71650471212342 72.46616541408002,80.97024423396215 81.66917293332517,79.71650471212342 83.29323308356106,78.46276493463665 84.37593984976411,72.19406222179532 83.29323308356106,63.41786769172177 82.21052631363273,62.164124593604356 69.75939849577844,59.6566376327537 62.180451126769185,59.02976573072374 42.150375938043,61.5372529476881 19.95488721691072,62.164124593604356 15.624060148373246,64.04473914578557 15.082706766203046,67.17909545265138 21.037593983113766,78.46276493463665 26.992481200024486,82.22398349735886 46.48120300844312,77.83589495206252 51.353383457288146,78.46276493463665 55.684210527688265,81.59711389709264 58.9323308262974,82.22398349735886 74.09022556431592,80.97024423396215 80.04511278122663,81.59711389709264 84.37593984976411,79.71650471212342 84.91729323379695,75.3284143768251 83.29323308356106,68.43283752864227 80.58646616712213,67.17909545265138 69.75939849577844,67.80596652207896 61.097744358703494,65.29848186066374 56.225563909858465,65.29848186066374 22.120300751179457,62.164124593604356 16.706766916438937,63.41786769172177 15.082706766203046,64.67161053465679 15.082706766203046,67.17909545265138 16.706766916438937,71.56719159986824 21.037593983113766,79.71650471212342 26.45112781971693,82.8508530347608 30.78195488639176,83.47772250743583 35.11278195306659,82.22398349735886 42.150375938043,76.58215479366481 47.56390977278352,75.3284143768251 57.30827067606151,76.58215479366481 61.639097744598985,77.83589495206252 81.12781954742968,80.97024423396215 85.45864661410451,79.71650471212342 86.0,76.58215479366481 82.21052631363273,68.43283752864227 74.09022556431592,64.04473914578557 59.47368421033025,62.164124593604356 41.6090225558728,62.164124593604356 23.744360901415348,60.2835094681941 16.165413530543447,62.79099617572501 15.082706766203046,64.04473914578557 14.5413533821702,67.80596652207896 18.33082706667483,75.95528461737558" stroke="#4dd2ff" stroke-linecap="round" stroke-linejoin="round" stroke-width="0.5"><title>2023-07-24 1.8km</title></polyline><polyline fill="none" points="167.0986760854721,95.20005613006651 172.7982347793877,95.20005613006651 175.90708497911692,94.00006114365533 177.9796517752111,92.200068206992 182.6429270710796,83.80009388830513 181.08850197307765,79.00010318215936 174.87080157734454,70.60011003073305 174.35265988111496,68.20010978588834 176.4252266753465,59.200100156944245 180.05221857503057,49.60007471963763 180.5703602731228,44.80005613062531 177.46151007525623,39.400030544027686 170.7256679814309,34.0 168.13495948538184,34.0 162.43540079146624,35.800010732375085 148.9637166019529,34.600003639701754 142.74601620808244,35.800010732375085 134.97389071434736,44.200053533539176 125.64734012447298,49.00007261103019 120.46592312678695,53.800087773706764 118.39335632883012,58.000097832176834 118.39335632883012,64.6001075846143 121.50220652669668,72.40010957140476 120.98406482860446,80.80010015470907 122.02034822665155,85.60008939355612 126.16548182070255,89.20007875282317 131.86504051834345,92.80006591277197 137.0464575123042,94.00006114365533 141.19159110821784,92.200068206992 143.2641579080373,101.2000273913145 145.85486640408635,101.80002418253571 156.73584209382534,100.60003054095432 165.5442509856075,96.40005087200552 170.7256679814309,95.80005353270099 175.90708497911692,93.40006355987862 179.53407687321305,88.0000825454481 181.08850197307765,82.6000965773128 180.05221857503057,79.00010318215936 174.87080157734454,74.80010810447857 173.83451817929745,70.00011006044224 174.87080157734454,61.60010406887159 179.01593517698348,52.00008254637942 179.53407687321305,46.000061145517975 176.943368377164,40.60003665834665 170.7256679814309,36.400014185812324 166.58053438551724,35.800010732375085 154.14513359591365,37.00001757917926 147.92743320204318,35.200007217004895 143.78229960426688,35.800010732375085 139.63716601021588,37.60002091201022 131.86504051834345,47.20006591454148 124.6110567227006,49.60007471963763 119.42963972873986,55.600092452485114 117.35707292892039,59.80010122619569 117.8752146307379,65.20010810531676 120.46592312678695,72.40010957140476 118.91149802878499,79.00010318215936 118.91149802878499,80.80010015470907 120.98406482860446,84.4000924504362 133.93760731443763,92.80006591277197 136.01017411239445,93.40006355987862 142.22787450626493,93.40006355987862 143.2641579080373,100.00003362959251 145.85486640408635,104.20001073088497 159.8446922916919,101.2000273913145 162.43540079146624,100.00003362959251 165.5442509856075,96.40005087200552 174.35265988111496,95.20005613006651 176.4252266753465,94.00006114365533 179.53407687321305,89.80007676687092 181.08850197307765,85.00009095203131 180.5703602731228,82.00009783124551 175.90708497911692,76.00010700384155 174.87080157734454,73.60010896017775 174.87080157734454,67.600109572988 179.53407687321305,52.600084349978715 179.53407687321305,49.00007261103019 175.90708497911692,41.80004252679646 173.83451817929745,38.800027393735945 169.17124288342893,37.00001757917926 159.32655059359968,37.00001757917926 152.59070849977434,35.800010732375085 143.78229960426688,37.00001757917926 139.63716601021588,39.400030544027686 138.08274091035128,43.00004815263674 135.49203241430223,45.40005866996944 124.09291502274573,49.60007471963763 120.98406482860446,54.40008939476684 118.39335632883012,61.0001031816937 118.39335632883012,63.400106362532824 120.98406482860446,73.0001092958264 120.98406482860446,76.00010700384155 119.42963972873986,82.00009783124551 121.50220652669668,85.00009095203131 132.38318221643567,90.40007471758872 140.15530771017075,91.60007043927908 141.19159110821784,93.40006355987862 142.74601620808244,100.60003054095432 144.3004413060844,103.0000175787136 146.37300810404122,103.0000175787136 158.80840889178216,101.80002418253571 161.91725908964872,100.00003362959251 165.5442509856075,95.80005353270099 173.31637647747993,94.60005866689608 179.53407687321305,91.00007260916755 181.08850197307765,81.4000990241766 178.49779347516596,77.20010565686971 174.87080157734454,74.20010856213048 173.83451817929745,70.00011006044224 174.87080157734454,61.60010406887159 178.49779347516596,50.200076767709106 178.49779347516596,45.40005866996944 177.46151007525623,43.00004815263674 173.31637647747993,38.20002418290824 170.7256679814309,36.400014185812324 162.43540079146624,37.00001757917926 142.22787450626493,35.800010732375085 138.08274091035128,38.800027393735945 132.38318221643567,46.600063561461866 125.64734012447298,49.60007471963763 120.46592312678695,54.40008939476684 117.35707292892039,59.80010122619569 117.35707292892039,66.40010895999148 120.46592312678695,74.20010856213048 120.46592312678695,82.00009783124551 122.02034822665155,85.00009095203131 124.6110567227006,87.40008435025811 133.93760731443763,92.200068206992 136.01017411239445,92.80006591277197 139.63716601021588,91.60007043927908 141.19159110821784,92.200068206992 143.2641579080373,103.0000175787136 145.33672470413148,106.0 148.44557490199804,104.20001073088497" stroke="#4dd2ff" stroke-linecap="round" stroke-linejoin="round" stroke-width="0.5"><title>2023-07-23 1.6km</title></polyline><polyline fill="none" points="80.09836066141725,164.35124348383397 85.40983606874943,161.61767887603492 83.04918032884598,156.8339381273836 82.45901639387012,147.94983911281452 81.27868852764368,145.89966074423864 77.14754098281264,145.21626781858504 74.78688525035977,143.84948175307363 66.52459016442299,141.1159087861888 58.85245902091265,134.9653655369766 45.86885246261954,135.64875950897112 36.426229510456324,141.1159087861888 16.950819671154022,145.89966074423864 14.590163934975863,147.94983911281452 14.590163934975863,154.10037045460194 16.36065573617816,160.25089615257457 18.72131147608161,163.66785243758932 23.44262295216322,165.03463446348906 31.704918030649424,163.66785243758932 42.91803278774023,160.25089615257457 55.901639346033335,160.93428754806519 77.14754098281264,160.25089615257457 81.86885246261954,158.20072154607624 83.63934426382184,152.050193966832 81.27868852764368,149.31662434339523 78.91803278774023,148.6332317632623 67.11475409939885,147.94983911281452 55.901639346033335,144.53287481935695 38.19672131165862,142.48269540863112 28.75409836322069,147.26644639438018 15.180327869951725,152.050193966832 14.0,154.10037045460194 14.590163934975863,156.8339381273836 17.540983609855175,162.3010701336898 19.901639346033335,165.03463446348906 22.852459020912647,165.03463446348906 32.295081969350576,161.61767887603492 52.36065573990345,161.61767887603492 61.80327869206667,158.88411315111443 78.91803278774023,159.56750468583778 85.40983606874943,157.51732987118885 84.2295081987977,150.00001685414463 83.04918032884598,147.26644639438018 74.19672131165862,141.7993021295406 67.70491803437471,140.4325153711252 61.80327869206667,137.0155472466722 51.180327869951725,138.38233470451087 20.491803281009197,148.6332317632623 17.540983609855175,153.41697836108506 18.131147541105747,160.25089615257457 19.311475411057472,161.61767887603492 21.672131147235632,161.61767887603492 31.11475409939885,157.51732987118885 42.32786885276437,154.78376247454435 48.2295081987977,155.46715442929417 58.262295082211494,154.10037045460194 77.14754098281264,156.15054631279781 81.27868852764368,154.10037045460194 79.5081967227161,150.68340929225087 74.19672131165862,150.00001685414463 72.42622951045632,146.583053604234 55.901639346033335,144.53287481935695 41.737704921513796,152.050193966832 18.72131147608161,153.41697836108506 16.36065573617816,156.15054631279781 16.950819671154022,160.93428754806519 18.72131147608161,162.9844613200985 21.672131147235632,163.66785243758932 27.573770493268967,162.9844613200985 35.2459016405046,158.20072154607624 39.377049181610346,157.51732987118885 72.42622951045632,157.51732987118885 81.86885246261954,158.20072154607624 86.0,156.15054631279781 83.63934426382184,154.78376247454435" stroke="#4dd2ff" stroke-linecap="round" stroke-linejoin="round" stroke-width="0.5"><title>2023-07-22 1.1km</title></polyline><polyline fill="none" points="180.81599999964237,139.32816390087828 179.08799999952316,137.99418110586703 160.07999999821186,137.32718961080536 149.1359999962151,135.32621470745653 133.007999997586,135.32621470745653 118.60799999907613,139.99515519384295 116.87999999895692,142.66311968909577 116.30399999767542,144.66409234888852 117.45600000023842,150.66700665513054 121.48799999803305,160.671851598192 124.36800000071526,162.67281875154004 135.88799999654293,164.67378529254347 138.76799999922514,164.00679651414976 141.64799999818206,160.00486241048202 144.52799999713898,158.67088383436203 156.62400000169873,159.3378731557168 169.2960000000894,161.33884071698412 179.08799999952316,159.3378731557168 183.6959999985993,157.33690498350188 185.4239999987185,154.00195667007938 185.4239999987185,151.33399679278955 183.6959999985993,147.3320549428463 172.75200000032783,141.3291375786066 165.839999999851,142.66311968909577 161.23200000077486,141.3291375786066 144.52799999713898,148.6660358319059 126.67199999839067,145.9980737832375 122.63999999687076,146.6650643949397 122.63999999687076,150.0000164490193 123.79199999943376,155.3359361984767 125.51999999582767,160.00486241048202 127.82399999722838,160.671851598192 139.34400000050664,160.671851598192 147.9839999973774,158.00389444176108 157.19999999925494,158.67088383436203 166.4159999974072,160.671851598192 173.32799999788404,160.00486241048202 180.81599999964237,160.00486241048202 184.8480000011623,158.67088383436203 185.4239999987185,156.00292586022988 186.0,150.66700665513054 184.2719999998808,141.99612866947427 181.39199999719858,141.3291375786066 167.5679999999702,143.99710153136402 156.62400000169873,139.99515519384295 116.87999999895692,139.99515519384295 115.15199999883771,141.3291375786066 114.0,143.330110644456 114.57599999755621,146.6650643949397 118.03199999779463,154.00195667007938 125.51999999582767,163.33980766730383 127.82399999722838,162.67281875154004 135.31199999898672,158.67088383436203 139.34400000050664,159.3378731557168 144.52799999713898,158.67088383436203 150.2879999987781,160.671851598192 155.47199999541044,159.3378731557168 165.839999999851,160.671851598192 181.96799999848008,158.00389444176108 184.2719999998808,156.66991545585915 184.2719999998808,148.6660358319059 181.96799999848008,142.66311968909577 179.66400000080466,141.99612866947427 174.48000000044703,142.66311968909577 165.2639999985695,141.3291375786066 154.31999999657273,145.9980737832375 154.31999999657273,147.3320549428463 152.59199999645352,147.9990454209037 137.03999999910593,143.99710153136402 126.67199999839067,143.99710153136402 124.94399999827147,144.66409234888852 123.79199999943376,147.3320549428463 124.36800000071526,158.67088383436203 126.09599999710917,160.671851598192 134.73599999770522,162.67281875154004 141.07199999690056,160.00486241048202 149.1359999962151,160.00486241048202 156.04799999669194,160.00486241048202 165.2639999985695,162.00582976918668 169.2960000000894,161.33884071698412 183.12000000104308,156.00292586022988 184.2719999998808,154.00195667007938 184.2719999998808,148.6660358319059 181.96799999848008,143.330110644456 179.08799999952316,141.99612866947427 161.23200000077486,143.99710153136402 149.1359999962151,143.330110644456 141.64799999818206,141.3291375786066 127.82399999722838,141.3291375786066" stroke="#4dd2ff" stroke-linecap="round" stroke-linejoin="round" stroke-width="0.5"><title>2023-07-12 1.2km</title></polyline><polyline fill="none" points="65.83999999985099,244.6738005504012 71.60000000149012,245.3407897381112 81.39200000092387,244.006811295636 84.27199999988079,242.00584312342107 85.4239999987185,239.33788460772485 84.84800000116229,235.33594479504973 79.08799999952316,222.66311924578622 75.63199999928474,221.3291361834854 64.68800000101328,221.3291361834854 53.16799999773502,216.66019331850111 33.58399999886751,213.32523209089413 22.639999996870756,215.9932012083009 16.30399999767542,221.3291361834854 14.5760000012815,224.66409333376214 14.5760000012815,230.0000212402083 17.45600000023842,242.00584312342107 19.759999997913837,244.006811295636 28.975999999791384,246.67476790910587 35.88800000026822,244.006811295636 43.37599999830127,243.33982197428122 62.38399999961257,244.006811295636 76.78400000184774,243.33982197428122 79.66400000080466,242.67283258168027 81.39200000092387,237.33691500639543 77.93600000068545,227.33205782901496 75.63199999928474,225.3310845606029 65.26400000229478,227.33205782901496 53.744000002741814,223.3301106770523 32.4320000000298,223.3301106770523 18.031999997794628,225.9980757185258 14.5760000012815,227.9990487843752 14.5760000012815,230.66701192315668 18.607999999076128,242.67283258168027 20.335999999195337,244.006811295636 26.096000000834465,244.6738005504012 37.61600000038743,240.67186400014907 57.77599999681115,242.67283258168027 79.08799999952316,241.33885359577835 80.24000000208616,240.67186400014907 80.81599999964237,238.67089480999857 79.66400000080466,226.66506680939347 77.93600000068545,223.99710204079747 64.11199999600649,225.9980757185258 48.559999998658895,223.99710204079747 34.16000000014901,224.66409333376214 21.488000001758337,223.99710204079747 15.72800000011921,225.3310845606029 14.0,227.9990487843752 16.30399999767542,236.6699250047095 18.031999997794628,238.67089480999857 24.943999998271465,244.006811295636 35.31199999898672,243.33982197428122 43.95199999958277,241.33885359577835 62.38399999961257,244.006811295636 71.02400000020862,242.00584312342107 80.24000000208616,242.67283258168027 83.12000000104308,241.33885359577835 83.69599999859929,238.0039049424231 80.81599999964237,229.3330304888077 76.78400000184774,224.66409333376214 70.44799999892712,223.3301106770523 58.92799999937415,224.66409333376214 48.559999998658895,222.66311924578622 40.49599999934435,225.9980757185258 30.703999999910593,225.9980757185258 18.031999997794628,228.66603967128322 16.30399999767542,229.3330304888077 15.15199999883771,231.33400253485888 16.30399999767542,238.0039049424231 19.759999997913837,243.33982197428122 22.639999996870756,243.33982197428122 30.127999998629093,240.0048743383959 34.16000000014901,239.33788460772485 38.19199999794364,237.33691500639543 42.80000000074506,236.6699250047095 55.47200000286102,241.33885359577835 67.5679999999702,244.006811295636 83.12000000104308,244.6738005504012 84.84800000116229,243.33982197428122 86.0,241.33885359577835 86.0,238.67089480999857 80.81599999964237,226.66506680939347 79.08799999952316,224.66409333376214 74.48000000044703,223.3301106770523 62.96000000089407,225.9980757185258 49.135999999940395,224.66409333376214 46.831999998539686,225.3310845606029 43.37599999830127,227.9990487843752 19.184000000357628,228.66603967128322 14.5760000012815,229.3330304888077 14.0,231.33400253485888 17.45600000023842,242.00584312342107 22.063999999314547,246.00777885690331 26.671999998390675,246.00777885690331 32.4320000000298,243.33982197428122 39.92000000178814,242.00584312342107 46.255999997258186,242.00584312342107 56.04800000041723,244.006811295636 58.92799999937415,243.33982197428122" stroke="#4dd2ff" stroke-linecap="round" stroke-linejoin="round" stroke-width="0.5"><title>2023-07-11 1.4km</title></polyline><polyline fill="none" points="180.68852458894253,240.9342749081552 181.2786885239184,242.3010560995899 184.2295081987977,240.2508842102252 185.40983606502414,237.51732071163133 185.40983606502414,233.41697338037193 180.68852458894253,219.065737972036 157.67213114723563,218.3823450463824 144.68852458894253,215.64877263642848 119.31147540733218,217.015558980871 115.18032786995173,219.065737972036 114.0,222.4827015711926 115.7704918012023,234.10036477586254 118.13114754110575,238.20071169128641 121.08196721225977,240.2508842102252 148.2295081987977,242.984446589835 155.31147541105747,242.3010560995899 167.7049180343747,244.35122736310586 175.37704918161035,244.35122736310586 183.04918032884598,242.3010560995899 184.81967213004827,239.56749343918636 184.81967213004827,236.15053854789585 182.4590163975954,225.21627119462937 180.09836065769196,220.43252362217754 178.32786885276437,219.74913083203137 167.7049180343747,219.74913083203137 156.4918032772839,217.6989520471543 140.55737704783678,221.11591634061188 134.06557376682758,219.74913083203137 124.03278688341379,220.43252362217754 115.7704918012023,222.4827015711926 114.0,225.899663425982 116.36065573617816,232.0501903789118 119.90163934603333,237.51732071163133 122.85245901718736,240.2508842102252 126.39344262331724,241.61766553809866 133.475409835577,240.9342749081552 140.55737704783678,238.20071169128641 151.7704918049276,236.15053854789585 160.03278688713908,238.20071169128641 168.88524590060115,236.83392966538668 180.68852458894253,238.88410260062665 184.2295081987977,236.83392966538668 184.81967213004827,234.10036477586254 183.04918032884598,224.53287889249623 182.4590163975954,223.166094081942 179.5081967189908,221.11591634061188 168.88524590060115,223.166094081942 157.08196721598506,221.79930899105966 153.54098360612988,219.74913083203137 141.14754098653793,222.4827015711926 134.06557376682758,218.3823450463824 123.44262294843793,217.6989520471543 119.90163934603333,219.065737972036 117.54098360612988,220.43252362217754 116.36065573617816,225.21627119462937 116.95081967115402,232.0501903789118 119.31147540733218,238.88410260062665 126.39344262331724,243.6678370120935 131.7049180343747,242.3010560995899 138.19672131165862,234.78375610383227 142.32786885276437,233.41697338037193 181.86885245889425,240.2508842102252 184.2295081987977,238.20071169128641 185.40983606502414,235.46714736148715 182.4590163975954,225.21627119462937 180.68852458894253,223.166094081942 173.0163934454322,220.43252362217754 167.7049180343747,222.4827015711926 161.80327868834138,221.11591634061188 156.4918032772839,223.166094081942 138.19672131165862,223.84948652004823 124.03278688341379,221.79930899105966 119.31147540733218,223.84948652004823 118.72131147235632,228.63323165709153 120.4918032772839,238.88410260062665 123.44262294843793,240.2508842102252 133.475409835577,238.88410260062665 143.5081967227161,240.2508842102252 157.67213114723563,236.83392966538668 168.2950819656253,237.51732071163133 178.32786885276437,239.56749343918636 183.63934426382184,238.88410260062665 186.0,236.15053854789585 185.40983606502414,230.6834070989862 181.2786885239184,224.53287889249623 176.55737704783678,221.79930899105966 163.57377049326897,223.166094081942 160.03278688713908,221.11591634061188 148.81967213004827,219.065737972036 145.2786885239184,219.74913083203137 140.55737704783678,222.4827015711926 132.2950819656253,219.74913083203137 124.62295081838965,219.065737972036" stroke="#4dd2ff" stroke-linecap="round" stroke-linejoin="round" stroke-width="0.5"><title>2023-07-10 1.3km</title></polyline></svg>