<?xml version="1.0" encoding="utf-8" ?>
<svg baseProfile="full" height="300mm" version="1.1" viewBox="0,0,200,300" width="200mm" xmlns="http://www.w3.org/2000/svg" xmlns:ev="http://www.w3.org/2001/xml-events" xmlns:xlink="http://www.w3.org/1999/xlink"><defs /><rect fill="#222222" height="300" width="200" x="0" y="0" /><text fill="#FFFFFF" style="font-size:12px; font-family:Arial; font-weight:bold;" x="10" y="20">Over 1km Runs</text><text fill="#FFFFFF" style="font-size:4px; font-family:Arial" x="10" y="280">ATHLETE</text><text fill="#FFFFFF" style="font-size:9px; font-family:Arial" x="10" y="290">Andy Chen</text><text fill="#FFFFFF" style="font-size:4px; font-family:Arial" x="120" y="280">STATISTICS</text><text fill="#FFFFFF" style="font-size:3px; font-family:Arial" x="120" y="285">Number: 8</text><text fill="#FFFFFF" style="font-size:3px; font-family:Arial" x="120" y="290">Weekly: 2.7</text><text fill="#FFFFFF" style="font-size:3px; font-family:Arial" x="141" y="285">Total: 11.3 km</text><text fill="#FFFFFF" style="font-size:3px; font-family:Arial" x="141" y="290">Avg: 1.4 km</text><text fill="#FFFFFF" style="font-size:3px; font-family:Arial" x="167" y="285">Min: 1.0 km</text><text fill="#FFFFFF" style="font-size:3px; font-family:Arial" x="167" y="290">Max: 1.9 km</text><polyline fill="none" points="66.578125,60.73280109744519 65.73437499813735,57.80168865527958 63.203125,56.8246507756412 52.234375,55.35909358225763 46.749999998137355,53.40501662995666 39.578124998137355,52.42797785392031 32.406249998137355,47.05426103249192 25.65625,45.588700853288174 21.859375,45.1001806948334 20.593749998137355,46.07722096238285 15.109375,51.939458393491805 13.843749998137355,56.33613176178187 13.0,59.75576381571591 14.265624998137355,63.175393430516124 17.640624998137355,70.50316296331584 19.75,72.45723294606432 38.734375,74.89981930470094 52.65625,72.94575031800196 60.25,73.43426763918251 66.578125,70.99168053269386 67.0,69.52612767228857 66.15624999813735,62.19835664657876 64.046875,59.2672450998798 60.671875,57.80168865527958 55.609375,57.3131697406061 51.390624998137355,57.80168865527958 44.640625,57.3131697406061 39.156249998137355,58.2902075201273 33.671875,56.8246507756412 18.484375,55.84761269716546 15.531249998137355,56.33613176178187 14.265624998137355,57.80168865527958 13.421874998137355,60.73280109744519 16.374999998137355,68.5490921814926 19.328124998137355,70.99168053269386 23.546875,71.9687155247666 26.078125,71.48019805317745 40.0,71.9687155247666 47.593749998137355,73.92278491146863 56.875,74.41130213346332 64.89062499813735,72.45723294606432 66.15624999813735,71.48019805317745 66.578125,69.52612767228857 67.0,65.1294664000161 66.15624999813735,59.2672450998798 65.3125,58.2902075201273 61.093749998137355,56.8246507756412 51.812499998137355,56.33613176178187 45.484375,56.8246507756412 35.78125,59.75576381571591 30.296875,57.3131697406061 20.593749998137355,56.33613176178187 15.953125,57.80168865527958 13.843749998137355,59.75576381571591 14.265624998137355,62.68687506299466 15.953125,68.06057436298579 21.015624998137355,72.94575031800196 40.421875,73.43426763918251 55.187499998137355,74.41130213346332 62.359374998137355,73.43426763918251 65.3125,70.99168053269386 66.15624999813735,67.08353857556358 65.73437499813735,60.2442824812606 65.3125,58.778726333752275 58.140625,56.8246507756412 53.078125,57.3131697406061 48.015625,56.8246507756412 37.046874998137355,58.778726333752275 30.718749998137355,57.80168865527958" stroke="#4dd2ff" stroke-linecap="round" stroke-linejoin="round" stroke-width="0.5"><title>2023-07-26 1.0km</title></polyline><polyline fill="none" points="168.3233082704246,67.52245746273547 176.44360901974142,69.87321822484955 184.15789473615587,67.99260970996693 186.1879699230194,66.11200042907149 187.0,63.2910850699991 186.1879699230194,58.119402434211224 184.15789473615587,55.29848218895495 182.53383458591998,53.88802141929045 166.29323308356106,48.24617402860895 161.8270676676184,48.24617402860895 147.61654135212302,51.06709858588874 141.12030075117946,49.656636523548514 137.87218045070767,50.12679059058428 134.2180451117456,53.41786773269996 133.40601503662765,56.23878912720829 136.65413533896208,64.70154296560213 138.68421052582562,67.52245746273547 141.52631578966975,68.93291406333447 144.77443609014153,68.93291406333447 148.83458646573126,65.64184798812494 154.11278195492923,64.23139038262889 164.66917293146253,67.52245746273547 178.8796992469579,68.93291406333447 183.34586465917528,67.52245746273547 184.15789473615587,65.17169550154358 184.56390977464616,61.41047387337312 181.72180451080203,53.88802141929045 178.8796992469579,53.41786773269996 170.3533834591508,53.41786773269996 163.04511278122663,52.0074063888751 156.95488721691072,53.41786773269996 146.80451127700508,53.88802141929045 138.27819548919797,52.477560218889266 133.8120300732553,53.88802141929045 133.40601503662765,56.23878912720829 137.06015037372708,65.64184798812494 139.90225563943386,67.99260970996693 147.21052631549537,70.34337023319677 149.6466165408492,70.34337023319677 153.70676691643894,69.4030661676079 158.57894736900926,70.34337023319677 162.63909774459898,69.87321822484955 171.5714285708964,71.75382597139105 174.81954887136817,70.34337023319677 178.06766917183995,69.87321822484955 181.72180451080203,67.99260970996693 184.15789473615587,64.70154296560213 184.56390977464616,59.05970879783854 182.12781954929233,53.88802141929045 180.0977443587035,53.41786773269996 168.72932330705225,52.477560218889266 157.36090225540102,53.41786773269996 151.6766917295754,50.59694461384788 143.5563909765333,48.24617402860895 140.3082706760615,48.716328241396695 135.8421052619815,50.59694461384788 133.8120300732553,52.947713998146355 133.40601503662765,54.35817505652085 135.43609022535384,60.47016798751429 136.65413533896208,63.2910850699991 139.90225563943386,67.0523051652126 143.9624060150236,69.4030661676079 146.80451127700508,66.58215282158926 157.36090225540102,65.17169550154358 171.1654135324061,68.93291406333447 175.63157894648612,67.52245746273547 180.90977443568408,67.99260970996693 183.34586465917528,66.58215282158926 183.75187969766557,65.17169550154358 182.93984962441027,59.05970879783854 181.72180451080203,56.23878912720829 179.69172932207584,54.35817505652085 178.06766917183995,54.82832864718512 163.45112781971693,52.477560218889266 160.6090225558728,52.477560218889266 156.14285714179277,54.35817505652085 153.3007518798113,54.35817505652085 150.45864661596715,52.477560218889266 141.9323308262974,51.06709858588874 137.87218045070767,51.5372525122948 135.03007518686354,52.477560218889266 133.40601503662765,56.23878912720829 134.2180451117456,59.05970879783854 139.49624060094357,66.58215282158926 142.744360903278,68.93291406333447 144.77443609014153,68.93291406333447 156.95488721691072,67.52245746273547 162.2330827061087,67.52245746273547 173.60150375962257,70.34337023319677 181.72180451080203,69.4030661676079 184.56390977464616,67.0523051652126 185.3759398497641,62.82093234313652 185.3759398497641,58.119402434211224 184.56390977464616,55.29848218895495 182.53383458591998,53.88802141929045 177.6616541352123,52.477560218889266 167.105263158679,51.06709858588874 164.26315789483488,51.06709858588874 158.17293232865632,52.477560218889266 144.77443609014153,51.5372525122948 137.46616541221738,52.477560218889266 134.2180451117456,53.41786773269996 133.8120300732553,55.76863568322733 135.03007518686354,59.529861909803 137.87218045070767,64.70154296560213 139.49624060094357,66.58215282158926 148.4285714291036,67.52245746273547 156.95488721691072,67.52245746273547 172.78947368077934,69.87321822484955 182.53383458591998,69.4030661676079 184.56390977464616,67.52245746273547 185.3759398497641,66.11200042907149 185.7819548845291,62.35077956691384 184.56390977464616,55.29848218895495 184.15789473615587,53.88802141929045 182.93984962441027,52.947713998146355 175.22556390985847,51.5372525122948 160.6090225558728,51.5372525122948 154.92481203004718,52.477560218889266 149.6466165408492,50.59694461384788 142.3383458647877,50.59694461384788 135.43609022535384,52.0074063888751 133.8120300732553,52.477560218889266 133.0,54.82832864718512 133.8120300732553,58.119402434211224 135.8421052619815,62.82093234313652 139.09022556431592,66.58215282158926 142.744360903278,67.99260970996693 152.48872180469334,69.4030661676079 158.98496240749955,68.46276191016659 173.19548872113228,70.81352219451219 180.90977443568408,69.4030661676079 184.15789473615587,67.52245746273547 185.3759398497641,65.64184798812494 185.7819548845291,63.76123775029555" stroke="#4dd2ff" stroke-linecap="round" stroke-linejoin="round" stroke-width="0.5"><title>2023-07-25 1.9km</title></polyline><polyline fill="none" points="65.37593984976411,129.6381397759542 66.5939849615097,127.75753087783232 67.0,125.40676867822185 65.78195488639176,117.88432158948854 64.96992481313646,115.53355435933918 63.34586466103792,114.59324713144451 55.63157894834876,114.12309344485402 43.85714285634458,110.36186223570257 38.17293233051896,109.89170811930671 31.676691729575396,112.24247822444886 21.120300751179457,111.30217032553628 14.218045111745596,114.59324713144451 13.0,117.88432158948854 13.812030075117946,121.17539369966835 16.248120300471783,125.87692121369764 18.278195487335324,128.2276831753552 26.80451127886772,130.10829188022763 31.676691729575396,129.6381397759542 40.6090225558728,128.2276831753552 61.31578947417438,130.10829188022763 65.37593984976411,128.2276831753552 66.1879699267447,127.28737853420898 65.78195488639176,123.99631078215316 64.56390977464616,116.94401483982801 60.503759399056435,115.06340076867491 49.947368420660496,112.7126321005635 17.466165414080024,115.06340076867491 14.624060148373246,116.00370790110901 13.812030075117946,117.88432158948854 18.68421052582562,127.28737853420898 21.120300751179457,128.2276831753552 23.55639097839594,128.69783542258665 38.57894736714661,125.87692121369764 45.07518796995282,128.2276831753552 54.007518796250224,129.6381397759542 62.12781954742968,129.1679876227863 64.56390977464616,128.69783542258665 65.37593984976411,127.28737853420898 66.1879699267447,123.99631078215316 65.78195488639176,118.3544748914428 63.75187969952822,116.00370790110901 60.503759399056435,115.06340076867491 43.85714285634458,113.65293971030042 30.052631579339504,114.59324713144451 19.496240600943565,113.65293971030042 14.624060148373246,114.59324713144451 13.812030075117946,116.00370790110901 13.40601503662765,120.23508762195706 16.654135337099433,125.40676867822185 19.496240600943565,128.2276831753552 25.992481203749776,129.6381397759542 32.082706766203046,127.28737853420898 56.84962406009436,128.2276831753552 63.75187969952822,127.28737853420898 64.96992481313646,126.34707370074466 65.78195488639176,121.64554666634649 64.96992481313646,115.06340076867491 64.15789473615587,114.12309344485402 54.81954887136817,112.24247822444886 49.13533834554255,111.7723242980428 34.11278195492923,113.65293971030042 17.466165414080024,114.12309344485402 14.218045111745596,115.53355435933918 13.812030075117946,117.88432158948854 18.278195487335324,126.34707370074466 22.744360901415348,129.1679876227863 37.36090225726366,125.87692121369764 41.01503759436309,126.34707370074466 44.263157894834876,128.69783542258665 46.69924812018871,129.1679876227863 58.0676691737026,128.2276831753552 62.53383458778262,128.69783542258665 65.78195488639176,127.28737853420898 66.1879699267447,123.99631078215316 64.96992481313646,118.82462814636528 62.93984962627292,117.88432158948854 54.81954887136817,118.3544748914428 48.323308270424604,116.47386139538139 44.66917293332517,116.47386139538139 19.090225564315915,114.12309344485402 15.030075186863542,115.06340076867491 13.812030075117946,116.00370790110901 13.812030075117946,117.88432158948854 15.030075186863542,121.17539369966835 18.278195487335324,127.28737853420898 22.338345864787698,129.6381397759542 25.58646616525948,130.10829188022763 28.834586465731263,129.1679876227863 34.11278195492923,124.93661609524861 38.17293233051896,123.99631078215316 45.48120300658047,124.93661609524861 48.7293233089149,125.87692121369764 63.34586466103792,128.2276831753552 66.5939849615097,127.28737853420898 67.0,124.93661609524861 64.15789473615587,118.82462814636528 58.0676691737026,115.53355435933918 47.10526315867901,114.12309344485402 33.70676691830158,114.12309344485402 20.30827067606151,112.7126321005635 14.624060148373246,114.59324713144451 13.812030075117946,115.53355435933918 13.40601503662765,118.3544748914428 16.248120300471783,124.46646346291527" stroke="#4dd2ff" stroke-linecap="round" stroke-linejoin="round" stroke-width="0.5"><title>2023-07-24 1.8km</title></polyline><polyline fill="none" points="172.82400706410408,138.90004209801555 177.0986760854721,138.90004209801555 179.4303137343377,138.0000458578579 180.98473883233964,136.65005115559325 184.4821953047067,130.35007041646168 183.31637647934258,126.75007738685235 178.65310118347406,120.45008252328262 178.26449491083622,118.65008233953267 179.81892000697553,111.90007511759177 182.53916393220425,104.70005604019389 182.92777020670474,101.10004209820181 180.59613255783916,97.05002290848643 175.54425098747015,93.0 173.6012196149677,93.0 169.32655059359968,94.35000804951414 159.22278745286167,93.45000272989273 154.55951215699315,94.35000804951414 148.73041803762317,100.65004015015438 141.73550509475172,104.25005445862189 137.84944234602153,107.85006583062932 136.29501724801958,111.00007337424904 136.29501724801958,115.95008068857715 138.62665489688516,121.8000821787864 138.23804862238467,128.10007511638105 139.015261169523,131.70006704563275 142.12411136738956,134.4000590648502 146.3987803887576,137.10004943516105 150.28484313562512,138.0000458578579 153.39369333162904,136.65005115559325 154.94811843149364,143.40002054348588 156.8911498039961,143.8500181371346 165.05188157223165,142.950022906065 171.6581882406026,139.80003815423697 175.54425098747015,139.35004014987499 179.4303137343377,137.55004767002538 182.1505576558411,133.5000619092025 183.31637647934258,129.45007243333384 182.53916393220425,126.75007738685235 178.65310118347406,123.60008107870817 177.87588863633573,120.0000825454481 178.65310118347406,113.70007805200294 181.76195138320327,106.50006191013381 182.1505576558411,102.0000458592549 180.20752628333867,97.95002749375999 175.54425098747015,94.80001063970849 172.43540079146624,94.35000804951414 163.10885019786656,95.25001318473369 158.44557490199804,93.90000541321933 155.33672470413148,94.35000804951414 152.22787450812757,95.70001568458974 146.3987803887576,102.90004943637177 140.95829254202545,104.70005604019389 137.07222979702055,109.20006933948025 135.51780469715595,112.35007592011243 135.9064109735191,116.40008107945323 137.84944234602153,121.8000821787864 136.68362352252007,126.75007738685235 136.68362352252007,128.10007511638105 138.23804862238467,130.8000693381764 147.95320548675954,137.10004943516105 149.50763058662415,137.55004767002538 154.17090588063002,137.55004767002538 154.94811843149364,142.50002522254363 156.8911498039961,145.65000804839656 167.38351921923459,143.40002054348588 169.32655059359968,142.50002522254363 171.6581882406026,139.80003815423697 178.26449491083622,138.90004209801555 179.81892000697553,138.0000458578579 182.1505576558411,134.85005757538602 183.31637647934258,131.25006821425632 182.92777020670474,129.00007337378338 179.4303137343377,124.50008025299758 178.65310118347406,122.70008172048256 178.65310118347406,118.20008218009025 182.1505576558411,106.95006326260045 182.1505576558411,104.25005445862189 179.4303137343377,98.85003189509735 177.87588863633573,96.60002054553479 174.37843216396868,95.25001318473369 166.99491294659674,95.25001318473369 161.9430313743651,94.35000804951414 155.33672470413148,95.25001318473369 152.22787450812757,97.05002290848643 151.0620556846261,99.75003611436114 149.11902431212366,101.55004400247708 140.5696862693876,104.70005604019389 138.23804862238467,108.30006704619154 136.29501724801958,113.25007738638669 136.29501724801958,115.05007977224886 138.23804862238467,122.25008197221905 138.23804862238467,124.50008025299758 137.07222979702055,129.00007337378338 138.62665489688516,131.25006821425632 146.78738666325808,135.30005603842437 152.6164807844907,136.20005282992497 153.39369333162904,137.55004767002538 154.55951215699315,142.950022906065 155.72533098049462,144.75001318426803 157.27975607849658,144.75001318426803 166.6063066702336,143.8500181371346 168.9379443190992,142.50002522254363 171.6581882406026,139.35004014987499 177.4872823599726,138.4500440005213 182.1505576558411,135.7500544572249 183.31637647934258,128.55007426813245 181.37334510684013,125.40007924288511 178.65310118347406,123.15008142171428 177.87588863633573,120.0000825454481 178.65310118347406,113.70007805200294 181.37334510684013,105.15005757566541 181.37334510684013,101.55004400247708 180.59613255783916,99.75003611436114 177.4872823599726,96.15001813741401 175.54425098747015,94.80001063970849 169.32655059359968,95.25001318473369 154.17090588063002,94.35000804951414 151.0620556846261,96.60002054553479 146.78738666325808,102.45004767132923 141.73550509475172,104.70005604019389 137.84944234602153,108.30006704619154 135.51780469715595,112.35007592011243 135.51780469715595,117.30008172011003 137.84944234602153,123.15008142171428 137.84944234602153,129.00007337378338 139.015261169523,131.25006821425632 140.95829254202545,133.05006326269358 147.95320548675954,136.65005115559325 149.50763058662415,137.10004943516105 152.22787450812757,136.20005282992497 153.39369333162904,136.65005115559325 154.94811843149364,144.75001318426803 156.5025435294956,147.0 158.83418117649853,145.65000804839656" stroke="#4dd2ff" stroke-linecap="round" stroke-linejoin="round" stroke-width="0.5"><title>2023-07-23 1.6km</title></polyline><polyline fill="none" points="62.57377049326897,190.76343261264265 66.55737704969943,188.71325915679336 64.78688524663448,185.12545359507203 64.34426229447126,178.46237933449447 63.459016393870115,176.92474555782974 60.36065573617816,176.41220086393878 58.59016393497586,175.3871113145724 52.3934426214546,173.3369315895252 46.63934426382184,168.7240241523832 36.90163934417069,169.2365696313791 29.819672130048275,173.3369315895252 15.213114753365517,176.92474555782974 13.442622950300574,178.46237933449447 13.442622950300574,183.07527784071863 14.770491801202297,187.68817211454734 16.540983606129885,190.25088932784274 20.08196721225977,191.2759758476168 26.278688522055745,190.25088932784274 34.68852458894253,187.68817211454734 44.42622950859368,188.20071566058323 60.36065573617816,187.68817211454734 63.901639346033335,186.15054115932435 65.22950819507241,181.5376454750076 63.459016393870115,179.48746825708076 61.68852458894253,178.97492382256314 52.83606557175517,178.46237933449447 44.42622950859368,175.89965611463413 31.147540982812643,174.36202155658975 24.06557376869023,177.94983479566872 13.885245900601149,181.5376454750076 13.0,183.07527784071863 13.442622950300574,185.12545359507203 15.655737705528736,189.2258025999181 17.42622950859368,191.2759758476168 19.63934426382184,191.2759758476168 26.721311474218965,188.71325915679336 41.77049180306494,188.71325915679336 48.85245901718736,186.6630848632194 61.68852458894253,187.17562851402909 66.55737704969943,185.63799740280956 65.67213114723563,180.00001264037564 64.78688524663448,177.94983479566872 58.14754098281264,173.8494765968062 53.27868852391839,172.82438652822748 48.85245901718736,170.26166043477133 40.885245902463794,171.28675102815032 17.868852458894253,178.97492382256314 15.655737705528736,182.5627337708138 16.09836065582931,187.68817211454734 16.983606558293104,188.71325915679336 18.7540983594954,188.71325915679336 25.836065573617816,185.63799740280956 34.24590163864195,183.58782185567543 38.67213114909828,184.1003658217378 46.19672131165862,183.07527784071863 60.36065573617816,184.61290973424911 63.459016393870115,183.07527784071863 62.13114754110575,180.51255696918815 58.14754098281264,180.00001264037564 56.819672130048275,177.43729020282626 44.42622950859368,175.89965611463413 33.80327868834138,181.5376454750076 16.540983606129885,182.5627337708138 14.770491801202297,184.61290973424911 15.213114753365517,188.20071566058323 16.540983606129885,189.73834598995745 18.7540983594954,190.25088932784274 23.18032786808908,189.73834598995745 28.934426229447126,186.15054115932435 32.03278688527644,185.63799740280956 56.819672130048275,185.63799740280956 63.901639346033335,186.15054115932435 67.0,184.61290973424911 65.22950819507241,183.58782185567543" stroke="#4dd2ff" stroke-linecap="round" stroke-linejoin="round" stroke-width="0.5"><title>2023-07-22 1.1km</title></polyline><polyline fill="none" points="183.11199999973178,171.9961229255423 181.81599999964237,170.99563582940027 167.5599999986589,170.4953922079876 159.35199999809265,168.99466103035957 147.25599999912083,168.99466103035957 136.45600000023842,172.49636639514938 135.160000000149,174.49733976693824 134.72799999825656,175.9980692616664 135.5920000001788,180.50025499146432 138.61599999852479,188.00388869876042 140.77600000053644,189.5046140635386 149.41599999926984,191.00533896917477 151.57599999941885,190.5050973854959 153.73599999956787,187.5036468077451 155.89599999971688,186.50316287577152 164.96800000034273,187.00340486690402 174.47199999913573,188.50413053762168 181.81599999964237,187.00340486690402 185.2719999998808,185.50267873751 186.5679999999702,183.0014675022103 186.5679999999702,181.00049759447575 185.2719999998808,177.99904120713472 177.06399999931455,173.49685318395495 171.87999999895692,174.49733976693824 168.42400000058115,173.49685318395495 155.89599999971688,178.9995268736966 142.503999998793,176.99855533754453 139.48000000044703,177.49879829632118 139.48000000044703,180.00001233629882 140.34400000050664,184.00195214897394 141.6399999987334,187.5036468077451 143.3679999988526,188.00388869876042 152.0080000013113,188.00388869876042 158.4879999998957,186.00292083108798 165.40000000037253,186.50316287577152 172.31199999898672,188.00388869876042 177.49599999934435,187.5036468077451 183.11199999973178,187.5036468077451 186.13600000180304,186.50316287577152 186.5679999999702,184.50219439482316 187.0,180.50025499146432 185.7039999999106,173.99709650175646 183.54399999976158,173.49685318395495 173.17599999904633,175.4978261482902 164.96800000034273,172.49636639514938 135.160000000149,172.49636639514938 133.8640000000596,173.49685318395495 133.0,174.99758298322558 133.4320000000298,177.49879829632118 136.02399999834597,183.0014675022103 141.6399999987334,190.00485575012863 143.3679999988526,189.5046140635386 148.9840000011027,186.50316287577152 152.0080000013113,187.00340486690402 155.89599999971688,186.50316287577152 160.2160000000149,188.00388869876042 164.10399999842048,187.00340486690402 171.87999999895692,188.00388869876042 183.97599999979138,186.00292083108798 185.7039999999106,185.00243659177795 185.7039999999106,178.9995268736966 183.97599999979138,174.49733976693824 182.24800000153482,173.99709650175646 178.3600000012666,174.49733976693824 171.44800000078976,173.49685318395495 163.23999999836087,176.99855533754453 163.23999999836087,177.99904120713472 161.94399999827147,178.4992840657942 150.2800000011921,175.4978261482902 142.503999998793,175.4978261482902 141.2079999987036,175.9980692616664 140.34400000050664,177.99904120713472 140.77600000053644,186.50316287577152 142.0719999987632,188.00388869876042 148.55199999921024,189.5046140635386 153.30399999953806,187.5036468077451 159.35199999809265,187.5036468077451 164.53600000031292,187.5036468077451 171.44800000078976,189.00437232665718 174.47199999913573,188.50413053762168 184.84000000171363,184.50219439482316 185.7039999999106,183.0014675022103 185.7039999999106,178.9995268736966 183.97599999979138,174.99758298322558 181.81599999964237,173.99709650175646 168.42400000058115,175.4978261482902 159.35199999809265,174.99758298322558 153.73599999956787,173.49685318395495 143.3679999988526,173.49685318395495" stroke="#4dd2ff" stroke-linecap="round" stroke-linejoin="round" stroke-width="0.5"><title>2023-07-12 1.2km</title></polyline><polyline fill="none" points="51.880000000819564,251.0053504128009 56.20000000111759,251.50559230381623 63.54399999976158,250.50510847195983 65.7039999999106,249.0043823425658 66.5679999999702,247.00341345602646 66.1359999999404,244.00195859652013 61.81599999964237,234.49733943445608 59.22399999946356,233.49685213761404 51.015999998897314,233.49685213761404 42.37600000016391,229.99514498887584 27.687999999150634,227.49392406828701 19.47999999858439,229.4949009064585 14.72800000011921,233.49685213761404 13.432000000029802,235.9980700002052 13.432000000029802,240.00001593027264 15.592000000178814,249.0043823425658 17.320000000298023,250.50510847195983 24.23200000077486,252.50607593171299 29.415999999269843,250.50510847195983 35.03199999965727,250.00486648082733 49.28800000064075,250.50510847195983 60.08800000138581,250.00486648082733 62.247999999672174,249.50462443614379 63.54399999976158,245.50268625468016 60.95199999958277,237.99904337199405 59.22399999946356,236.49831342045218 51.44800000078976,237.99904337199405 42.808000000193715,234.99758300790563 26.824000000953674,234.99758300790563 16.02399999834597,236.99855678901076 13.432000000029802,238.4992865882814 13.432000000029802,240.50025894260034 16.455999998375773,249.50462443614379 17.75199999846518,250.50510847195983 22.07200000062585,251.0053504128009 30.71199999935925,248.00389799987897 45.831999998539686,249.50462443614379 61.81599999964237,248.50414019683376 62.68000000156462,248.00389799987897 63.11199999973178,246.5031711072661 62.247999999672174,237.49880010681227 60.95199999958277,235.4978265305981 50.58399999886751,236.99855678901076 38.919999999925494,235.4978265305981 28.12000000104308,235.9980700002052 18.61600000038743,235.4978265305981 14.296000000089407,236.49831342045218 13.0,238.4992865882814 14.72800000011921,245.00244375364855 16.02399999834597,246.5031711072661 21.2079999987036,250.50510847195983 28.98399999924004,250.00486648082733 35.463999999687076,248.50414019683376 49.28800000064075,250.50510847195983 55.768000001087785,249.0043823425658 62.68000000156462,249.50462443614379 64.83999999985099,248.50414019683376 65.27199999801815,246.00292870681733 63.11199999973178,239.4997728667222 60.08800000138581,235.9980700002052 55.33599999919534,234.99758300790563 46.69599999859929,235.9980700002052 38.919999999925494,234.49733943445608 32.87199999950826,236.99855678901076 25.528000000864267,236.99855678901076 16.02399999834597,238.999529753346 14.72800000011921,239.4997728667222 13.86399999819696,241.000501901377 14.72800000011921,246.00292870681733 17.320000000298023,250.00486648082733 19.47999999858439,250.00486648082733 25.09599999897182,247.50365575402975 28.12000000104308,247.00341345602646 31.143999999389052,245.50268625468016 34.59999999962747,245.00244375364855 44.10400000028312,248.50414019683376 53.175999999046326,250.50510847195983 64.83999999985099,251.0053504128009 66.1359999999404,250.00486648082733 67.0,248.50414019683376 67.0,246.5031711072661 63.11199999973178,237.49880010681227 61.81599999964237,235.9980700002052 58.35999999940395,234.99758300790563 49.71999999880791,236.99855678901076 39.35200000181794,235.9980700002052 37.62399999983609,236.49831342045218 35.03199999965727,238.4992865882814 16.88800000026822,238.999529753346 13.432000000029802,239.4997728667222 13.0,241.000501901377 15.592000000178814,249.0043823425658 19.047999998554587,252.0058341426775 22.503999998793006,252.0058341426775 26.824000000953674,250.00486648082733 32.440000001341105,249.0043823425658 37.19199999794364,249.0043823425658 44.536000000312924,250.50510847195983 46.69599999859929,250.00486648082733" stroke="#4dd2ff" stroke-linecap="round" stroke-linejoin="round" stroke-width="0.5"><title>2023-07-11 1.4km</title></polyline><polyline fill="none" points="183.01639344356954,248.20070618158206 183.45901639387012,249.22579207457602 185.67213115096092,247.68816315801814 186.55737705156207,245.6379905338399 186.55737705156207,242.5627300357446 183.01639344356954,231.799303479027 165.7540983632207,231.28675878513604 156.01639344356954,229.23657947778702 136.9836065582931,230.26166923576966 133.88524590432644,231.799303479027 133.0,234.36202617827803 134.32786885276437,243.0752735817805 136.09836065769196,246.15053376881406 138.31147541105747,247.68816315801814 158.67213114909828,249.73833494260907 163.98360656015575,249.22579207457602 173.27868852578104,250.76342052221298 179.03278688713908,250.76342052221298 184.78688524663448,249.22579207457602 186.11475409939885,247.1756200795062 186.11475409939885,244.61290391115472 184.34426229819655,236.41220339620486 182.57377049326897,232.824392716866 181.2459016405046,232.31184812402353 173.27868852578104,232.31184812402353 164.8688524607569,230.7742140358314 152.91803278774023,233.33693725569174 148.04918032698333,232.31184812402353 140.524590164423,232.824392716866 134.32786885276437,234.36202617827803 133.0,236.9247475694865 134.7704918049276,241.53764278441668 137.42622951045632,245.6379905338399 139.63934426382184,247.68816315801814 142.29508196935058,248.71324915392324 147.6065573785454,248.20070618158206 152.91803278774023,246.15053376881406 161.327868854627,244.61290391115472 167.52459016628563,246.15053376881406 174.16393442638218,245.12544724904 183.01639344356954,246.66307695070282 185.67213115096092,245.12544724904 186.11475409939885,243.0752735817805 184.78688524663448,235.89965916937217 184.34426229819655,234.8745705615729 182.13114754110575,233.33693725569174 174.16393442638218,234.8745705615729 165.31147541292012,233.8494817437604 162.65573770739138,232.31184812402353 153.36065573990345,234.36202617827803 148.04918032698333,231.28675878513604 140.08196721412241,230.7742140358314 137.42622951045632,231.799303479027 135.65573770552874,232.824392716866 134.7704918049276,236.41220339620486 135.21311475522816,241.53764278441668 136.9836065582931,246.66307695070282 142.29508196935058,250.25087775941938 146.27868852578104,249.22579207457602 151.1475409846753,243.58781707799062 154.2459016405046,242.5627300357446 183.90163934603333,247.68816315801814 185.67213115096092,246.15053376881406 186.55737705156207,244.10036052111536 184.34426229819655,236.41220339620486 183.01639344356954,234.8745705615729 177.26229508407414,232.824392716866 173.27868852578104,234.36202617827803 168.85245901905,233.33693725569174 164.8688524607569,234.8745705615729 151.1475409846753,235.38711489038542 140.524590164423,233.8494817437604 136.9836065582931,235.38711489038542 136.54098360612988,238.97492374293506 137.8688524607569,246.66307695070282 140.08196721412241,247.68816315801814 147.6065573785454,246.66307695070282 155.1311475429684,247.68816315801814 165.7540983632207,245.12544724904 173.7213114760816,245.6379905338399 181.2459016405046,247.1756200795062 185.2295081987977,246.66307695070282 187.0,244.61290391115472 186.55737705156207,240.51255532400683 183.45901639387012,235.89965916937217 179.91803278774023,233.8494817437604 170.18032787181437,234.8745705615729 167.52459016628563,233.33693725569174 159.11475409939885,231.799303479027 156.45901639387012,232.31184812402353 152.91803278774023,234.36202617827803 146.7213114760816,232.31184812402353 140.9672131165862,231.799303479027" stroke="#4dd2ff" stroke-linecap="round" stroke-linejoin="round" stroke-width="0.5"><title>2023-07-10 1.3km</title></polyline></svg>