<?xml version="1.0" encoding="utf-8" ?>
<svg baseProfile="full" height="300mm" version="1.1" viewBox="0,0,200,300" width="200mm" xmlns="http://www.w3.org/2000/svg" xmlns:ev="http://www.w3.org/2001/xml-events" xmlns:xlink="http://www.w3.org/1999/xlink"><defs /><rect fill="#222222" height="300" width="200" x="0" y="0" /><text fill="#FFFFFF" style="font-size:12px; font-family:Arial; font-weight:bold;" x="10" y="20">Over 1km Runs</text><text fill="#FFFFFF" style="font-size:4px; font-family:Arial" x="10" y="280">ATHLETE</text><text fill="#FFFFFF" style="font-size:9px; font-family:Arial" x="10" y="290">Andy Chen</text><text fill="#FFFFFF" style="font-size:4px; font-family:Arial" x="120" y="280">STATISTICS</text><text fill="#FFFFFF" style="font-size:3px; font-family:Arial" x="120" y="285">Number: 3</text><text fill="#FFFFFF" style="font-size:3px; font-family:Arial" x="120" y="290">Weekly: 3.0</text><text fill="#FFFFFF" style="font-size:3px; font-family:Arial" x="141" y="285">Total: 3.9 km</text><text fill="#FFFFFF" style="font-size:3px; font-family:Arial" x="141" y="290">Avg: 1.3 km</text><text fill="#FFFFFF" style="font-size:3px; font-family:Arial" x="167" y="285">Min: 1.2 km</text><text fill="#FFFFFF" style="font-size:3px; font-family:Arial" x="167" y="290">Max: 1.4 km</text><polyline fill="none" points="89.66799999773502,62.99418438831344 87.72399999946356,61.49345374433324 66.3399999961257,60.74308831244707 54.02799999713898,58.49199154600501 35.88399999588728,58.49199154600501 19.683999996632338,63.74454959342256 17.739999998360872,66.74600965064019 17.091999996453524,68.99710389319807 18.38800000026822,75.75038248766214 22.92399999499321,87.00583304837346 26.163999997079372,89.25692109577358 39.12399999424815,91.50800845399499 42.363999996334314,90.75764607870951 45.60399999842048,86.25547021208331 48.84399999678135,84.75474431412295 62.45199999958277,85.50510730082169 76.70799999684095,87.75619580689818 87.72399999946356,85.50510730082169 92.9079999960959,83.25401810649782 94.85199999809265,79.50220125401393 94.85199999809265,76.50074639217928 92.9079999960959,71.99856181116775 80.59599999710917,65.24527977639809 72.81999999657273,66.74600965064019 67.6359999962151,65.24527977639809 48.84399999678135,73.49929031124339 28.755999997258186,70.49783300654963 24.219999998807907,71.2481974447146 24.219999998807907,75.00001850537956 25.515999998897314,81.00292822346091 27.45999999716878,86.25547021208331 30.051999997347593,87.00583304837346 43.01199999824166,87.00583304837346 52.73199999704957,84.00438124733046 63.099999997764826,84.75474431412295 73.46799999475479,87.00583304837346 81.24399999901652,86.25547021208331 89.66799999773502,86.25547021208331 94.2039999999106,84.75474431412295 94.85199999809265,81.75329159293324 95.5,75.75038248766214 93.55599999800324,65.99564475333318 90.31599999591708,65.24527977639809 74.76399999856949,68.24673922313377 62.45199999958277,63.74454959342256 17.739999998360872,63.74454959342256 15.795999996364117,65.24527977639809 14.5,67.49637447530404 15.147999998182058,71.2481974447146 19.03599999472499,79.50220125401393 27.45999999716878,90.0072836256586 30.051999997347593,89.25692109577358 38.475999999791384,84.75474431412295 43.01199999824166,85.50510730082169 48.84399999678135,84.75474431412295 55.323999997228384,87.00583304837346 61.15599999576807,85.50510730082169 72.81999999657273,87.00583304837346 90.96399999782443,84.00438124733046 93.55599999800324,82.50365488836542 93.55599999800324,73.49929031124339 90.96399999782443,66.74600965064019 88.37199999764562,65.99564475333318 82.53999999910593,66.74600965064019 72.17199999839067,65.24527977639809 59.85999999567866,70.49783300654963 59.85999999567866,71.99856181116775 57.9159999974072,72.74892609892413 40.41999999806285,68.24673922313377 28.755999997258186,68.24673922313377 26.81199999898672,68.99710389319807 25.515999998897314,71.99856181116775 26.163999997079372,84.75474431412295 28.107999995350838,87.00583304837346 37.827999997884035,89.25692109577358 44.95599999651313,86.25547021208331 54.02799999713898,86.25547021208331 61.80399999767542,86.25547021208331 72.17199999839067,88.50655849045143 76.70799999684095,87.75619580689818 92.26000000163913,81.75329159293324 93.55599999800324,79.50220125401393 93.55599999800324,73.49929031124339 90.96399999782443,67.49637447530404 87.72399999946356,65.99564475333318 67.6359999962151,68.24673922313377 54.02799999713898,67.49637447530404 45.60399999842048,65.24527977639809 30.051999997347593,65.24527977639809" stroke="#4dd2ff" stroke-linecap="round" stroke-linejoin="round" stroke-width="0.5"><title>2023-07-12 1.2km</title></polyline><polyline fill="none" points="162.82000000029802,91.50802561920136 169.30000000074506,92.25838845549151 180.31599999964237,90.75766270793974 183.55599999800324,88.50657351361588 184.85199999809265,85.50512018380687 184.2039999999106,81.00293789478019 177.72399999946356,66.74600915145129 173.83599999919534,65.2452782066539 161.52400000020862,65.2452782066539 148.56399999931455,59.992717483080924 126.53199999779463,56.24088610243052 114.2199999988079,59.242351359687746 107.09200000017881,65.2452782066539 105.14800000190735,68.99710500054061 105.14800000190735,75.0000238949433 108.38800000026822,88.50657351361588 110.98000000044703,90.75766270793974 121.34800000116229,93.75911389756948 129.12399999797344,90.75766270793974 137.54800000041723,90.007299721241 158.9320000000298,90.75766270793974 175.13199999928474,90.007299721241 178.3720000013709,89.25693665444851 180.31599999964237,83.25402938202024 176.42799999937415,71.99856505775824 173.83599999919534,69.74747013067827 162.17200000211596,71.99856505775824 149.2120000012219,67.49637451162562 125.23600000143051,67.49637451162562 109.03599999472499,70.49783518351614 105.14800000190735,72.74892988242209 105.14800000190735,75.75038841366768 109.68399999663234,89.25693665444851 111.6279999986291,90.75766270793974 118.10800000280142,91.50802561920136 131.0679999999702,87.00584700005129 153.74799999967217,89.25693665444851 177.72399999946356,87.75621029548347 179.02000000327826,87.00584700005129 179.66799999773502,84.75475666113198 178.3720000013709,71.24820016045123 176.42799999937415,68.2467397954315 160.87599999830127,70.49783518351614 143.37999999895692,68.2467397954315 127.17999999970198,68.99710500054061 112.9239999987185,68.2467397954315 106.44399999827147,69.74747013067827 104.5,72.74892988242209 107.09200000017881,82.50366563024 109.03599999472499,84.75475666113198 116.81199999898672,90.75766270793974 128.47599999979138,90.007299721241 138.1959999985993,87.75621029548347 158.9320000000298,90.75766270793974 168.652000002563,88.50657351361588 179.02000000327826,89.25693665444851 182.26000000163913,87.75621029548347 182.9079999960959,84.004393060226 179.66799999773502,74.24965930031613 175.13199999928474,68.99710500054061 168.00400000065565,67.49637451162562 155.04399999976158,68.99710500054061 143.37999999895692,66.74600915145129 134.30799999833107,70.49783518351614 123.29199999943376,70.49783518351614 109.03599999472499,73.49929463025182 107.09200000017881,74.24965930031613 105.79599999636412,76.50075285183266 107.09200000017881,84.004393060226 110.98000000044703,90.007299721241 114.2199999988079,90.007299721241 122.64399999752641,86.25548363057896 127.17999999970198,85.50512018380687 131.71599999815226,83.25402938202024 136.89999999850988,82.50366563024 151.15599999949336,87.75621029548347 164.7639999985695,90.75766270793974 182.26000000163913,91.50802561920136 184.2039999999106,90.007299721241 185.5,87.75621029548347 185.5,84.75475666113198 179.66799999773502,71.24820016045123 177.72399999946356,68.99710500054061 172.53999999910593,67.49637451162562 159.57999999821186,70.49783518351614 144.02800000086427,68.99710500054061 141.43600000068545,69.74747013067827 137.54800000041723,72.74892988242209 110.33199999853969,73.49929463025182 105.14800000190735,74.24965930031613 104.5,76.50075285183266 108.38800000026822,88.50657351361588 113.57200000062585,93.00875121401623 118.75599999725819,93.00875121401623 125.23600000143051,90.007299721241 133.660000000149,88.50657351361588 140.7879999987781,88.50657351361588 151.8040000014007,90.75766270793974 155.04399999976158,90.007299721241" stroke="#4dd2ff" stroke-linecap="round" stroke-linejoin="round" stroke-width="0.5"><title>2023-07-11 1.4km</title></polyline><polyline fill="none" points="89.52459016442299,237.30105927260593 90.18852459266782,238.8386881123297 93.50819672644138,236.53224473726004 94.83606557920575,233.45698580145836 94.83606557920575,228.8440950536169 89.52459016442299,212.69895521877334 63.63114754483104,211.93013817770407 49.02459016442299,208.85486921668053 20.4754098393023,210.39250385435298 15.827868856489658,212.69895521877334 14.5,216.5430392678827 16.491803281009197,229.6129103731364 19.147540986537933,234.22580065298826 22.46721311658621,236.53224473726004 53.00819672271609,239.60750241437927 60.9754098393023,238.8386881123297 74.91803279146552,241.14513078378513 83.54918033257127,241.14513078378513 92.18032786995173,238.8386881123297 94.17213115096092,235.7634301194921 94.17213115096092,231.9193558669649 91.51639344915748,219.61830509454012 88.86065573990345,214.2365890755318 86.86885246261954,213.46777218626812 74.91803279146552,213.46777218626812 62.30327869206667,211.1613210537471 44.377049181610346,215.00540588377044 37.07377049326897,213.46777218626812 25.786885246634483,214.2365890755318 16.491803281009197,216.5430392678827 14.5,220.3871213546954 17.155737709254026,227.30646417709067 21.13934426382184,233.45698580145836 24.459016393870115,236.53224473726004 28.44262295216322,238.0698737311177 36.40983606874943,237.30105927260593 44.377049181610346,234.22580065298826 56.9918032810092,231.9193558669649 66.28688525035977,234.22580065298826 76.2459016405046,232.68817087402567 89.52459016442299,234.99461542628706 93.50819672644138,232.68817087402567 94.17213115096092,229.6129103731364 92.18032786995173,218.84948875475675 91.51639344915748,217.31185584282503 88.19672131165862,215.00540588377044 76.2459016405046,217.31185584282503 62.9672131203115,215.7742226156406 58.983606562018394,213.46777218626812 45.040983609855175,216.5430392678827 37.07377049326897,211.93013817770407 25.122950822114944,211.1613210537471 21.13934426382184,212.69895521877334 18.483606558293104,214.2365890755318 17.155737709254026,219.61830509454012 17.819672133773565,227.30646417709067 20.4754098393023,234.99461542628706 28.44262295216322,240.37631663912907 34.41803279146552,238.8386881123297 41.7213114798069,230.38172561721876 46.36885246261954,228.8440950536169 90.85245902091265,236.53224473726004 93.50819672644138,234.22580065298826 94.83606557920575,231.1505407821387 91.51639344915748,219.61830509454012 89.52459016442299,217.31185584282503 80.89344262704253,214.2365890755318 74.91803279146552,216.5430392678827 68.27868852764368,215.00540588377044 62.30327869206667,217.31185584282503 41.7213114798069,218.08067233581096 25.786885246634483,215.7742226156406 20.4754098393023,218.08067233581096 19.811475411057472,223.46238561486825 21.80327869206667,234.99461542628706 25.122950822114944,236.53224473726004 36.40983606874943,234.99461542628706 47.69672131538391,236.53224473726004 63.63114754483104,232.68817087402567 75.58196721598506,233.45698580145836 86.86885246261954,235.7634301194921 92.84426229819655,234.99461542628706 95.5,231.9193558669649 94.83606557920575,225.76883298670873 90.18852459266782,218.84948875475675 84.87704918161035,215.7742226156406 70.27049180865288,217.31185584282503 66.28688525035977,215.00540588377044 53.67213115096092,212.69895521877334 49.68852459266782,213.46777218626812 44.377049181610346,216.5430392678827 35.08196721598506,213.46777218626812 26.450819674879313,212.69895521877334" stroke="#4dd2ff" stroke-linecap="round" stroke-linejoin="round" stroke-width="0.5"><title>2023-07-10 1.3km</title></polyline></svg>