<?xml version="1.0" encoding="utf-8" ?>
<svg baseProfile="full" height="300mm" version="1.1" viewBox="0,0,200,300" width="200mm" xmlns="http://www.w3.org/2000/svg" xmlns:ev="http://www.w3.org/2001/xml-events" xmlns:xlink="http://www.w3.org/1999/xlink"><defs /><rect fill="#222222" height="300" width="200" x="0" y="0" /><text fill="#FFFFFF" style="font-size:12px; font-family:Arial; font-weight:bold;" x="10" y="20">Over 1km Runs</text><text fill="#FFFFFF" style="font-size:4px; font-family:Arial" x="10" y="280">ATHLETE</text><text fill="#FFFFFF" style="font-size:9px; font-family:Arial" x="10" y="290">Andy Chen</text><text fill="#FFFFFF" style="font-size:4px; font-family:Arial" x="120" y="280">STATISTICS</text><text fill="#FFFFFF" style="font-size:3px; font-family:Arial" x="120" y="285">Number: 5</text><text fill="#FFFFFF" style="font-size:3px; font-family:Arial" x="120" y="290">Weekly: 2.5</text><text fill="#FFFFFF" style="font-size:3px; font-family:Arial" x="141" y="285">Total: 6.6 km</text><text fill="#FFFFFF" style="font-size:3px; font-family:Arial" x="141" y="290">Avg: 1.3 km</text><text fill="#FFFFFF" style="font-size:3px; font-family:Arial" x="167" y="285">Min: 1.1 km</text><text fill="#FFFFFF" style="font-size:3px; font-family:Arial" x="167" y="290">Max: 1.6 km</text><polyline fill="none" points="67.0986760854721,95.20005613006651 72.79823477938771,95.20005613006651 75.90708497911692,94.00006114365533 77.9796517752111,92.200068206992 82.64292707107961,83.80009388830513 81.08850197307765,79.00010318215936 74.87080157734454,70.60011003073305 74.35265988111496,68.20010978588834 76.4252266753465,59.200100156944245 80.05221857503057,49.60007471963763 80.57036027312279,44.80005613062531 77.46151007525623,39.400030544027686 70.72566798143089,34.0 68.13495948538184,34.0 62.435400791466236,35.800010732375085 48.96371660195291,34.600003639701754 42.74601620808244,35.800010732375085 34.97389071434736,44.200053533539176 25.647340124472976,49.00007261103019 20.465923126786947,53.800087773706764 18.393356328830123,58.000097832176834 18.393356328830123,64.6001075846143 21.502206526696682,72.40010957140476 20.98406482860446,80.80010015470907 22.02034822665155,85.60008939355612 26.165481820702553,89.20007875282317 31.86504051834345,92.80006591277197 37.04645751230419,94.00006114365533 41.191591108217835,92.200068206992 43.264157908037305,101.2000273913145 45.85486640408635,101.80002418253571 56.73584209382534,100.60003054095432 65.5442509856075,96.40005087200552 70.72566798143089,95.80005353270099 75.90708497911692,93.40006355987862 79.53407687321305,88.0000825454481 81.08850197307765,82.6000965773128 80.05221857503057,79.00010318215936 74.87080157734454,74.80010810447857 73.83451817929745,70.00011006044224 74.87080157734454,61.60010406887159 79.01593517698348,52.00008254637942 79.53407687321305,46.000061145517975 76.943368377164,40.60003665834665 70.72566798143089,36.400014185812324 66.58053438551724,35.800010732375085 54.14513359591365,37.00001757917926 47.927433202043176,35.200007217004895 43.78229960426688,35.800010732375085 39.63716601021588,37.60002091201022 31.86504051834345,47.20006591454148 24.611056722700596,49.60007471963763 19.429639728739858,55.600092452485114 17.357072928920388,59.80010122619569 17.8752146307379,65.20010810531676 20.465923126786947,72.40010957140476 18.91149802878499,79.00010318215936 18.91149802878499,80.80010015470907 20.98406482860446,84.4000924504362 33.93760731443763,92.80006591277197 36.01017411239445,93.40006355987862 42.227874506264925,93.40006355987862 43.264157908037305,100.00003362959251 45.85486640408635,104.20001073088497 59.8446922916919,101.2000273913145 62.435400791466236,100.00003362959251 65.5442509856075,96.40005087200552 74.35265988111496,95.20005613006651 76.4252266753465,94.00006114365533 79.53407687321305,89.80007676687092 81.08850197307765,85.00009095203131 80.57036027312279,82.00009783124551 75.90708497911692,76.00010700384155 74.87080157734454,73.60010896017775 74.87080157734454,67.600109572988 79.53407687321305,52.600084349978715 79.53407687321305,49.00007261103019 75.90708497911692,41.80004252679646 73.83451817929745,38.800027393735945 69.17124288342893,37.00001757917926 59.32655059359968,37.00001757917926 52.59070849977434,35.800010732375085 43.78229960426688,37.00001757917926 39.63716601021588,39.400030544027686 38.082740910351276,43.00004815263674 35.49203241430223,45.40005866996944 24.09291502274573,49.60007471963763 20.98406482860446,54.40008939476684 18.393356328830123,61.0001031816937 18.393356328830123,63.400106362532824 20.98406482860446,73.0001092958264 20.98406482860446,76.00010700384155 19.429639728739858,82.00009783124551 21.502206526696682,85.00009095203131 32.38318221643567,90.40007471758872 40.155307710170746,91.60007043927908 41.191591108217835,93.40006355987862 42.74601620808244,100.60003054095432 44.300441306084394,103.0000175787136 46.37300810404122,103.0000175787136 58.808408891782165,101.80002418253571 61.917259089648724,100.00003362959251 65.5442509856075,95.80005353270099 73.31637647747993,94.60005866689608 79.53407687321305,91.00007260916755 81.08850197307765,81.4000990241766 78.49779347516596,77.20010565686971 74.87080157734454,74.20010856213048 73.83451817929745,70.00011006044224 74.87080157734454,61.60010406887159 78.49779347516596,50.200076767709106 78.49779347516596,45.40005866996944 77.46151007525623,43.00004815263674 73.31637647747993,38.20002418290824 70.72566798143089,36.400014185812324 62.435400791466236,37.00001757917926 42.227874506264925,35.800010732375085 38.082740910351276,38.800027393735945 32.38318221643567,46.600063561461866 25.647340124472976,49.60007471963763 20.465923126786947,54.40008939476684 17.357072928920388,59.80010122619569 17.357072928920388,66.40010895999148 20.465923126786947,74.20010856213048 20.465923126786947,82.00009783124551 22.02034822665155,85.00009095203131 24.611056722700596,87.40008435025811 33.93760731443763,92.200068206992 36.01017411239445,92.80006591277197 39.63716601021588,91.60007043927908 41.191591108217835,92.200068206992 43.264157908037305,103.0000175787136 45.336724704131484,106.0 48.44557490199804,104.20001073088497" stroke="#4dd2ff" stroke-linecap="round" stroke-linejoin="round" stroke-width="0.5"><title>2023-07-23 1.6km</title></polyline><polyline fill="none" points="180.09836066141725,84.35124348383397 185.40983606874943,81.61767887603492 183.04918032884598,76.83393812738359 182.45901639387012,67.94983911281452 181.27868852764368,65.89966074423864 177.14754098281264,65.21626781858504 174.78688525035977,63.84948175307363 166.524590164423,61.11590878618881 158.85245902091265,54.965365536976606 145.86885246261954,55.648759508971125 136.42622951045632,61.11590878618881 116.95081967115402,65.89966074423864 114.59016393497586,67.94983911281452 114.59016393497586,74.10037045460194 116.36065573617816,80.25089615257457 118.72131147608161,83.66785243758932 123.44262295216322,85.03463446348906 131.70491803064942,83.66785243758932 142.91803278774023,80.25089615257457 155.90163934603333,80.93428754806519 177.14754098281264,80.25089615257457 181.86885246261954,78.20072154607624 183.63934426382184,72.05019396683201 181.27868852764368,69.31662434339523 178.91803278774023,68.6332317632623 167.11475409939885,67.94983911281452 155.90163934603333,64.53287481935695 138.19672131165862,62.482695408631116 128.7540983632207,67.26644639438018 115.18032786995173,72.05019396683201 114.0,74.10037045460194 114.59016393497586,76.83393812738359 117.54098360985518,82.30107013368979 119.90163934603333,85.03463446348906 122.85245902091265,85.03463446348906 132.29508196935058,81.61767887603492 152.36065573990345,81.61767887603492 161.80327869206667,78.88411315111443 178.91803278774023,79.56750468583778 185.40983606874943,77.51732987118885 184.2295081987977,70.00001685414463 183.04918032884598,67.26644639438018 174.19672131165862,61.79930212954059 167.7049180343747,60.43251537112519 161.80327869206667,57.01554724667221 151.18032786995173,58.38233470451087 120.4918032810092,68.6332317632623 117.54098360985518,73.41697836108506 118.13114754110575,80.25089615257457 119.31147541105747,81.61767887603492 121.67213114723563,81.61767887603492 131.11475409939885,77.51732987118885 142.32786885276437,74.78376247454435 148.2295081987977,75.46715442929417 158.2622950822115,74.10037045460194 177.14754098281264,76.15054631279781 181.27868852764368,74.10037045460194 179.5081967227161,70.68340929225087 174.19672131165862,70.00001685414463 172.42622951045632,66.58305360423401 155.90163934603333,64.53287481935695 141.7377049215138,72.05019396683201 118.72131147608161,73.41697836108506 116.36065573617816,76.15054631279781 116.95081967115402,80.93428754806519 118.72131147608161,82.98446132009849 121.67213114723563,83.66785243758932 127.57377049326897,82.98446132009849 135.2459016405046,78.20072154607624 139.37704918161035,77.51732987118885 172.42622951045632,77.51732987118885 181.86885246261954,78.20072154607624 186.0,76.15054631279781 183.63934426382184,74.78376247454435" stroke="#4dd2ff" stroke-linecap="round" stroke-linejoin="round" stroke-width="0.5"><title>2023-07-22 1.1km</title></polyline><polyline fill="none" points="80.81599999964237,139.32816390087828 79.08799999952316,137.99418110586703 60.07999999821186,137.32718961080536 49.135999996215105,135.32621470745653 33.00799999758601,135.32621470745653 18.607999999076128,139.99515519384295 16.87999999895692,142.66311968909577 16.30399999767542,144.66409234888852 17.45600000023842,150.66700665513054 21.487999998033047,160.671851598192 24.368000000715256,162.67281875154004 35.88799999654293,164.67378529254347 38.76799999922514,164.00679651414976 41.64799999818206,160.00486241048202 44.52799999713898,158.67088383436203 56.62400000169873,159.3378731557168 69.2960000000894,161.33884071698412 79.08799999952316,159.3378731557168 83.69599999859929,157.33690498350188 85.4239999987185,154.00195667007938 85.4239999987185,151.33399679278955 83.69599999859929,147.3320549428463 72.75200000032783,141.3291375786066 65.83999999985099,142.66311968909577 61.23200000077486,141.3291375786066 44.52799999713898,148.6660358319059 26.671999998390675,145.9980737832375 22.639999996870756,146.6650643949397 22.639999996870756,150.0000164490193 23.791999999433756,155.3359361984767 25.519999995827675,160.00486241048202 27.823999997228384,160.671851598192 39.34400000050664,160.671851598192 47.983999997377396,158.00389444176108 57.19999999925494,158.67088383436203 66.4159999974072,160.671851598192 73.32799999788404,160.00486241048202 80.81599999964237,160.00486241048202 84.84800000116229,158.67088383436203 85.4239999987185,156.00292586022988 86.0,150.66700665513054 84.27199999988079,141.99612866947427 81.39199999719858,141.3291375786066 67.5679999999702,143.99710153136402 56.62400000169873,139.99515519384295 16.87999999895692,139.99515519384295 15.15199999883771,141.3291375786066 14.0,143.330110644456 14.57599999755621,146.6650643949397 18.031999997794628,154.00195667007938 25.519999995827675,163.33980766730383 27.823999997228384,162.67281875154004 35.31199999898672,158.67088383436203 39.34400000050664,159.3378731557168 44.52799999713898,158.67088383436203 50.287999998778105,160.671851598192 55.47199999541044,159.3378731557168 65.83999999985099,160.671851598192 81.96799999848008,158.00389444176108 84.27199999988079,156.66991545585915 84.27199999988079,148.6660358319059 81.96799999848008,142.66311968909577 79.66400000080466,141.99612866947427 74.48000000044703,142.66311968909577 65.26399999856949,141.3291375786066 54.31999999657273,145.9980737832375 54.31999999657273,147.3320549428463 52.591999996453524,147.9990454209037 37.03999999910593,143.99710153136402 26.671999998390675,143.99710153136402 24.943999998271465,144.66409234888852 23.791999999433756,147.3320549428463 24.368000000715256,158.67088383436203 26.095999997109175,160.671851598192 34.73599999770522,162.67281875154004 41.07199999690056,160.00486241048202 49.135999996215105,160.00486241048202 56.04799999669194,160.00486241048202 65.26399999856949,162.00582976918668 69.2960000000894,161.33884071698412 83.12000000104308,156.00292586022988 84.27199999988079,154.00195667007938 84.27199999988079,148.6660358319059 81.96799999848008,143.330110644456 79.08799999952316,141.99612866947427 61.23200000077486,143.99710153136402 49.135999996215105,143.330110644456 41.64799999818206,141.3291375786066 27.823999997228384,141.3291375786066" stroke="#4dd2ff" stroke-linecap="round" stroke-linejoin="round" stroke-width="0.5"><title>2023-07-12 1.2km</title></polyline><polyline fill="none" points="165.839999999851,164.6738005504012 171.60000000149012,165.3407897381112 181.39200000092387,164.006811295636 184.2719999998808,162.00584312342107 185.4239999987185,159.33788460772485 184.8480000011623,155.33594479504973 179.08799999952316,142.66311924578622 175.63199999928474,141.3291361834854 164.68800000101328,141.3291361834854 153.16799999773502,136.66019331850111 133.5839999988675,133.32523209089413 122.63999999687076,135.9932012083009 116.30399999767542,141.3291361834854 114.5760000012815,144.66409333376214 114.5760000012815,150.0000212402083 117.45600000023842,162.00584312342107 119.75999999791384,164.006811295636 128.97599999979138,166.67476790910587 135.88800000026822,164.006811295636 143.37599999830127,163.33982197428122 162.38399999961257,164.006811295636 176.78400000184774,163.33982197428122 179.66400000080466,162.67283258168027 181.39200000092387,157.33691500639543 177.93600000068545,147.33205782901496 175.63199999928474,145.3310845606029 165.26400000229478,147.33205782901496 153.7440000027418,143.3301106770523 132.4320000000298,143.3301106770523 118.03199999779463,145.9980757185258 114.5760000012815,147.9990487843752 114.5760000012815,150.66701192315668 118.60799999907613,162.67283258168027 120.33599999919534,164.006811295636 126.09600000083447,164.6738005504012 137.61600000038743,160.67186400014907 157.77599999681115,162.67283258168027 179.08799999952316,161.33885359577835 180.24000000208616,160.67186400014907 180.81599999964237,158.67089480999857 179.66400000080466,146.66506680939347 177.93600000068545,143.99710204079747 164.1119999960065,145.9980757185258 148.5599999986589,143.99710204079747 134.160000000149,144.66409333376214 121.48800000175834,143.99710204079747 115.72800000011921,145.3310845606029 114.0,147.9990487843752 116.30399999767542,156.6699250047095 118.03199999779463,158.67089480999857 124.94399999827147,164.006811295636 135.31199999898672,163.33982197428122 143.95199999958277,161.33885359577835 162.38399999961257,164.006811295636 171.02400000020862,162.00584312342107 180.24000000208616,162.67283258168027 183.12000000104308,161.33885359577835 183.6959999985993,158.0039049424231 180.81599999964237,149.3330304888077 176.78400000184774,144.66409333376214 170.44799999892712,143.3301106770523 158.92799999937415,144.66409333376214 148.5599999986589,142.66311924578622 140.49599999934435,145.9980757185258 130.7039999999106,145.9980757185258 118.03199999779463,148.66603967128322 116.30399999767542,149.3330304888077 115.15199999883771,151.33400253485888 116.30399999767542,158.0039049424231 119.75999999791384,163.33982197428122 122.63999999687076,163.33982197428122 130.1279999986291,160.0048743383959 134.160000000149,159.33788460772485 138.19199999794364,157.33691500639543 142.80000000074506,156.6699250047095 155.47200000286102,161.33885359577835 167.5679999999702,164.006811295636 183.12000000104308,164.6738005504012 184.8480000011623,163.33982197428122 186.0,161.33885359577835 186.0,158.67089480999857 180.81599999964237,146.66506680939347 179.08799999952316,144.66409333376214 174.48000000044703,143.3301106770523 162.96000000089407,145.9980757185258 149.1359999999404,144.66409333376214 146.8319999985397,145.3310845606029 143.37599999830127,147.9990487843752 119.18400000035763,148.66603967128322 114.5760000012815,149.3330304888077 114.0,151.33400253485888 117.45600000023842,162.00584312342107 122.06399999931455,166.00777885690331 126.67199999839067,166.00777885690331 132.4320000000298,163.33982197428122 139.92000000178814,162.00584312342107 146.2559999972582,162.00584312342107 156.04800000041723,164.006811295636 158.92799999937415,163.33982197428122" stroke="#4dd2ff" stroke-linecap="round" stroke-linejoin="round" stroke-width="0.5"><title>2023-07-11 1.4km</title></polyline><polyline fill="none" points="80.68852458894253,240.9342749081552 81.27868852391839,242.3010560995899 84.2295081987977,240.2508842102252 85.40983606502414,237.51732071163133 85.40983606502414,233.41697338037193 80.68852458894253,219.065737972036 57.67213114723563,218.3823450463824 44.68852458894253,215.64877263642848 19.311475407332182,217.015558980871 15.180327869951725,219.065737972036 14.0,222.4827015711926 15.770491801202297,234.10036477586254 18.131147541105747,238.20071169128641 21.08196721225977,240.2508842102252 48.2295081987977,242.984446589835 55.31147541105747,242.3010560995899 67.70491803437471,244.35122736310586 75.37704918161035,244.35122736310586 83.04918032884598,242.3010560995899 84.81967213004827,239.56749343918636 84.81967213004827,236.15053854789585 82.4590163975954,225.21627119462937 80.09836065769196,220.43252362217754 78.32786885276437,219.74913083203137 67.70491803437471,219.74913083203137 56.49180327728391,217.6989520471543 40.55737704783678,221.11591634061188 34.06557376682758,219.74913083203137 24.03278688341379,220.43252362217754 15.770491801202297,222.4827015711926 14.0,225.899663425982 16.36065573617816,232.0501903789118 19.901639346033335,237.51732071163133 22.852459017187357,240.2508842102252 26.39344262331724,241.61766553809866 33.47540983557701,240.9342749081552 40.55737704783678,238.20071169128641 51.77049180492759,236.15053854789585 60.03278688713908,238.20071169128641 68.88524590060115,236.83392966538668 80.68852458894253,238.88410260062665 84.2295081987977,236.83392966538668 84.81967213004827,234.10036477586254 83.04918032884598,224.53287889249623 82.4590163975954,223.166094081942 79.5081967189908,221.11591634061188 68.88524590060115,223.166094081942 57.08196721598506,221.79930899105966 53.540983606129885,219.74913083203137 41.14754098653793,222.4827015711926 34.06557376682758,218.3823450463824 23.44262294843793,217.6989520471543 19.901639346033335,219.065737972036 17.540983606129885,220.43252362217754 16.36065573617816,225.21627119462937 16.950819671154022,232.0501903789118 19.311475407332182,238.88410260062665 26.39344262331724,243.6678370120935 31.704918034374714,242.3010560995899 38.19672131165862,234.78375610383227 42.32786885276437,233.41697338037193 81.86885245889425,240.2508842102252 84.2295081987977,238.20071169128641 85.40983606502414,235.46714736148715 82.4590163975954,225.21627119462937 80.68852458894253,223.166094081942 73.01639344543219,220.43252362217754 67.70491803437471,222.4827015711926 61.80327868834138,221.11591634061188 56.49180327728391,223.166094081942 38.19672131165862,223.84948652004823 24.03278688341379,221.79930899105966 19.311475407332182,223.84948652004823 18.72131147235632,228.63323165709153 20.491803277283907,238.88410260062665 23.44262294843793,240.2508842102252 33.47540983557701,238.88410260062665 43.50819672271609,240.2508842102252 57.67213114723563,236.83392966538668 68.29508196562529,237.51732071163133 78.32786885276437,239.56749343918636 83.63934426382184,238.88410260062665 86.0,236.15053854789585 85.40983606502414,230.6834070989862 81.27868852391839,224.53287889249623 76.55737704783678,221.79930899105966 63.57377049326897,223.166094081942 60.03278688713908,221.11591634061188 48.819672130048275,219.065737972036 45.27868852391839,219.74913083203137 40.55737704783678,222.4827015711926 32.295081965625286,219.74913083203137 24.622950818389654,219.065737972036" stroke="#4dd2ff" stroke-linecap="round" stroke-linejoin="round" stroke-width="0.5"><title>2023-07-10 1.3km</title></polyline></svg>