<?xml version="1.0" encoding="utf-8" ?>
<svg baseProfile="full" height="300mm" version="1.1" viewBox="0,0,200,300" width="200mm" xmlns="http://www.w3.org/2000/svg" xmlns:ev="http://www.w3.org/2001/xml-events" xmlns:xlink="http://www.w3.org/1999/xlink"><defs /><rect fill="#222222" height="300" width="200" x="0" y="0" /><text fill="#FFFFFF" style="font-size:12px; font-family:Arial; font-weight:bold;" x="10" y="20">Over 1km Runs</text><text fill="#FFFFFF" style="font-size:4px; font-family:Arial" x="10" y="280">ATHLETE</text><text fill="#FFFFFF" style="font-size:9px; font-family:Arial" x="10" y="290">Andy Chen</text><text fill="#FFFFFF" style="font-size:4px; font-family:Arial" x="120" y="280">STATISTICS</text><text fill="#FFFFFF" style="font-size:3px; font-family:Arial" x="120" y="285">Number: 11</text><text fill="#FFFFFF" style="font-size:3px; font-family:Arial" x="120" y="290">Weekly: 2.8</text><text fill="#FFFFFF" style="font-size:3px; font-family:Arial" x="141" y="285">Total: 16.5 km</text><text fill="#FFFFFF" style="font-size:3px; font-family:Arial" x="141" y="290">Avg: 1.5 km</text><text fill="#FFFFFF" style="font-size:3px; font-family:Arial" x="167" y="285">Min: 1.0 km</text><text fill="#FFFFFF" style="font-size:3px; font-family:Arial" x="167" y="290">Max: 2.0 km</text><polyline fill="none" points="66.57480315119028,66.1545785618946 65.29921260103583,59.261472867801785 63.598425198346376,54.33781992318109 62.322834646329284,52.860723060555756 45.74015748128295,47.44469736982137 38.51181102544069,47.937063592951745 30.433070866391063,45.9675984014757 21.50393700785935,48.42942976672202 15.55118110217154,51.3836257471703 14.275590552017093,52.860723060555756 13.850393699482083,55.814916332252324 15.125984251499176,61.723297459073365 17.251968504860997,66.646942878142 18.527559055015445,68.1240355251357 29.15748031437397,70.58585560088977 33.83464566990733,70.09349168697372 41.91338582709432,73.54003803618252 46.165354331955314,74.03240159898996 54.2440944891423,70.58585560088977 61.4724409468472,69.60112772136927 63.598425198346376,68.61639964021742 64.87401574850082,66.646942878142 65.29921260103583,57.29201229196042 63.598425198346376,54.33781992318109 43.61417322978377,50.398893953766674 35.11023622006178,52.368357338476926 32.9842519685626,51.3836257471703 30.433070866391063,54.83018544362858 20.653543308377266,52.860723060555756 14.700787400826812,54.33781992318109 14.275590552017093,58.2767426809296 15.55118110217154,63.20039161061868 18.102362206205726,68.1240355251357 19.803149605169892,69.60112772136927 24.055118111893535,71.57058328017592 28.73228346556425,69.60112772136927 35.96062992140651,68.61639964021742 58.496062994003296,70.58585560088977 63.17322834953666,69.10876370640472 64.87401574850082,67.63167136069387 65.72440944984555,63.69275622908026 64.44881889782846,57.29201229196042 62.74803149700165,53.845454352442175 61.4724409468472,52.860723060555756 48.716535434126854,50.398893953766674 39.78740157559514,52.860723060555756 22.354330707341433,50.398893953766674 16.40157480351627,51.875991569366306 14.275590552017093,53.35308873234317 13.0,55.814916332252324 13.42519685253501,58.76910779811442 15.55118110217154,64.1851207963191 18.95275590568781,68.1240355251357 27.45669291354716,69.10876370640472 35.11023622006178,68.61639964021742 46.165354331955314,70.58585560088977 54.66929133981466,70.58585560088977 59.77165354415774,71.07821946591139 63.598425198346376,69.10876370640472 65.72440944984555,65.66221419489011 65.29921260103583,60.738567772787064 63.17322834953666,55.814916332252324 58.07086614333093,52.860723060555756 38.08661417290568,51.3836257471703 28.73228346556425,51.875991569366306 21.92913386039436,50.398893953766674 16.40157480351627,51.875991569366306 14.275590552017093,53.35308873234317 13.0,55.814916332252324 13.42519685253501,58.2767426809296 16.40157480351627,66.646942878142 18.102362206205726,69.10876370640472 26.606299214065075,69.10876370640472 35.11023622006178,67.13930714363232 49.14173228479922,67.63167136069387 60.19685039483011,69.10876370640472 62.322834646329284,68.61639964021742 64.02362204901874,67.13930714363232 64.87401574850082,64.67748531280085 64.87401574850082,58.2767426809296 62.322834646329284,54.83018544362858 41.06299212761223,54.83018544362858 36.81102362088859,55.814916332252324 26.181102361530066,55.32255091378465 19.803149605169892,54.33781992318109 15.55118110217154,55.814916332252324 15.125984251499176,58.76910779811442 15.97637795098126,64.67748531280085 17.251968504860997,67.13930714363232 19.377952754497528,68.61639964021742 35.53543307073414,68.61639964021742 62.322834646329284,71.57058328017592 65.29921260103583,70.09349168697372 67.0,67.63167136069387 67.0,62.70802694419399 65.72440944984555,57.78437751159072 64.02362204901874,55.32255091378465 62.322834646329284,53.845454352442175 57.64566929265857,54.83018544362858 40.637795275077224,56.30728170275688 33.83464566990733,55.32255091378465" stroke="#4dd2ff" stroke-linecap="round" stroke-linejoin="round" stroke-width="0.5"><title>2023-08-02 1.6km</title></polyline><polyline fill="none" points="124.40799999982119,57.24867908516899 122.24800000153482,54.747463007457554 119.22399999946356,52.74648922635242 101.94400000013411,47.74405120732263 83.36799999885261,47.74405120732263 76.88800000026822,50.245270853862166 74.72799999825656,52.24624565290287 73.0,55.24770632525906 73.0,59.7498938892968 75.16000000014901,68.25401469040662 76.02399999834597,70.25498215015978 79.04799999855459,71.25546557363123 99.7839999999851,70.75522388704121 109.7199999988079,72.25594879267737 120.08799999766052,71.7557072089985 123.97599999979138,69.75474036112428 125.27199999988079,67.75377269927412 125.7039999999106,59.249651030637324 124.40799999982119,55.74794959044084 122.67999999970198,54.24721963889897 118.3600000012666,55.24770632525906 106.26399999856949,51.74600203149021 97.19199999980628,51.24575835606083 91.14399999938905,52.74648922635242 76.88800000026822,51.74600203149021 74.72799999825656,52.74648922635242 73.8640000000596,54.747463007457554 73.43199999816716,58.24916516104713 76.88800000026822,67.75377269927412 78.61599999852479,69.75474036112428 80.34400000050664,70.25498215015978 95.46399999782443,68.25401469040662 120.51999999955297,69.75474036112428 125.27199999988079,68.25401469040662 127.0,65.75280421832576 127.0,62.75134997209534 125.7039999999106,58.24916516104713 123.54400000162423,54.747463007457554 101.51199999824166,49.745027027558535 83.36799999885261,51.74600203149021 77.31999999843538,53.74697621865198 75.59199999831617,54.747463007457554 74.72799999825656,56.74843597179279 74.2960000000894,59.7498938892968 76.02399999834597,65.75280421832576 76.88800000026822,67.75377269927412 79.91199999861419,69.75474036112428 91.14399999938905,69.75474036112428 95.89599999971688,68.25401469040662 108.42400000058115,69.25449852226302 121.38399999961257,68.7542566312477 123.54400000162423,67.75377269927412 124.83999999798834,63.75183492526412 123.54400000162423,56.248192806728184 123.11199999973178,55.74794959044084 116.63199999928474,55.74794959044084 109.2879999987781,52.24624565290287 102.37600000016391,50.245270853862166 90.27999999932945,52.24624565290287 82.50400000065565,52.24624565290287 78.18400000035763,53.74697621865198 76.45600000023842,55.24770632525906 76.02399999834597,57.74892214871943 78.18400000035763,68.7542566312477 80.34400000050664,70.25498215015978 82.0719999987632,70.25498215015978 88.55199999921024,70.25498215015978 101.94400000013411,71.25546557363123 112.31199999898672,70.75522388704121 119.656000001356,71.25546557363123 124.40799999982119,69.75474036112428 125.27199999988079,68.25401469040662 125.7039999999106,65.75280421832576 123.11199999973178,56.248192806728184 111.01600000075996,50.245270853862166 104.10400000028312,49.745027027558535 95.46399999782443,50.245270853862166 78.18400000035763,52.24624565290287 75.16000000014901,53.74697621865198 74.2960000000894,55.74794959044084 76.88800000026822,67.25353065459058 79.47999999858439,69.75474036112428 83.36799999885261,69.25449852226302 92.43999999947846,69.75474036112428 105.39999999850988,67.25353065459058 111.44800000078976,67.25353065459058 120.51999999955297,68.7542566312477 123.54400000162423,67.75377269927412 126.1359999999404,64.25207732571289 125.7039999999106,55.74794959044084 124.40799999982119,54.24721963889897 109.7199999988079,52.24624565290287 101.0800000000745,50.245270853862166 86.82399999909103,51.74600203149021 76.02399999834597,54.24721963889897 75.16000000014901,55.74794959044084 75.16000000014901,57.74892214871943 78.61599999852479,67.75377269927412 79.91199999861419,69.25449852226302 88.11999999918044,70.75522388704121 100.64799999818206,68.7542566312477 115.33600000105798,70.25498215015978 122.67999999970198,69.75474036112428 124.83999999798834,67.75377269927412 125.7039999999106,64.75231967447326 125.7039999999106,57.24867908516899 122.67999999970198,54.24721963889897 117.06400000117719,53.74697621865198 112.31199999898672,51.74600203149021 85.52799999900162,50.245270853862166 75.16000000014901,52.74648922635242 73.0,55.24770632525906 73.0,57.74892214871943 76.45600000023842,67.25353065459058 77.75200000032783,69.25449852226302 79.47999999858439,69.75474036112428 82.50400000065565,70.25498215015978 102.37600000016391,69.75474036112428 108.85600000061095,68.7542566312477" stroke="#4dd2ff" stroke-linecap="round" stroke-linejoin="round" stroke-width="0.5"><title>2023-08-01 2.0km</title></polyline><polyline fill="none" points="165.83200000040233,69.75474395509809 171.0159999988973,73.25643575983122 176.2000000011176,70.75522758299485 185.27200000174344,69.25450206408277 186.1359999999404,68.2540181321092 187.0,65.75280740531161 185.70399999804795,59.249653552658856 181.38400000147521,54.247221651952714 179.2240000013262,52.746491086203605 161.08000000193715,50.24527246085927 151.1440000012517,47.243808425497264 144.23200000077486,46.74356424016878 139.91200000047684,48.24429664062336 133.8640000037849,52.746491086203605 133.0,55.24770844075829 133.8640000037849,61.25062488671392 134.72800000198185,63.75183790596202 138.18400000035763,67.75377608742565 142.0720000024885,68.2540181321092 147.25600000284612,68.75426012324169 165.40000000037253,66.75329184811562 181.38400000147521,68.2540181321092 183.54399999976158,66.75329184811562 184.839999999851,63.75183790596202 185.70399999804795,59.249653552658856 183.54399999976158,55.74795175855979 180.5200000014156,54.247221651952714 171.44800000078976,54.7474650721997 164.96800000220537,53.74697818234563 154.60000000149012,55.74795175855979 146.39200000092387,55.74795175855979 138.61600000225008,53.74697818234563 136.88800000026822,53.74697818234563 134.2960000000894,55.74795175855979 133.8640000037849,57.24868140509352 135.5920000001788,65.25256510730833 138.18400000035763,68.2540181321092 141.64000000059605,69.75474395509809 145.52800000086427,69.75474395509809 150.2800000011921,67.75377608742565 154.60000000149012,67.25353399384767 182.68000000156462,67.75377608742565 184.839999999851,66.25304965116084 185.70399999804795,61.25062488671392 183.97600000165403,57.74892451846972 180.95199999958277,55.74795175855979 178.35999999940395,56.74843824002892 175.33600000105798,56.24819502327591 172.31200000084937,57.24868140509352 158.4879999998957,57.74892451846972 146.82400000095367,57.74892451846972 137.75200000219047,56.24819502327591 134.2960000000894,57.24868140509352 133.43200000189245,58.7494105938822 133.8640000037849,61.25062488671392 136.45600000023842,67.25353399384767 138.18400000035763,69.25450206408277 152.0080000013113,67.25353399384767 161.5120000001043,67.75377608742565 168.85600000061095,67.25353399384767 181.81599999964237,68.75426012324169 185.70399999804795,66.75329184811562 186.56800000183284,61.75086759310216 183.97600000165403,57.24868140509352 180.08799999952316,56.74843824002892 151.5760000012815,61.25062488671392 146.82400000095367,61.25062488671392 139.91200000047684,58.2491675815545 138.18400000035763,58.2491675815545 137.32000000216067,59.749896463472396 137.75200000219047,64.25208035809919 139.91200000047684,68.2540181321092 141.64000000059605,69.25450206408277 154.60000000149012,66.25304965116084 166.69600000046194,66.75329184811562 171.0159999988973,66.25304965116084 183.54399999976158,66.25304965116084 184.40800000168383,65.25256510730833 185.70399999804795,61.25062488671392 185.27200000174344,57.24868140509352 183.97600000165403,55.74795175855979 182.24799999967217,55.24770844075829 174.47199999913573,55.24770844075829 171.0159999988973,54.247221651952714 166.26400000043213,54.7474650721997 159.78400000184774,54.7474650721997 158.05600000172853,55.24770844075829 142.0720000024885,54.7474650721997 139.04800000227988,54.7474650721997 134.72800000198185,57.24868140509352 134.2960000000894,59.249653552658856 138.18400000035763,68.75426012324169 140.7760000023991,70.25498579395935 146.82400000095367,70.75522758299485 150.7120000012219,70.25498579395935 167.5600000023842,71.25546931987628 177.9280000012368,69.75474395509809 185.70399999804795,65.75280740531161 186.1359999999404,62.75135285081342 183.97600000165403,59.249653552658856 183.11200000159442,56.24819502327591 176.6320000011474,54.247221651952714 170.15200000070035,54.247221651952714 164.10400000028312,52.746491086203605 154.60000000149012,52.746491086203605 145.0960000026971,51.746003789361566 136.88800000026822,52.746491086203605 133.43200000189245,56.24819502327591 133.43200000189245,58.7494105938822 136.02400000207126,65.25256510730833 138.18400000035763,68.75426012324169 139.91200000047684,70.25498579395935 146.39200000092387,70.75522758299485 150.2800000011921,72.75619422551244 155.46400000154972,72.25595264183357" stroke="#4dd2ff" stroke-linecap="round" stroke-linejoin="round" stroke-width="0.5"><title>2023-07-31 1.6km</title></polyline><polyline fill="none" points="66.578125,120.73280109744519 65.73437499813735,117.80168865527958 63.203125,116.8246507756412 52.234375,115.35909358225763 46.749999998137355,113.40501662995666 39.578124998137355,112.42797785392031 32.406249998137355,107.05426103249192 25.65625,105.58870085328817 21.859375,105.1001806948334 20.593749998137355,106.07722096238285 15.109375,111.9394583934918 13.843749998137355,116.33613176178187 13.0,119.75576381571591 14.265624998137355,123.17539343051612 17.640624998137355,130.50316296331584 19.75,132.45723294606432 38.734375,134.89981930470094 52.65625,132.94575031800196 60.25,133.4342676391825 66.578125,130.99168053269386 67.0,129.52612767228857 66.15624999813735,122.19835664657876 64.046875,119.2672450998798 60.671875,117.80168865527958 55.609375,117.3131697406061 51.390624998137355,117.80168865527958 44.640625,117.3131697406061 39.156249998137355,118.2902075201273 33.671875,116.8246507756412 18.484375,115.84761269716546 15.531249998137355,116.33613176178187 14.265624998137355,117.80168865527958 13.421874998137355,120.73280109744519 16.374999998137355,128.5490921814926 19.328124998137355,130.99168053269386 23.546875,131.9687155247666 26.078125,131.48019805317745 40.0,131.9687155247666 47.593749998137355,133.92278491146863 56.875,134.41130213346332 64.89062499813735,132.45723294606432 66.15624999813735,131.48019805317745 66.578125,129.52612767228857 67.0,125.1294664000161 66.15624999813735,119.2672450998798 65.3125,118.2902075201273 61.093749998137355,116.8246507756412 51.812499998137355,116.33613176178187 45.484375,116.8246507756412 35.78125,119.75576381571591 30.296875,117.3131697406061 20.593749998137355,116.33613176178187 15.953125,117.80168865527958 13.843749998137355,119.75576381571591 14.265624998137355,122.68687506299466 15.953125,128.0605743629858 21.015624998137355,132.94575031800196 40.421875,133.4342676391825 55.187499998137355,134.41130213346332 62.359374998137355,133.4342676391825 65.3125,130.99168053269386 66.15624999813735,127.08353857556358 65.73437499813735,120.2442824812606 65.3125,118.77872633375227 58.140625,116.8246507756412 53.078125,117.3131697406061 48.015625,116.8246507756412 37.046874998137355,118.77872633375227 30.718749998137355,117.80168865527958" stroke="#4dd2ff" stroke-linecap="round" stroke-linejoin="round" stroke-width="0.5"><title>2023-07-26 1.0km</title></polyline><polyline fill="none" points="108.3233082704246,127.52245746273547 116.44360901974142,129.87321822484955 124.15789473615587,127.99260970996693 126.18796992301941,126.11200042907149 127.0,123.2910850699991 126.18796992301941,118.11940243421122 124.15789473615587,115.29848218895495 122.53383458591998,113.88802141929045 106.29323308356106,108.24617402860895 101.8270676676184,108.24617402860895 87.61654135212302,111.06709858588874 81.12030075117946,109.65663652354851 77.87218045070767,110.12679059058428 74.2180451117456,113.41786773269996 73.40601503662765,116.23878912720829 76.65413533896208,124.70154296560213 78.68421052582562,127.52245746273547 81.52631578966975,128.93291406333447 84.77443609014153,128.93291406333447 88.83458646573126,125.64184798812494 94.11278195492923,124.23139038262889 104.66917293146253,127.52245746273547 118.8796992469579,128.93291406333447 123.34586465917528,127.52245746273547 124.15789473615587,125.17169550154358 124.56390977464616,121.41047387337312 121.72180451080203,113.88802141929045 118.8796992469579,113.41786773269996 110.35338345915079,113.41786773269996 103.04511278122663,112.0074063888751 96.95488721691072,113.41786773269996 86.80451127700508,113.88802141929045 78.27819548919797,112.47756021888927 73.8120300732553,113.88802141929045 73.40601503662765,116.23878912720829 77.06015037372708,125.64184798812494 79.90225563943386,127.99260970996693 87.21052631549537,130.34337023319677 89.64661654084921,130.34337023319677 93.70676691643894,129.4030661676079 98.57894736900926,130.34337023319677 102.63909774459898,129.87321822484955 111.57142857089639,131.75382597139105 114.81954887136817,130.34337023319677 118.06766917183995,129.87321822484955 121.72180451080203,127.99260970996693 124.15789473615587,124.70154296560213 124.56390977464616,119.05970879783854 122.12781954929233,113.88802141929045 120.0977443587035,113.41786773269996 108.72932330705225,112.47756021888927 97.36090225540102,113.41786773269996 91.6766917295754,110.59694461384788 83.5563909765333,108.24617402860895 80.30827067606151,108.7163282413967 75.84210526198149,110.59694461384788 73.8120300732553,112.94771399814636 73.40601503662765,114.35817505652085 75.43609022535384,120.47016798751429 76.65413533896208,123.2910850699991 79.90225563943386,127.0523051652126 83.96240601502359,129.4030661676079 86.80451127700508,126.58215282158926 97.36090225540102,125.17169550154358 111.16541353240609,128.93291406333447 115.63157894648612,127.52245746273547 120.90977443568408,127.99260970996693 123.34586465917528,126.58215282158926 123.75187969766557,125.17169550154358 122.93984962441027,119.05970879783854 121.72180451080203,116.23878912720829 119.69172932207584,114.35817505652085 118.06766917183995,114.82832864718512 103.45112781971693,112.47756021888927 100.6090225558728,112.47756021888927 96.14285714179277,114.35817505652085 93.30075187981129,114.35817505652085 90.45864661596715,112.47756021888927 81.9323308262974,111.06709858588874 77.87218045070767,111.5372525122948 75.03007518686354,112.47756021888927 73.40601503662765,116.23878912720829 74.2180451117456,119.05970879783854 79.49624060094357,126.58215282158926 82.744360903278,128.93291406333447 84.77443609014153,128.93291406333447 96.95488721691072,127.52245746273547 102.23308270610869,127.52245746273547 113.60150375962257,130.34337023319677 121.72180451080203,129.4030661676079 124.56390977464616,127.0523051652126 125.37593984976411,122.82093234313652 125.37593984976411,118.11940243421122 124.56390977464616,115.29848218895495 122.53383458591998,113.88802141929045 117.6616541352123,112.47756021888927 107.10526315867901,111.06709858588874 104.26315789483488,111.06709858588874 98.17293232865632,112.47756021888927 84.77443609014153,111.5372525122948 77.46616541221738,112.47756021888927 74.2180451117456,113.41786773269996 73.8120300732553,115.76863568322733 75.03007518686354,119.529861909803 77.87218045070767,124.70154296560213 79.49624060094357,126.58215282158926 88.42857142910361,127.52245746273547 96.95488721691072,127.52245746273547 112.78947368077934,129.87321822484955 122.53383458591998,129.4030661676079 124.56390977464616,127.52245746273547 125.37593984976411,126.11200042907149 125.78195488452911,122.35077956691384 124.56390977464616,115.29848218895495 124.15789473615587,113.88802141929045 122.93984962441027,112.94771399814636 115.22556390985847,111.5372525122948 100.6090225558728,111.5372525122948 94.92481203004718,112.47756021888927 89.64661654084921,110.59694461384788 82.3383458647877,110.59694461384788 75.43609022535384,112.0074063888751 73.8120300732553,112.47756021888927 73.0,114.82832864718512 73.8120300732553,118.11940243421122 75.84210526198149,122.82093234313652 79.09022556431592,126.58215282158926 82.744360903278,127.99260970996693 92.48872180469334,129.4030661676079 98.98496240749955,128.4627619101666 113.19548872113228,130.8135221945122 120.90977443568408,129.4030661676079 124.15789473615587,127.52245746273547 125.37593984976411,125.64184798812494 125.78195488452911,123.76123775029555" stroke="#4dd2ff" stroke-linecap="round" stroke-linejoin="round" stroke-width="0.5"><title>2023-07-25 1.9km</title></polyline><polyline fill="none" points="185.3759398497641,129.6381397759542 186.5939849615097,127.75753087783232 187.0,125.40676867822185 185.78195488639176,117.88432158948854 184.96992481313646,115.53355435933918 183.34586466103792,114.59324713144451 175.63157894834876,114.12309344485402 163.85714285634458,110.36186223570257 158.17293233051896,109.89170811930671 151.6766917295754,112.24247822444886 141.12030075117946,111.30217032553628 134.2180451117456,114.59324713144451 133.0,117.88432158948854 133.81203007511795,121.17539369966835 136.24812030047178,125.87692121369764 138.27819548733532,128.2276831753552 146.80451127886772,130.10829188022763 151.6766917295754,129.6381397759542 160.6090225558728,128.2276831753552 181.31578947417438,130.10829188022763 185.3759398497641,128.2276831753552 186.1879699267447,127.28737853420898 185.78195488639176,123.99631078215316 184.56390977464616,116.94401483982801 180.50375939905643,115.06340076867491 169.9473684206605,112.7126321005635 137.46616541408002,115.06340076867491 134.62406014837325,116.00370790110901 133.81203007511795,117.88432158948854 138.68421052582562,127.28737853420898 141.12030075117946,128.2276831753552 143.55639097839594,128.69783542258665 158.5789473671466,125.87692121369764 165.07518796995282,128.2276831753552 174.00751879625022,129.6381397759542 182.12781954742968,129.1679876227863 184.56390977464616,128.69783542258665 185.3759398497641,127.28737853420898 186.1879699267447,123.99631078215316 185.78195488639176,118.3544748914428 183.75187969952822,116.00370790110901 180.50375939905643,115.06340076867491 163.85714285634458,113.65293971030042 150.0526315793395,114.59324713144451 139.49624060094357,113.65293971030042 134.62406014837325,114.59324713144451 133.81203007511795,116.00370790110901 133.40601503662765,120.23508762195706 136.65413533709943,125.40676867822185 139.49624060094357,128.2276831753552 145.99248120374978,129.6381397759542 152.08270676620305,127.28737853420898 176.84962406009436,128.2276831753552 183.75187969952822,127.28737853420898 184.96992481313646,126.34707370074466 185.78195488639176,121.64554666634649 184.96992481313646,115.06340076867491 184.15789473615587,114.12309344485402 174.81954887136817,112.24247822444886 169.13533834554255,111.7723242980428 154.11278195492923,113.65293971030042 137.46616541408002,114.12309344485402 134.2180451117456,115.53355435933918 133.81203007511795,117.88432158948854 138.27819548733532,126.34707370074466 142.74436090141535,129.1679876227863 157.36090225726366,125.87692121369764 161.0150375943631,126.34707370074466 164.26315789483488,128.69783542258665 166.6992481201887,129.1679876227863 178.0676691737026,128.2276831753552 182.53383458778262,128.69783542258665 185.78195488639176,127.28737853420898 186.1879699267447,123.99631078215316 184.96992481313646,118.82462814636528 182.93984962627292,117.88432158948854 174.81954887136817,118.3544748914428 168.3233082704246,116.47386139538139 164.66917293332517,116.47386139538139 139.09022556431592,114.12309344485402 135.03007518686354,115.06340076867491 133.81203007511795,116.00370790110901 133.81203007511795,117.88432158948854 135.03007518686354,121.17539369966835 138.27819548733532,127.28737853420898 142.3383458647877,129.6381397759542 145.58646616525948,130.10829188022763 148.83458646573126,129.1679876227863 154.11278195492923,124.93661609524861 158.17293233051896,123.99631078215316 165.48120300658047,124.93661609524861 168.7293233089149,125.87692121369764 183.34586466103792,128.2276831753552 186.5939849615097,127.28737853420898 187.0,124.93661609524861 184.15789473615587,118.82462814636528 178.0676691737026,115.53355435933918 167.105263158679,114.12309344485402 153.70676691830158,114.12309344485402 140.3082706760615,112.7126321005635 134.62406014837325,114.59324713144451 133.81203007511795,115.53355435933918 133.40601503662765,118.3544748914428 136.24812030047178,124.46646346291527" stroke="#4dd2ff" stroke-linecap="round" stroke-linejoin="round" stroke-width="0.5"><title>2023-07-24 1.8km</title></polyline><polyline fill="none" points="52.82400706410408,198.90004209801555 57.09867608547211,198.90004209801555 59.43031373433769,198.0000458578579 60.984738832339644,196.65005115559325 64.48219530470669,190.35007041646168 63.31637647934258,186.75007738685235 58.653101183474064,180.45008252328262 58.26449491083622,178.65008233953267 59.81892000697553,171.90007511759177 62.53916393220425,164.70005604019389 62.927770206704736,161.1000420982018 60.596132557839155,157.05002290848643 55.54425098747015,153.0 53.601219614967704,153.0 49.32655059359968,154.35000804951414 39.22278745286167,153.45000272989273 34.55951215699315,154.35000804951414 28.730418037623167,160.65004015015438 21.735505094751716,164.2500544586219 17.849442346021533,167.85006583062932 16.295017248019576,171.00007337424904 16.295017248019576,175.95008068857715 18.626654896885157,181.8000821787864 18.238048622384667,188.10007511638105 19.015261169523,191.70006704563275 22.12411136738956,194.4000590648502 26.398780388757586,197.10004943516105 30.284843135625124,198.0000458578579 33.39369333162904,196.65005115559325 34.94811843149364,203.40002054348588 36.891149803996086,203.8500181371346 45.05188157223165,202.950022906065 51.65818824060261,199.80003815423697 55.54425098747015,199.35004014987499 59.43031373433769,197.55004767002538 62.15055765584111,193.5000619092025 63.31637647934258,189.45007243333384 62.53916393220425,186.75007738685235 58.653101183474064,183.60008107870817 57.87588863633573,180.0000825454481 58.653101183474064,173.70007805200294 61.76195138320327,166.5000619101338 62.15055765584111,162.0000458592549 60.207526283338666,157.95002749376 55.54425098747015,154.8000106397085 52.435400791466236,154.35000804951414 43.10885019786656,155.2500131847337 38.44557490199804,153.90000541321933 35.336724704131484,154.35000804951414 32.22787450812757,155.70001568458974 26.398780388757586,162.90004943637177 20.958292542025447,164.70005604019389 17.072229797020555,169.20006933948025 15.517804697155952,172.35007592011243 15.906410973519087,176.40008107945323 17.849442346021533,181.8000821787864 16.683623522520065,186.75007738685235 16.683623522520065,188.10007511638105 18.238048622384667,190.8000693381764 27.953205486759543,197.10004943516105 29.507630586624146,197.55004767002538 34.170905880630016,197.55004767002538 34.94811843149364,202.50002522254363 36.891149803996086,205.65000804839656 47.383519219234586,203.40002054348588 49.32655059359968,202.50002522254363 51.65818824060261,199.80003815423697 58.26449491083622,198.90004209801555 59.81892000697553,198.0000458578579 62.15055765584111,194.85005757538602 63.31637647934258,191.25006821425632 62.927770206704736,189.00007337378338 59.43031373433769,184.50008025299758 58.653101183474064,182.70008172048256 58.653101183474064,178.20008218009025 62.15055765584111,166.95006326260045 62.15055765584111,164.2500544586219 59.43031373433769,158.85003189509735 57.87588863633573,156.6000205455348 54.37843216396868,155.2500131847337 46.99491294659674,155.2500131847337 41.94303137436509,154.35000804951414 35.336724704131484,155.2500131847337 32.22787450812757,157.05002290848643 31.062055684626102,159.75003611436114 29.119024312123656,161.55004400247708 20.569686269387603,164.70005604019389 18.238048622384667,168.30006704619154 16.295017248019576,173.2500773863867 16.295017248019576,175.05007977224886 18.238048622384667,182.25008197221905 18.238048622384667,184.50008025299758 17.072229797020555,189.00007337378338 18.626654896885157,191.25006821425632 26.787386663258076,195.30005603842437 32.616480784490705,196.20005282992497 33.39369333162904,197.55004767002538 34.55951215699315,202.950022906065 35.72533098049462,204.75001318426803 37.279756078496575,204.75001318426803 46.60630667023361,203.8500181371346 48.93794431909919,202.50002522254363 51.65818824060261,199.35004014987499 57.487282359972596,198.4500440005213 62.15055765584111,195.7500544572249 63.31637647934258,188.55007426813245 61.373345106840134,185.4000792428851 58.653101183474064,183.15008142171428 57.87588863633573,180.0000825454481 58.653101183474064,173.70007805200294 61.373345106840134,165.15005757566541 61.373345106840134,161.55004400247708 60.596132557839155,159.75003611436114 57.487282359972596,156.150018137414 55.54425098747015,154.8000106397085 49.32655059359968,155.2500131847337 34.170905880630016,154.35000804951414 31.062055684626102,156.6000205455348 26.787386663258076,162.45004767132923 21.735505094751716,164.70005604019389 17.849442346021533,168.30006704619154 15.517804697155952,172.35007592011243 15.517804697155952,177.30008172011003 17.849442346021533,183.15008142171428 17.849442346021533,189.00007337378338 19.015261169523,191.25006821425632 20.958292542025447,193.05006326269358 27.953205486759543,196.65005115559325 29.507630586624146,197.10004943516105 32.22787450812757,196.20005282992497 33.39369333162904,196.65005115559325 34.94811843149364,204.75001318426803 36.5025435294956,207.0 38.83418117649853,205.65000804839656" stroke="#4dd2ff" stroke-linecap="round" stroke-linejoin="round" stroke-width="0.5"><title>2023-07-23 1.6km</title></polyline><polyline fill="none" points="122.57377049326897,190.76343261264265 126.55737704969943,188.71325915679336 124.78688524663448,185.12545359507203 124.34426229447126,178.46237933449447 123.45901639387012,176.92474555782974 120.36065573617816,176.41220086393878 118.59016393497586,175.3871113145724 112.3934426214546,173.3369315895252 106.63934426382184,168.7240241523832 96.90163934417069,169.2365696313791 89.81967213004827,173.3369315895252 75.21311475336552,176.92474555782974 73.44262295030057,178.46237933449447 73.44262295030057,183.07527784071863 74.7704918012023,187.68817211454734 76.54098360612988,190.25088932784274 80.08196721225977,191.2759758476168 86.27868852205575,190.25088932784274 94.68852458894253,187.68817211454734 104.42622950859368,188.20071566058323 120.36065573617816,187.68817211454734 123.90163934603333,186.15054115932435 125.22950819507241,181.5376454750076 123.45901639387012,179.48746825708076 121.68852458894253,178.97492382256314 112.83606557175517,178.46237933449447 104.42622950859368,175.89965611463413 91.14754098281264,174.36202155658975 84.06557376869023,177.94983479566872 73.88524590060115,181.5376454750076 73.0,183.07527784071863 73.44262295030057,185.12545359507203 75.65573770552874,189.2258025999181 77.42622950859368,191.2759758476168 79.63934426382184,191.2759758476168 86.72131147421896,188.71325915679336 101.77049180306494,188.71325915679336 108.85245901718736,186.6630848632194 121.68852458894253,187.17562851402909 126.55737704969943,185.63799740280956 125.67213114723563,180.00001264037564 124.78688524663448,177.94983479566872 118.14754098281264,173.8494765968062 113.27868852391839,172.82438652822748 108.85245901718736,170.26166043477133 100.8852459024638,171.28675102815032 77.86885245889425,178.97492382256314 75.65573770552874,182.5627337708138 76.09836065582931,187.68817211454734 76.9836065582931,188.71325915679336 78.7540983594954,188.71325915679336 85.83606557361782,185.63799740280956 94.24590163864195,183.58782185567543 98.67213114909828,184.1003658217378 106.19672131165862,183.07527784071863 120.36065573617816,184.61290973424911 123.45901639387012,183.07527784071863 122.13114754110575,180.51255696918815 118.14754098281264,180.00001264037564 116.81967213004827,177.43729020282626 104.42622950859368,175.89965611463413 93.80327868834138,181.5376454750076 76.54098360612988,182.5627337708138 74.7704918012023,184.61290973424911 75.21311475336552,188.20071566058323 76.54098360612988,189.73834598995745 78.7540983594954,190.25088932784274 83.18032786808908,189.73834598995745 88.93442622944713,186.15054115932435 92.03278688527644,185.63799740280956 116.81967213004827,185.63799740280956 123.90163934603333,186.15054115932435 127.0,184.61290973424911 125.22950819507241,183.58782185567543" stroke="#4dd2ff" stroke-linecap="round" stroke-linejoin="round" stroke-width="0.5"><title>2023-07-22 1.1km</title></polyline><polyline fill="none" points="183.11199999973178,171.9961229255423 181.81599999964237,170.99563582940027 167.5599999986589,170.4953922079876 159.35199999809265,168.99466103035957 147.25599999912083,168.99466103035957 136.45600000023842,172.49636639514938 135.160000000149,174.49733976693824 134.72799999825656,175.9980692616664 135.5920000001788,180.50025499146432 138.61599999852479,188.00388869876042 140.77600000053644,189.5046140635386 149.41599999926984,191.00533896917477 151.57599999941885,190.5050973854959 153.73599999956787,187.5036468077451 155.89599999971688,186.50316287577152 164.96800000034273,187.00340486690402 174.47199999913573,188.50413053762168 181.81599999964237,187.00340486690402 185.2719999998808,185.50267873751 186.5679999999702,183.0014675022103 186.5679999999702,181.00049759447575 185.2719999998808,177.99904120713472 177.06399999931455,173.49685318395495 171.87999999895692,174.49733976693824 168.42400000058115,173.49685318395495 155.89599999971688,178.9995268736966 142.503999998793,176.99855533754453 139.48000000044703,177.49879829632118 139.48000000044703,180.00001233629882 140.34400000050664,184.00195214897394 141.6399999987334,187.5036468077451 143.3679999988526,188.00388869876042 152.0080000013113,188.00388869876042 158.4879999998957,186.00292083108798 165.40000000037253,186.50316287577152 172.31199999898672,188.00388869876042 177.49599999934435,187.5036468077451 183.11199999973178,187.5036468077451 186.13600000180304,186.50316287577152 186.5679999999702,184.50219439482316 187.0,180.50025499146432 185.7039999999106,173.99709650175646 183.54399999976158,173.49685318395495 173.17599999904633,175.4978261482902 164.96800000034273,172.49636639514938 135.160000000149,172.49636639514938 133.8640000000596,173.49685318395495 133.0,174.99758298322558 133.4320000000298,177.49879829632118 136.02399999834597,183.0014675022103 141.6399999987334,190.00485575012863 143.3679999988526,189.5046140635386 148.9840000011027,186.50316287577152 152.0080000013113,187.00340486690402 155.89599999971688,186.50316287577152 160.2160000000149,188.00388869876042 164.10399999842048,187.00340486690402 171.87999999895692,188.00388869876042 183.97599999979138,186.00292083108798 185.7039999999106,185.00243659177795 185.7039999999106,178.9995268736966 183.97599999979138,174.49733976693824 182.24800000153482,173.99709650175646 178.3600000012666,174.49733976693824 171.44800000078976,173.49685318395495 163.23999999836087,176.99855533754453 163.23999999836087,177.99904120713472 161.94399999827147,178.4992840657942 150.2800000011921,175.4978261482902 142.503999998793,175.4978261482902 141.2079999987036,175.9980692616664 140.34400000050664,177.99904120713472 140.77600000053644,186.50316287577152 142.0719999987632,188.00388869876042 148.55199999921024,189.5046140635386 153.30399999953806,187.5036468077451 159.35199999809265,187.5036468077451 164.53600000031292,187.5036468077451 171.44800000078976,189.00437232665718 174.47199999913573,188.50413053762168 184.84000000171363,184.50219439482316 185.7039999999106,183.0014675022103 185.7039999999106,178.9995268736966 183.97599999979138,174.99758298322558 181.81599999964237,173.99709650175646 168.42400000058115,175.4978261482902 159.35199999809265,174.99758298322558 153.73599999956787,173.49685318395495 143.3679999988526,173.49685318395495" stroke="#4dd2ff" stroke-linecap="round" stroke-linejoin="round" stroke-width="0.5"><title>2023-07-12 1.2km</title></polyline><polyline fill="none" points="51.880000000819564,251.0053504128009 56.20000000111759,251.50559230381623 63.54399999976158,250.50510847195983 65.7039999999106,249.0043823425658 66.5679999999702,247.00341345602646 66.1359999999404,244.00195859652013 61.81599999964237,234.49733943445608 59.22399999946356,233.49685213761404 51.015999998897314,233.49685213761404 42.37600000016391,229.99514498887584 27.687999999150634,227.49392406828701 19.47999999858439,229.4949009064585 14.72800000011921,233.49685213761404 13.432000000029802,235.9980700002052 13.432000000029802,240.00001593027264 15.592000000178814,249.0043823425658 17.320000000298023,250.50510847195983 24.23200000077486,252.50607593171299 29.415999999269843,250.50510847195983 35.03199999965727,250.00486648082733 49.28800000064075,250.50510847195983 60.08800000138581,250.00486648082733 62.247999999672174,249.50462443614379 63.54399999976158,245.50268625468016 60.95199999958277,237.99904337199405 59.22399999946356,236.49831342045218 51.44800000078976,237.99904337199405 42.808000000193715,234.99758300790563 26.824000000953674,234.99758300790563 16.02399999834597,236.99855678901076 13.432000000029802,238.4992865882814 13.432000000029802,240.50025894260034 16.455999998375773,249.50462443614379 17.75199999846518,250.50510847195983 22.07200000062585,251.0053504128009 30.71199999935925,248.00389799987897 45.831999998539686,249.50462443614379 61.81599999964237,248.50414019683376 62.68000000156462,248.00389799987897 63.11199999973178,246.5031711072661 62.247999999672174,237.49880010681227 60.95199999958277,235.4978265305981 50.58399999886751,236.99855678901076 38.919999999925494,235.4978265305981 28.12000000104308,235.9980700002052 18.61600000038743,235.4978265305981 14.296000000089407,236.49831342045218 13.0,238.4992865882814 14.72800000011921,245.00244375364855 16.02399999834597,246.5031711072661 21.2079999987036,250.50510847195983 28.98399999924004,250.00486648082733 35.463999999687076,248.50414019683376 49.28800000064075,250.50510847195983 55.768000001087785,249.0043823425658 62.68000000156462,249.50462443614379 64.83999999985099,248.50414019683376 65.27199999801815,246.00292870681733 63.11199999973178,239.4997728667222 60.08800000138581,235.9980700002052 55.33599999919534,234.99758300790563 46.69599999859929,235.9980700002052 38.919999999925494,234.49733943445608 32.87199999950826,236.99855678901076 25.528000000864267,236.99855678901076 16.02399999834597,238.999529753346 14.72800000011921,239.4997728667222 13.86399999819696,241.000501901377 14.72800000011921,246.00292870681733 17.320000000298023,250.00486648082733 19.47999999858439,250.00486648082733 25.09599999897182,247.50365575402975 28.12000000104308,247.00341345602646 31.143999999389052,245.50268625468016 34.59999999962747,245.00244375364855 44.10400000028312,248.50414019683376 53.175999999046326,250.50510847195983 64.83999999985099,251.0053504128009 66.1359999999404,250.00486648082733 67.0,248.50414019683376 67.0,246.5031711072661 63.11199999973178,237.49880010681227 61.81599999964237,235.9980700002052 58.35999999940395,234.99758300790563 49.71999999880791,236.99855678901076 39.35200000181794,235.9980700002052 37.62399999983609,236.49831342045218 35.03199999965727,238.4992865882814 16.88800000026822,238.999529753346 13.432000000029802,239.4997728667222 13.0,241.000501901377 15.592000000178814,249.0043823425658 19.047999998554587,252.0058341426775 22.503999998793006,252.0058341426775 26.824000000953674,250.00486648082733 32.440000001341105,249.0043823425658 37.19199999794364,249.0043823425658 44.536000000312924,250.50510847195983 46.69599999859929,250.00486648082733" stroke="#4dd2ff" stroke-linecap="round" stroke-linejoin="round" stroke-width="0.5"><title>2023-07-11 1.4km</title></polyline><polyline fill="none" points="123.01639344356954,248.20070618158206 123.45901639387012,249.22579207457602 125.67213115096092,247.68816315801814 126.55737705156207,245.6379905338399 126.55737705156207,242.5627300357446 123.01639344356954,231.799303479027 105.75409836322069,231.28675878513604 96.01639344356954,229.23657947778702 76.9836065582931,230.26166923576966 73.88524590432644,231.799303479027 73.0,234.36202617827803 74.32786885276437,243.0752735817805 76.09836065769196,246.15053376881406 78.31147541105747,247.68816315801814 98.67213114909828,249.73833494260907 103.98360656015575,249.22579207457602 113.27868852578104,250.76342052221298 119.03278688713908,250.76342052221298 124.78688524663448,249.22579207457602 126.11475409939885,247.1756200795062 126.11475409939885,244.61290391115472 124.34426229819655,236.41220339620486 122.57377049326897,232.824392716866 121.2459016405046,232.31184812402353 113.27868852578104,232.31184812402353 104.8688524607569,230.7742140358314 92.91803278774023,233.33693725569174 88.04918032698333,232.31184812402353 80.52459016442299,232.824392716866 74.32786885276437,234.36202617827803 73.0,236.9247475694865 74.77049180492759,241.53764278441668 77.42622951045632,245.6379905338399 79.63934426382184,247.68816315801814 82.29508196935058,248.71324915392324 87.6065573785454,248.20070618158206 92.91803278774023,246.15053376881406 101.32786885462701,244.61290391115472 107.52459016628563,246.15053376881406 114.16393442638218,245.12544724904 123.01639344356954,246.66307695070282 125.67213115096092,245.12544724904 126.11475409939885,243.0752735817805 124.78688524663448,235.89965916937217 124.34426229819655,234.8745705615729 122.13114754110575,233.33693725569174 114.16393442638218,234.8745705615729 105.31147541292012,233.8494817437604 102.65573770739138,232.31184812402353 93.36065573990345,234.36202617827803 88.04918032698333,231.28675878513604 80.08196721412241,230.7742140358314 77.42622951045632,231.799303479027 75.65573770552874,232.824392716866 74.77049180492759,236.41220339620486 75.21311475522816,241.53764278441668 76.9836065582931,246.66307695070282 82.29508196935058,250.25087775941938 86.27868852578104,249.22579207457602 91.14754098467529,243.58781707799062 94.2459016405046,242.5627300357446 123.90163934603333,247.68816315801814 125.67213115096092,246.15053376881406 126.55737705156207,244.10036052111536 124.34426229819655,236.41220339620486 123.01639344356954,234.8745705615729 117.26229508407414,232.824392716866 113.27868852578104,234.36202617827803 108.85245901905,233.33693725569174 104.8688524607569,234.8745705615729 91.14754098467529,235.38711489038542 80.52459016442299,233.8494817437604 76.9836065582931,235.38711489038542 76.54098360612988,238.97492374293506 77.8688524607569,246.66307695070282 80.08196721412241,247.68816315801814 87.6065573785454,246.66307695070282 95.13114754296839,247.68816315801814 105.75409836322069,245.12544724904 113.72131147608161,245.6379905338399 121.2459016405046,247.1756200795062 125.2295081987977,246.66307695070282 127.0,244.61290391115472 126.55737705156207,240.51255532400683 123.45901639387012,235.89965916937217 119.91803278774023,233.8494817437604 110.18032787181437,234.8745705615729 107.52459016628563,233.33693725569174 99.11475409939885,231.799303479027 96.45901639387012,232.31184812402353 92.91803278774023,234.36202617827803 86.72131147608161,232.31184812402353 80.96721311658621,231.799303479027" stroke="#4dd2ff" stroke-linecap="round" stroke-linejoin="round" stroke-width="0.5"><title>2023-07-10 1.3km</title></polyline></svg>