<?xml version="1.0" encoding="utf-8" ?>
<svg baseProfile="full" height="300mm" version="1.1" viewBox="0,0,200,300" width="200mm" xmlns="http://www.w3.org/2000/svg" xmlns:ev="http://www.w3.org/2001/xml-events" xmlns:xlink="http://www.w3.org/1999/xlink"><defs /><rect fill="#222222" height="300" width="200" x="0" y="0" /><text fill="#FFFFFF" style="font-size:12px; font-family:Arial; font-weight:bold;" x="10" y="20">Over 1km Runs</text><text fill="#FFFFFF" style="font-size:4px; font-family:Arial" x="10" y="280">ATHLETE</text><text fill="#FFFFFF" style="font-size:9px; font-family:Arial" x="10" y="290">Andy Chen</text><text fill="#FFFFFF" style="font-size:4px; font-family:Arial" x="120" y="280">STATISTICS</text><text fill="#FFFFFF" style="font-size:3px; font-family:Arial" x="120" y="285">Number: 9</text><text fill="#FFFFFF" style="font-size:3px; font-family:Arial" x="120" y="290">Weekly: 2.2</text><text fill="#FFFFFF" style="font-size:3px; font-family:Arial" x="141" y="285">Total: 12.9 km</text><text fill="#FFFFFF" style="font-size:3px; font-family:Arial" x="141" y="290">Avg: 1.4 km</text><text fill="#FFFFFF" style="font-size:3px; font-family:Arial" x="167" y="285">Min: 1.0 km</text><text fill="#FFFFFF" style="font-size:3px; font-family:Arial" x="167" y="290">Max: 1.9 km</text><polyline fill="none" points="45.83200000040233,69.75474395509809 51.015999998897314,73.25643575983122 56.20000000111759,70.75522758299485 65.27200000174344,69.25450206408277 66.1359999999404,68.2540181321092 67.0,65.75280740531161 65.70399999804795,59.249653552658856 61.384000001475215,54.247221651952714 59.2240000013262,52.746491086203605 41.08000000193715,50.24527246085927 31.144000001251698,47.243808425497264 24.23200000077486,46.74356424016878 19.912000000476837,48.24429664062336 13.864000003784895,52.746491086203605 13.0,55.24770844075829 13.864000003784895,61.25062488671392 14.728000001981854,63.75183790596202 18.184000000357628,67.75377608742565 22.072000002488494,68.2540181321092 27.256000002846122,68.75426012324169 45.40000000037253,66.75329184811562 61.384000001475215,68.2540181321092 63.54399999976158,66.75329184811562 64.83999999985099,63.75183790596202 65.70399999804795,59.249653552658856 63.54399999976158,55.74795175855979 60.52000000141561,54.247221651952714 51.44800000078976,54.7474650721997 44.96800000220537,53.74697818234563 34.600000001490116,55.74795175855979 26.392000000923872,55.74795175855979 18.616000002250075,53.74697818234563 16.88800000026822,53.74697818234563 14.296000000089407,55.74795175855979 13.864000003784895,57.24868140509352 15.592000000178814,65.25256510730833 18.184000000357628,68.2540181321092 21.640000000596046,69.75474395509809 25.528000000864267,69.75474395509809 30.280000001192093,67.75377608742565 34.600000001490116,67.25353399384767 62.68000000156462,67.75377608742565 64.83999999985099,66.25304965116084 65.70399999804795,61.25062488671392 63.97600000165403,57.74892451846972 60.95199999958277,55.74795175855979 58.35999999940395,56.74843824002892 55.33600000105798,56.24819502327591 52.312000000849366,57.24868140509352 38.48799999989569,57.74892451846972 26.824000000953674,57.74892451846972 17.75200000219047,56.24819502327591 14.296000000089407,57.24868140509352 13.432000001892447,58.7494105938822 13.864000003784895,61.25062488671392 16.45600000023842,67.25353399384767 18.184000000357628,69.25450206408277 32.0080000013113,67.25353399384767 41.51200000010431,67.75377608742565 48.85600000061095,67.25353399384767 61.81599999964237,68.75426012324169 65.70399999804795,66.75329184811562 66.56800000183284,61.75086759310216 63.97600000165403,57.24868140509352 60.08799999952316,56.74843824002892 31.5760000012815,61.25062488671392 26.824000000953674,61.25062488671392 19.912000000476837,58.2491675815545 18.184000000357628,58.2491675815545 17.32000000216067,59.749896463472396 17.75200000219047,64.25208035809919 19.912000000476837,68.2540181321092 21.640000000596046,69.25450206408277 34.600000001490116,66.25304965116084 46.696000000461936,66.75329184811562 51.015999998897314,66.25304965116084 63.54399999976158,66.25304965116084 64.40800000168383,65.25256510730833 65.70399999804795,61.25062488671392 65.27200000174344,57.24868140509352 63.97600000165403,55.74795175855979 62.247999999672174,55.24770844075829 54.47199999913573,55.24770844075829 51.015999998897314,54.247221651952714 46.264000000432134,54.7474650721997 39.784000001847744,54.7474650721997 38.056000001728535,55.24770844075829 22.072000002488494,54.7474650721997 19.048000002279878,54.7474650721997 14.728000001981854,57.24868140509352 14.296000000089407,59.249653552658856 18.184000000357628,68.75426012324169 20.776000002399087,70.25498579395935 26.824000000953674,70.75522758299485 30.712000001221895,70.25498579395935 47.560000002384186,71.25546931987628 57.928000001236796,69.75474395509809 65.70399999804795,65.75280740531161 66.1359999999404,62.75135285081342 63.97600000165403,59.249653552658856 63.112000001594424,56.24819502327591 56.63200000114739,54.247221651952714 50.152000000700355,54.247221651952714 44.10400000028312,52.746491086203605 34.600000001490116,52.746491086203605 25.09600000269711,51.746003789361566 16.88800000026822,52.746491086203605 13.432000001892447,56.24819502327591 13.432000001892447,58.7494105938822 16.02400000207126,65.25256510730833 18.184000000357628,68.75426012324169 19.912000000476837,70.25498579395935 26.392000000923872,70.75522758299485 30.280000001192093,72.75619422551244 35.46400000154972,72.25595264183357" stroke="#4dd2ff" stroke-linecap="round" stroke-linejoin="round" stroke-width="0.5"><title>2023-07-31 1.6km</title></polyline><polyline fill="none" points="126.578125,60.73280109744519 125.73437499813735,57.80168865527958 123.203125,56.8246507756412 112.234375,55.35909358225763 106.74999999813735,53.40501662995666 99.57812499813735,52.42797785392031 92.40624999813735,47.05426103249192 85.65625,45.588700853288174 81.859375,45.1001806948334 80.59374999813735,46.07722096238285 75.109375,51.939458393491805 73.84374999813735,56.33613176178187 73.0,59.75576381571591 74.26562499813735,63.175393430516124 77.64062499813735,70.50316296331584 79.75,72.45723294606432 98.734375,74.89981930470094 112.65625,72.94575031800196 120.25,73.43426763918251 126.578125,70.99168053269386 127.0,69.52612767228857 126.15624999813735,62.19835664657876 124.046875,59.2672450998798 120.671875,57.80168865527958 115.609375,57.3131697406061 111.39062499813735,57.80168865527958 104.640625,57.3131697406061 99.15624999813735,58.2902075201273 93.671875,56.8246507756412 78.484375,55.84761269716546 75.53124999813735,56.33613176178187 74.26562499813735,57.80168865527958 73.42187499813735,60.73280109744519 76.37499999813735,68.5490921814926 79.32812499813735,70.99168053269386 83.546875,71.9687155247666 86.078125,71.48019805317745 100.0,71.9687155247666 107.59374999813735,73.92278491146863 116.875,74.41130213346332 124.89062499813735,72.45723294606432 126.15624999813735,71.48019805317745 126.578125,69.52612767228857 127.0,65.1294664000161 126.15624999813735,59.2672450998798 125.3125,58.2902075201273 121.09374999813735,56.8246507756412 111.81249999813735,56.33613176178187 105.484375,56.8246507756412 95.78125,59.75576381571591 90.296875,57.3131697406061 80.59374999813735,56.33613176178187 75.953125,57.80168865527958 73.84374999813735,59.75576381571591 74.26562499813735,62.68687506299466 75.953125,68.06057436298579 81.01562499813735,72.94575031800196 100.421875,73.43426763918251 115.18749999813735,74.41130213346332 122.35937499813735,73.43426763918251 125.3125,70.99168053269386 126.15624999813735,67.08353857556358 125.73437499813735,60.2442824812606 125.3125,58.778726333752275 118.140625,56.8246507756412 113.078125,57.3131697406061 108.015625,56.8246507756412 97.04687499813735,58.778726333752275 90.71874999813735,57.80168865527958" stroke="#4dd2ff" stroke-linecap="round" stroke-linejoin="round" stroke-width="0.5"><title>2023-07-26 1.0km</title></polyline><polyline fill="none" points="168.3233082704246,67.52245746273547 176.44360901974142,69.87321822484955 184.15789473615587,67.99260970996693 186.1879699230194,66.11200042907149 187.0,63.2910850699991 186.1879699230194,58.119402434211224 184.15789473615587,55.29848218895495 182.53383458591998,53.88802141929045 166.29323308356106,48.24617402860895 161.8270676676184,48.24617402860895 147.61654135212302,51.06709858588874 141.12030075117946,49.656636523548514 137.87218045070767,50.12679059058428 134.2180451117456,53.41786773269996 133.40601503662765,56.23878912720829 136.65413533896208,64.70154296560213 138.68421052582562,67.52245746273547 141.52631578966975,68.93291406333447 144.77443609014153,68.93291406333447 148.83458646573126,65.64184798812494 154.11278195492923,64.23139038262889 164.66917293146253,67.52245746273547 178.8796992469579,68.93291406333447 183.34586465917528,67.52245746273547 184.15789473615587,65.17169550154358 184.56390977464616,61.41047387337312 181.72180451080203,53.88802141929045 178.8796992469579,53.41786773269996 170.3533834591508,53.41786773269996 163.04511278122663,52.0074063888751 156.95488721691072,53.41786773269996 146.80451127700508,53.88802141929045 138.27819548919797,52.477560218889266 133.8120300732553,53.88802141929045 133.40601503662765,56.23878912720829 137.06015037372708,65.64184798812494 139.90225563943386,67.99260970996693 147.21052631549537,70.34337023319677 149.6466165408492,70.34337023319677 153.70676691643894,69.4030661676079 158.57894736900926,70.34337023319677 162.63909774459898,69.87321822484955 171.5714285708964,71.75382597139105 174.81954887136817,70.34337023319677 178.06766917183995,69.87321822484955 181.72180451080203,67.99260970996693 184.15789473615587,64.70154296560213 184.56390977464616,59.05970879783854 182.12781954929233,53.88802141929045 180.0977443587035,53.41786773269996 168.72932330705225,52.477560218889266 157.36090225540102,53.41786773269996 151.6766917295754,50.59694461384788 143.5563909765333,48.24617402860895 140.3082706760615,48.716328241396695 135.8421052619815,50.59694461384788 133.8120300732553,52.947713998146355 133.40601503662765,54.35817505652085 135.43609022535384,60.47016798751429 136.65413533896208,63.2910850699991 139.90225563943386,67.0523051652126 143.9624060150236,69.4030661676079 146.80451127700508,66.58215282158926 157.36090225540102,65.17169550154358 171.1654135324061,68.93291406333447 175.63157894648612,67.52245746273547 180.90977443568408,67.99260970996693 183.34586465917528,66.58215282158926 183.75187969766557,65.17169550154358 182.93984962441027,59.05970879783854 181.72180451080203,56.23878912720829 179.69172932207584,54.35817505652085 178.06766917183995,54.82832864718512 163.45112781971693,52.477560218889266 160.6090225558728,52.477560218889266 156.14285714179277,54.35817505652085 153.3007518798113,54.35817505652085 150.45864661596715,52.477560218889266 141.9323308262974,51.06709858588874 137.87218045070767,51.5372525122948 135.03007518686354,52.477560218889266 133.40601503662765,56.23878912720829 134.2180451117456,59.05970879783854 139.49624060094357,66.58215282158926 142.744360903278,68.93291406333447 144.77443609014153,68.93291406333447 156.95488721691072,67.52245746273547 162.2330827061087,67.52245746273547 173.60150375962257,70.34337023319677 181.72180451080203,69.4030661676079 184.56390977464616,67.0523051652126 185.3759398497641,62.82093234313652 185.3759398497641,58.119402434211224 184.56390977464616,55.29848218895495 182.53383458591998,53.88802141929045 177.6616541352123,52.477560218889266 167.105263158679,51.06709858588874 164.26315789483488,51.06709858588874 158.17293232865632,52.477560218889266 144.77443609014153,51.5372525122948 137.46616541221738,52.477560218889266 134.2180451117456,53.41786773269996 133.8120300732553,55.76863568322733 135.03007518686354,59.529861909803 137.87218045070767,64.70154296560213 139.49624060094357,66.58215282158926 148.4285714291036,67.52245746273547 156.95488721691072,67.52245746273547 172.78947368077934,69.87321822484955 182.53383458591998,69.4030661676079 184.56390977464616,67.52245746273547 185.3759398497641,66.11200042907149 185.7819548845291,62.35077956691384 184.56390977464616,55.29848218895495 184.15789473615587,53.88802141929045 182.93984962441027,52.947713998146355 175.22556390985847,51.5372525122948 160.6090225558728,51.5372525122948 154.92481203004718,52.477560218889266 149.6466165408492,50.59694461384788 142.3383458647877,50.59694461384788 135.43609022535384,52.0074063888751 133.8120300732553,52.477560218889266 133.0,54.82832864718512 133.8120300732553,58.119402434211224 135.8421052619815,62.82093234313652 139.09022556431592,66.58215282158926 142.744360903278,67.99260970996693 152.48872180469334,69.4030661676079 158.98496240749955,68.46276191016659 173.19548872113228,70.81352219451219 180.90977443568408,69.4030661676079 184.15789473615587,67.52245746273547 185.3759398497641,65.64184798812494 185.7819548845291,63.76123775029555" stroke="#4dd2ff" stroke-linecap="round" stroke-linejoin="round" stroke-width="0.5"><title>2023-07-25 1.9km</title></polyline><polyline fill="none" points="65.37593984976411,159.6381397759542 66.5939849615097,157.75753087783232 67.0,155.40676867822185 65.78195488639176,147.88432158948854 64.96992481313646,145.53355435933918 63.34586466103792,144.5932471314445 55.63157894834876,144.12309344485402 43.85714285634458,140.36186223570257 38.17293233051896,139.8917081193067 31.676691729575396,142.24247822444886 21.120300751179457,141.30217032553628 14.218045111745596,144.5932471314445 13.0,147.88432158948854 13.812030075117946,151.17539369966835 16.248120300471783,155.87692121369764 18.278195487335324,158.2276831753552 26.80451127886772,160.10829188022763 31.676691729575396,159.6381397759542 40.6090225558728,158.2276831753552 61.31578947417438,160.10829188022763 65.37593984976411,158.2276831753552 66.1879699267447,157.28737853420898 65.78195488639176,153.99631078215316 64.56390977464616,146.94401483982801 60.503759399056435,145.0634007686749 49.947368420660496,142.7126321005635 17.466165414080024,145.0634007686749 14.624060148373246,146.003707901109 13.812030075117946,147.88432158948854 18.68421052582562,157.28737853420898 21.120300751179457,158.2276831753552 23.55639097839594,158.69783542258665 38.57894736714661,155.87692121369764 45.07518796995282,158.2276831753552 54.007518796250224,159.6381397759542 62.12781954742968,159.1679876227863 64.56390977464616,158.69783542258665 65.37593984976411,157.28737853420898 66.1879699267447,153.99631078215316 65.78195488639176,148.3544748914428 63.75187969952822,146.003707901109 60.503759399056435,145.0634007686749 43.85714285634458,143.65293971030042 30.052631579339504,144.5932471314445 19.496240600943565,143.65293971030042 14.624060148373246,144.5932471314445 13.812030075117946,146.003707901109 13.40601503662765,150.23508762195706 16.654135337099433,155.40676867822185 19.496240600943565,158.2276831753552 25.992481203749776,159.6381397759542 32.082706766203046,157.28737853420898 56.84962406009436,158.2276831753552 63.75187969952822,157.28737853420898 64.96992481313646,156.34707370074466 65.78195488639176,151.6455466663465 64.96992481313646,145.0634007686749 64.15789473615587,144.12309344485402 54.81954887136817,142.24247822444886 49.13533834554255,141.7723242980428 34.11278195492923,143.65293971030042 17.466165414080024,144.12309344485402 14.218045111745596,145.53355435933918 13.812030075117946,147.88432158948854 18.278195487335324,156.34707370074466 22.744360901415348,159.1679876227863 37.36090225726366,155.87692121369764 41.01503759436309,156.34707370074466 44.263157894834876,158.69783542258665 46.69924812018871,159.1679876227863 58.0676691737026,158.2276831753552 62.53383458778262,158.69783542258665 65.78195488639176,157.28737853420898 66.1879699267447,153.99631078215316 64.96992481313646,148.82462814636528 62.93984962627292,147.88432158948854 54.81954887136817,148.3544748914428 48.323308270424604,146.4738613953814 44.66917293332517,146.4738613953814 19.090225564315915,144.12309344485402 15.030075186863542,145.0634007686749 13.812030075117946,146.003707901109 13.812030075117946,147.88432158948854 15.030075186863542,151.17539369966835 18.278195487335324,157.28737853420898 22.338345864787698,159.6381397759542 25.58646616525948,160.10829188022763 28.834586465731263,159.1679876227863 34.11278195492923,154.9366160952486 38.17293233051896,153.99631078215316 45.48120300658047,154.9366160952486 48.7293233089149,155.87692121369764 63.34586466103792,158.2276831753552 66.5939849615097,157.28737853420898 67.0,154.9366160952486 64.15789473615587,148.82462814636528 58.0676691737026,145.53355435933918 47.10526315867901,144.12309344485402 33.70676691830158,144.12309344485402 20.30827067606151,142.7126321005635 14.624060148373246,144.5932471314445 13.812030075117946,145.53355435933918 13.40601503662765,148.3544748914428 16.248120300471783,154.46646346291527" stroke="#4dd2ff" stroke-linecap="round" stroke-linejoin="round" stroke-width="0.5"><title>2023-07-24 1.8km</title></polyline><polyline fill="none" points="112.82400706410408,168.90004209801555 117.0986760854721,168.90004209801555 119.43031373433769,168.0000458578579 120.98473883233964,166.65005115559325 124.48219530470669,160.35007041646168 123.31637647934258,156.75007738685235 118.65310118347406,150.45008252328262 118.26449491083622,148.65008233953267 119.81892000697553,141.90007511759177 122.53916393220425,134.70005604019389 122.92777020670474,131.1000420982018 120.59613255783916,127.05002290848643 115.54425098747015,123.0 113.6012196149677,123.0 109.32655059359968,124.35000804951414 99.22278745286167,123.45000272989273 94.55951215699315,124.35000804951414 88.73041803762317,130.65004015015438 81.73550509475172,134.2500544586219 77.84944234602153,137.85006583062932 76.29501724801958,141.00007337424904 76.29501724801958,145.95008068857715 78.62665489688516,151.8000821787864 78.23804862238467,158.10007511638105 79.015261169523,161.70006704563275 82.12411136738956,164.4000590648502 86.39878038875759,167.10004943516105 90.28484313562512,168.0000458578579 93.39369333162904,166.65005115559325 94.94811843149364,173.40002054348588 96.89114980399609,173.8500181371346 105.05188157223165,172.950022906065 111.65818824060261,169.80003815423697 115.54425098747015,169.35004014987499 119.43031373433769,167.55004767002538 122.15055765584111,163.5000619092025 123.31637647934258,159.45007243333384 122.53916393220425,156.75007738685235 118.65310118347406,153.60008107870817 117.87588863633573,150.0000825454481 118.65310118347406,143.70007805200294 121.76195138320327,136.5000619101338 122.15055765584111,132.0000458592549 120.20752628333867,127.95002749375999 115.54425098747015,124.80001063970849 112.43540079146624,124.35000804951414 103.10885019786656,125.25001318473369 98.44557490199804,123.90000541321933 95.33672470413148,124.35000804951414 92.22787450812757,125.70001568458974 86.39878038875759,132.90004943637177 80.95829254202545,134.70005604019389 77.07222979702055,139.20006933948025 75.51780469715595,142.35007592011243 75.90641097351909,146.40008107945323 77.84944234602153,151.8000821787864 76.68362352252007,156.75007738685235 76.68362352252007,158.10007511638105 78.23804862238467,160.8000693381764 87.95320548675954,167.10004943516105 89.50763058662415,167.55004767002538 94.17090588063002,167.55004767002538 94.94811843149364,172.50002522254363 96.89114980399609,175.65000804839656 107.38351921923459,173.40002054348588 109.32655059359968,172.50002522254363 111.65818824060261,169.80003815423697 118.26449491083622,168.90004209801555 119.81892000697553,168.0000458578579 122.15055765584111,164.85005757538602 123.31637647934258,161.25006821425632 122.92777020670474,159.00007337378338 119.43031373433769,154.50008025299758 118.65310118347406,152.70008172048256 118.65310118347406,148.20008218009025 122.15055765584111,136.95006326260045 122.15055765584111,134.2500544586219 119.43031373433769,128.85003189509735 117.87588863633573,126.60002054553479 114.37843216396868,125.25001318473369 106.99491294659674,125.25001318473369 101.94303137436509,124.35000804951414 95.33672470413148,125.25001318473369 92.22787450812757,127.05002290848643 91.0620556846261,129.75003611436114 89.11902431212366,131.55004400247708 80.5696862693876,134.70005604019389 78.23804862238467,138.30006704619154 76.29501724801958,143.2500773863867 76.29501724801958,145.05007977224886 78.23804862238467,152.25008197221905 78.23804862238467,154.50008025299758 77.07222979702055,159.00007337378338 78.62665489688516,161.25006821425632 86.78738666325808,165.30005603842437 92.6164807844907,166.20005282992497 93.39369333162904,167.55004767002538 94.55951215699315,172.950022906065 95.72533098049462,174.75001318426803 97.27975607849658,174.75001318426803 106.60630667023361,173.8500181371346 108.93794431909919,172.50002522254363 111.65818824060261,169.35004014987499 117.4872823599726,168.4500440005213 122.15055765584111,165.7500544572249 123.31637647934258,158.55007426813245 121.37334510684013,155.4000792428851 118.65310118347406,153.15008142171428 117.87588863633573,150.0000825454481 118.65310118347406,143.70007805200294 121.37334510684013,135.15005757566541 121.37334510684013,131.55004400247708 120.59613255783916,129.75003611436114 117.4872823599726,126.15001813741401 115.54425098747015,124.80001063970849 109.32655059359968,125.25001318473369 94.17090588063002,124.35000804951414 91.0620556846261,126.60002054553479 86.78738666325808,132.45004767132923 81.73550509475172,134.70005604019389 77.84944234602153,138.30006704619154 75.51780469715595,142.35007592011243 75.51780469715595,147.30008172011003 77.84944234602153,153.15008142171428 77.84944234602153,159.00007337378338 79.015261169523,161.25006821425632 80.95829254202545,163.05006326269358 87.95320548675954,166.65005115559325 89.50763058662415,167.10004943516105 92.22787450812757,166.20005282992497 93.39369333162904,166.65005115559325 94.94811843149364,174.75001318426803 96.5025435294956,177.0 98.83418117649853,175.65000804839656" stroke="#4dd2ff" stroke-linecap="round" stroke-linejoin="round" stroke-width="0.5"><title>2023-07-23 1.6km</title></polyline><polyline fill="none" points="182.57377049326897,160.76343261264265 186.55737704969943,158.71325915679336 184.78688524663448,155.12545359507203 184.34426229447126,148.46237933449447 183.45901639387012,146.92474555782974 180.36065573617816,146.41220086393878 178.59016393497586,145.3871113145724 172.3934426214546,143.3369315895252 166.63934426382184,138.7240241523832 156.9016393441707,139.2365696313791 149.81967213004827,143.3369315895252 135.21311475336552,146.92474555782974 133.44262295030057,148.46237933449447 133.44262295030057,153.07527784071863 134.7704918012023,157.68817211454734 136.54098360612988,160.25088932784274 140.08196721225977,161.2759758476168 146.27868852205575,160.25088932784274 154.68852458894253,157.68817211454734 164.42622950859368,158.20071566058323 180.36065573617816,157.68817211454734 183.90163934603333,156.15054115932435 185.2295081950724,151.5376454750076 183.45901639387012,149.48746825708076 181.68852458894253,148.97492382256314 172.83606557175517,148.46237933449447 164.42622950859368,145.89965611463413 151.14754098281264,144.36202155658975 144.06557376869023,147.94983479566872 133.88524590060115,151.5376454750076 133.0,153.07527784071863 133.44262295030057,155.12545359507203 135.65573770552874,159.2258025999181 137.42622950859368,161.2759758476168 139.63934426382184,161.2759758476168 146.72131147421896,158.71325915679336 161.77049180306494,158.71325915679336 168.85245901718736,156.6630848632194 181.68852458894253,157.17562851402909 186.55737704969943,155.63799740280956 185.67213114723563,150.00001264037564 184.78688524663448,147.94983479566872 178.14754098281264,143.8494765968062 173.2786885239184,142.82438652822748 168.85245901718736,140.26166043477133 160.8852459024638,141.28675102815032 137.86885245889425,148.97492382256314 135.65573770552874,152.5627337708138 136.0983606558293,157.68817211454734 136.9836065582931,158.71325915679336 138.7540983594954,158.71325915679336 145.83606557361782,155.63799740280956 154.24590163864195,153.58782185567543 158.67213114909828,154.1003658217378 166.19672131165862,153.07527784071863 180.36065573617816,154.61290973424911 183.45901639387012,153.07527784071863 182.13114754110575,150.51255696918815 178.14754098281264,150.00001264037564 176.81967213004827,147.43729020282626 164.42622950859368,145.89965611463413 153.80327868834138,151.5376454750076 136.54098360612988,152.5627337708138 134.7704918012023,154.61290973424911 135.21311475336552,158.20071566058323 136.54098360612988,159.73834598995745 138.7540983594954,160.25088932784274 143.18032786808908,159.73834598995745 148.93442622944713,156.15054115932435 152.03278688527644,155.63799740280956 176.81967213004827,155.63799740280956 183.90163934603333,156.15054115932435 187.0,154.61290973424911 185.2295081950724,153.58782185567543" stroke="#4dd2ff" stroke-linecap="round" stroke-linejoin="round" stroke-width="0.5"><title>2023-07-22 1.1km</title></polyline><polyline fill="none" points="63.11199999973178,231.9961229255423 61.81599999964237,230.99563582940027 47.559999998658895,230.4953922079876 39.35199999809265,228.99466103035957 27.25599999912083,228.99466103035957 16.45600000023842,232.49636639514938 15.160000000149012,234.49733976693824 14.727999998256564,235.9980692616664 15.592000000178814,240.50025499146432 18.615999998524785,248.00388869876042 20.776000000536442,249.5046140635386 29.415999999269843,251.00533896917477 31.575999999418855,250.5050973854959 33.735999999567866,247.5036468077451 35.89599999971688,246.50316287577152 44.96800000034273,247.00340486690402 54.47199999913573,248.50413053762168 61.81599999964237,247.00340486690402 65.27199999988079,245.50267873751 66.5679999999702,243.0014675022103 66.5679999999702,241.00049759447575 65.27199999988079,237.99904120713472 57.06399999931455,233.49685318395495 51.87999999895692,234.49733976693824 48.424000000581145,233.49685318395495 35.89599999971688,238.9995268736966 22.503999998793006,236.99855533754453 19.480000000447035,237.49879829632118 19.480000000447035,240.00001233629882 20.34400000050664,244.00195214897394 21.6399999987334,247.5036468077451 23.36799999885261,248.00388869876042 32.0080000013113,248.00388869876042 38.48799999989569,246.00292083108798 45.40000000037253,246.50316287577152 52.31199999898672,248.00388869876042 57.49599999934435,247.5036468077451 63.11199999973178,247.5036468077451 66.13600000180304,246.50316287577152 66.5679999999702,244.50219439482316 67.0,240.50025499146432 65.7039999999106,233.99709650175646 63.54399999976158,233.49685318395495 53.175999999046326,235.4978261482902 44.96800000034273,232.49636639514938 15.160000000149012,232.49636639514938 13.864000000059605,233.49685318395495 13.0,234.99758298322558 13.432000000029802,237.49879829632118 16.02399999834597,243.0014675022103 21.6399999987334,250.00485575012863 23.36799999885261,249.5046140635386 28.984000001102686,246.50316287577152 32.0080000013113,247.00340486690402 35.89599999971688,246.50316287577152 40.2160000000149,248.00388869876042 44.10399999842048,247.00340486690402 51.87999999895692,248.00388869876042 63.975999999791384,246.00292083108798 65.7039999999106,245.00243659177795 65.7039999999106,238.9995268736966 63.975999999791384,234.49733976693824 62.24800000153482,233.99709650175646 58.3600000012666,234.49733976693824 51.44800000078976,233.49685318395495 43.23999999836087,236.99855533754453 43.23999999836087,237.99904120713472 41.943999998271465,238.4992840657942 30.280000001192093,235.4978261482902 22.503999998793006,235.4978261482902 21.2079999987036,235.9980692616664 20.34400000050664,237.99904120713472 20.776000000536442,246.50316287577152 22.071999998763204,248.00388869876042 28.55199999921024,249.5046140635386 33.303999999538064,247.5036468077451 39.35199999809265,247.5036468077451 44.536000000312924,247.5036468077451 51.44800000078976,249.00437232665718 54.47199999913573,248.50413053762168 64.84000000171363,244.50219439482316 65.7039999999106,243.0014675022103 65.7039999999106,238.9995268736966 63.975999999791384,234.99758298322558 61.81599999964237,233.99709650175646 48.424000000581145,235.4978261482902 39.35199999809265,234.99758298322558 33.735999999567866,233.49685318395495 23.36799999885261,233.49685318395495" stroke="#4dd2ff" stroke-linecap="round" stroke-linejoin="round" stroke-width="0.5"><title>2023-07-12 1.2km</title></polyline><polyline fill="none" points="111.88000000081956,251.0053504128009 116.20000000111759,251.50559230381623 123.54399999976158,250.50510847195983 125.7039999999106,249.0043823425658 126.5679999999702,247.00341345602646 126.1359999999404,244.00195859652013 121.81599999964237,234.49733943445608 119.22399999946356,233.49685213761404 111.01599999889731,233.49685213761404 102.37600000016391,229.99514498887584 87.68799999915063,227.49392406828701 79.47999999858439,229.4949009064585 74.72800000011921,233.49685213761404 73.4320000000298,235.9980700002052 73.4320000000298,240.00001593027264 75.59200000017881,249.0043823425658 77.32000000029802,250.50510847195983 84.23200000077486,252.50607593171299 89.41599999926984,250.50510847195983 95.03199999965727,250.00486648082733 109.28800000064075,250.50510847195983 120.08800000138581,250.00486648082733 122.24799999967217,249.50462443614379 123.54399999976158,245.50268625468016 120.95199999958277,237.99904337199405 119.22399999946356,236.49831342045218 111.44800000078976,237.99904337199405 102.80800000019372,234.99758300790563 86.82400000095367,234.99758300790563 76.02399999834597,236.99855678901076 73.4320000000298,238.4992865882814 73.4320000000298,240.50025894260034 76.45599999837577,249.50462443614379 77.75199999846518,250.50510847195983 82.07200000062585,251.0053504128009 90.71199999935925,248.00389799987897 105.83199999853969,249.50462443614379 121.81599999964237,248.50414019683376 122.68000000156462,248.00389799987897 123.11199999973178,246.5031711072661 122.24799999967217,237.49880010681227 120.95199999958277,235.4978265305981 110.58399999886751,236.99855678901076 98.9199999999255,235.4978265305981 88.12000000104308,235.9980700002052 78.61600000038743,235.4978265305981 74.2960000000894,236.49831342045218 73.0,238.4992865882814 74.72800000011921,245.00244375364855 76.02399999834597,246.5031711072661 81.2079999987036,250.50510847195983 88.98399999924004,250.00486648082733 95.46399999968708,248.50414019683376 109.28800000064075,250.50510847195983 115.76800000108778,249.0043823425658 122.68000000156462,249.50462443614379 124.83999999985099,248.50414019683376 125.27199999801815,246.00292870681733 123.11199999973178,239.4997728667222 120.08800000138581,235.9980700002052 115.33599999919534,234.99758300790563 106.69599999859929,235.9980700002052 98.9199999999255,234.49733943445608 92.87199999950826,236.99855678901076 85.52800000086427,236.99855678901076 76.02399999834597,238.999529753346 74.72800000011921,239.4997728667222 73.86399999819696,241.000501901377 74.72800000011921,246.00292870681733 77.32000000029802,250.00486648082733 79.47999999858439,250.00486648082733 85.09599999897182,247.50365575402975 88.12000000104308,247.00341345602646 91.14399999938905,245.50268625468016 94.59999999962747,245.00244375364855 104.10400000028312,248.50414019683376 113.17599999904633,250.50510847195983 124.83999999985099,251.0053504128009 126.1359999999404,250.00486648082733 127.0,248.50414019683376 127.0,246.5031711072661 123.11199999973178,237.49880010681227 121.81599999964237,235.9980700002052 118.35999999940395,234.99758300790563 109.7199999988079,236.99855678901076 99.35200000181794,235.9980700002052 97.62399999983609,236.49831342045218 95.03199999965727,238.4992865882814 76.88800000026822,238.999529753346 73.4320000000298,239.4997728667222 73.0,241.000501901377 75.59200000017881,249.0043823425658 79.04799999855459,252.0058341426775 82.503999998793,252.0058341426775 86.82400000095367,250.00486648082733 92.4400000013411,249.0043823425658 97.19199999794364,249.0043823425658 104.53600000031292,250.50510847195983 106.69599999859929,250.00486648082733" stroke="#4dd2ff" stroke-linecap="round" stroke-linejoin="round" stroke-width="0.5"><title>2023-07-11 1.4km</title></polyline><polyline fill="none" points="183.01639344356954,248.20070618158206 183.45901639387012,249.22579207457602 185.67213115096092,247.68816315801814 186.55737705156207,245.6379905338399 186.55737705156207,242.5627300357446 183.01639344356954,231.799303479027 165.7540983632207,231.28675878513604 156.01639344356954,229.23657947778702 136.9836065582931,230.26166923576966 133.88524590432644,231.799303479027 133.0,234.36202617827803 134.32786885276437,243.0752735817805 136.09836065769196,246.15053376881406 138.31147541105747,247.68816315801814 158.67213114909828,249.73833494260907 163.98360656015575,249.22579207457602 173.27868852578104,250.76342052221298 179.03278688713908,250.76342052221298 184.78688524663448,249.22579207457602 186.11475409939885,247.1756200795062 186.11475409939885,244.61290391115472 184.34426229819655,236.41220339620486 182.57377049326897,232.824392716866 181.2459016405046,232.31184812402353 173.27868852578104,232.31184812402353 164.8688524607569,230.7742140358314 152.91803278774023,233.33693725569174 148.04918032698333,232.31184812402353 140.524590164423,232.824392716866 134.32786885276437,234.36202617827803 133.0,236.9247475694865 134.7704918049276,241.53764278441668 137.42622951045632,245.6379905338399 139.63934426382184,247.68816315801814 142.29508196935058,248.71324915392324 147.6065573785454,248.20070618158206 152.91803278774023,246.15053376881406 161.327868854627,244.61290391115472 167.52459016628563,246.15053376881406 174.16393442638218,245.12544724904 183.01639344356954,246.66307695070282 185.67213115096092,245.12544724904 186.11475409939885,243.0752735817805 184.78688524663448,235.89965916937217 184.34426229819655,234.8745705615729 182.13114754110575,233.33693725569174 174.16393442638218,234.8745705615729 165.31147541292012,233.8494817437604 162.65573770739138,232.31184812402353 153.36065573990345,234.36202617827803 148.04918032698333,231.28675878513604 140.08196721412241,230.7742140358314 137.42622951045632,231.799303479027 135.65573770552874,232.824392716866 134.7704918049276,236.41220339620486 135.21311475522816,241.53764278441668 136.9836065582931,246.66307695070282 142.29508196935058,250.25087775941938 146.27868852578104,249.22579207457602 151.1475409846753,243.58781707799062 154.2459016405046,242.5627300357446 183.90163934603333,247.68816315801814 185.67213115096092,246.15053376881406 186.55737705156207,244.10036052111536 184.34426229819655,236.41220339620486 183.01639344356954,234.8745705615729 177.26229508407414,232.824392716866 173.27868852578104,234.36202617827803 168.85245901905,233.33693725569174 164.8688524607569,234.8745705615729 151.1475409846753,235.38711489038542 140.524590164423,233.8494817437604 136.9836065582931,235.38711489038542 136.54098360612988,238.97492374293506 137.8688524607569,246.66307695070282 140.08196721412241,247.68816315801814 147.6065573785454,246.66307695070282 155.1311475429684,247.68816315801814 165.7540983632207,245.12544724904 173.7213114760816,245.6379905338399 181.2459016405046,247.1756200795062 185.2295081987977,246.66307695070282 187.0,244.61290391115472 186.55737705156207,240.51255532400683 183.45901639387012,235.89965916937217 179.91803278774023,233.8494817437604 170.18032787181437,234.8745705615729 167.52459016628563,233.33693725569174 159.11475409939885,231.799303479027 156.45901639387012,232.31184812402353 152.91803278774023,234.36202617827803 146.7213114760816,232.31184812402353 140.9672131165862,231.799303479027" stroke="#4dd2ff" stroke-linecap="round" stroke-linejoin="round" stroke-width="0.5"><title>2023-07-10 1.3km</title></polyline></svg>