<?xml version="1.0" encoding="utf-8" ?>
<svg baseProfile="full" height="300mm" version="1.1" viewBox="0,0,200,300" width="200mm" xmlns="http://www.w3.org/2000/svg" xmlns:ev="http://www.w3.org/2001/xml-events" xmlns:xlink="http://www.w3.org/1999/xlink"><defs /><rect fill="#222222" height="300" width="200" x="0" y="0" /><text fill="#FFFFFF" style="font-size:12px; font-family:Arial; font-weight:bold;" x="10" y="20">Over 1km Runs</text><text fill="#FFFFFF" style="font-size:4px; font-family:Arial" x="10" y="280">ATHLETE</text><text fill="#FFFFFF" style="font-size:9px; font-family:Arial" x="10" y="290">Andy Chen</text><text fill="#FFFFFF" style="font-size:4px; font-family:Arial" x="120" y="280">STATISTICS</text><text fill="#FFFFFF" style="font-size:3px; font-family:Arial" x="120" y="285">Number: 10</text><text fill="#FFFFFF" style="font-size:3px; font-family:Arial" x="120" y="290">Weekly: 2.5</text><text fill="#FFFFFF" style="font-size:3px; font-family:Arial" x="141" y="285">Total: 14.9 km</text><text fill="#FFFFFF" style="font-size:3px; font-family:Arial" x="141" y="290">Avg: 1.5 km</text><text fill="#FFFFFF" style="font-size:3px; font-family:Arial" x="167" y="285">Min: 1.0 km</text><text fill="#FFFFFF" style="font-size:3px; font-family:Arial" x="167" y="290">Max: 2.0 km</text><polyline fill="none" points="64.40799999982119,57.24867908516899 62.24800000153482,54.747463007457554 59.22399999946356,52.74648922635242 41.94400000013411,47.74405120732263 23.36799999885261,47.74405120732263 16.88800000026822,50.245270853862166 14.727999998256564,52.24624565290287 13.0,55.24770632525906 13.0,59.7498938892968 15.160000000149012,68.25401469040662 16.02399999834597,70.25498215015978 19.047999998554587,71.25546557363123 39.7839999999851,70.75522388704121 49.71999999880791,72.25594879267737 60.08799999766052,71.7557072089985 63.975999999791384,69.75474036112428 65.27199999988079,67.75377269927412 65.7039999999106,59.249651030637324 64.40799999982119,55.74794959044084 62.67999999970198,54.24721963889897 58.3600000012666,55.24770632525906 46.26399999856949,51.74600203149021 37.191999999806285,51.24575835606083 31.143999999389052,52.74648922635242 16.88800000026822,51.74600203149021 14.727999998256564,52.74648922635242 13.864000000059605,54.747463007457554 13.431999998167157,58.24916516104713 16.88800000026822,67.75377269927412 18.615999998524785,69.75474036112428 20.34400000050664,70.25498215015978 35.46399999782443,68.25401469040662 60.519999999552965,69.75474036112428 65.27199999988079,68.25401469040662 67.0,65.75280421832576 67.0,62.75134997209534 65.7039999999106,58.24916516104713 63.54400000162423,54.747463007457554 41.51199999824166,49.745027027558535 23.36799999885261,51.74600203149021 17.319999998435378,53.74697621865198 15.591999998316169,54.747463007457554 14.727999998256564,56.74843597179279 14.296000000089407,59.7498938892968 16.02399999834597,65.75280421832576 16.88800000026822,67.75377269927412 19.911999998614192,69.75474036112428 31.143999999389052,69.75474036112428 35.89599999971688,68.25401469040662 48.424000000581145,69.25449852226302 61.38399999961257,68.7542566312477 63.54400000162423,67.75377269927412 64.83999999798834,63.75183492526412 63.54400000162423,56.248192806728184 63.11199999973178,55.74794959044084 56.631999999284744,55.74794959044084 49.287999998778105,52.24624565290287 42.37600000016391,50.245270853862166 30.279999999329448,52.24624565290287 22.50400000065565,52.24624565290287 18.184000000357628,53.74697621865198 16.45600000023842,55.24770632525906 16.02399999834597,57.74892214871943 18.184000000357628,68.7542566312477 20.34400000050664,70.25498215015978 22.071999998763204,70.25498215015978 28.55199999921024,70.25498215015978 41.94400000013411,71.25546557363123 52.31199999898672,70.75522388704121 59.656000001356006,71.25546557363123 64.40799999982119,69.75474036112428 65.27199999988079,68.25401469040662 65.7039999999106,65.75280421832576 63.11199999973178,56.248192806728184 51.01600000075996,50.245270853862166 44.10400000028312,49.745027027558535 35.46399999782443,50.245270853862166 18.184000000357628,52.24624565290287 15.160000000149012,53.74697621865198 14.296000000089407,55.74794959044084 16.88800000026822,67.25353065459058 19.47999999858439,69.75474036112428 23.36799999885261,69.25449852226302 32.43999999947846,69.75474036112428 45.399999998509884,67.25353065459058 51.44800000078976,67.25353065459058 60.519999999552965,68.7542566312477 63.54400000162423,67.75377269927412 66.1359999999404,64.25207732571289 65.7039999999106,55.74794959044084 64.40799999982119,54.24721963889897 49.71999999880791,52.24624565290287 41.080000000074506,50.245270853862166 26.82399999909103,51.74600203149021 16.02399999834597,54.24721963889897 15.160000000149012,55.74794959044084 15.160000000149012,57.74892214871943 18.615999998524785,67.75377269927412 19.911999998614192,69.25449852226302 28.119999999180436,70.75522388704121 40.64799999818206,68.7542566312477 55.33600000105798,70.25498215015978 62.67999999970198,69.75474036112428 64.83999999798834,67.75377269927412 65.7039999999106,64.75231967447326 65.7039999999106,57.24867908516899 62.67999999970198,54.24721963889897 57.06400000117719,53.74697621865198 52.31199999898672,51.74600203149021 25.527999999001622,50.245270853862166 15.160000000149012,52.74648922635242 13.0,55.24770632525906 13.0,57.74892214871943 16.45600000023842,67.25353065459058 17.752000000327826,69.25449852226302 19.47999999858439,69.75474036112428 22.50400000065565,70.25498215015978 42.37600000016391,69.75474036112428 48.85600000061095,68.7542566312477" stroke="#4dd2ff" stroke-linecap="round" stroke-linejoin="round" stroke-width="0.5"><title>2023-08-01 2.0km</title></polyline><polyline fill="none" points="105.83200000040233,69.75474395509809 111.01599999889731,73.25643575983122 116.20000000111759,70.75522758299485 125.27200000174344,69.25450206408277 126.1359999999404,68.2540181321092 127.0,65.75280740531161 125.70399999804795,59.249653552658856 121.38400000147521,54.247221651952714 119.2240000013262,52.746491086203605 101.08000000193715,50.24527246085927 91.1440000012517,47.243808425497264 84.23200000077486,46.74356424016878 79.91200000047684,48.24429664062336 73.8640000037849,52.746491086203605 73.0,55.24770844075829 73.8640000037849,61.25062488671392 74.72800000198185,63.75183790596202 78.18400000035763,67.75377608742565 82.0720000024885,68.2540181321092 87.25600000284612,68.75426012324169 105.40000000037253,66.75329184811562 121.38400000147521,68.2540181321092 123.54399999976158,66.75329184811562 124.83999999985099,63.75183790596202 125.70399999804795,59.249653552658856 123.54399999976158,55.74795175855979 120.52000000141561,54.247221651952714 111.44800000078976,54.7474650721997 104.96800000220537,53.74697818234563 94.60000000149012,55.74795175855979 86.39200000092387,55.74795175855979 78.61600000225008,53.74697818234563 76.88800000026822,53.74697818234563 74.2960000000894,55.74795175855979 73.8640000037849,57.24868140509352 75.59200000017881,65.25256510730833 78.18400000035763,68.2540181321092 81.64000000059605,69.75474395509809 85.52800000086427,69.75474395509809 90.2800000011921,67.75377608742565 94.60000000149012,67.25353399384767 122.68000000156462,67.75377608742565 124.83999999985099,66.25304965116084 125.70399999804795,61.25062488671392 123.97600000165403,57.74892451846972 120.95199999958277,55.74795175855979 118.35999999940395,56.74843824002892 115.33600000105798,56.24819502327591 112.31200000084937,57.24868140509352 98.48799999989569,57.74892451846972 86.82400000095367,57.74892451846972 77.75200000219047,56.24819502327591 74.2960000000894,57.24868140509352 73.43200000189245,58.7494105938822 73.8640000037849,61.25062488671392 76.45600000023842,67.25353399384767 78.18400000035763,69.25450206408277 92.0080000013113,67.25353399384767 101.51200000010431,67.75377608742565 108.85600000061095,67.25353399384767 121.81599999964237,68.75426012324169 125.70399999804795,66.75329184811562 126.56800000183284,61.75086759310216 123.97600000165403,57.24868140509352 120.08799999952316,56.74843824002892 91.5760000012815,61.25062488671392 86.82400000095367,61.25062488671392 79.91200000047684,58.2491675815545 78.18400000035763,58.2491675815545 77.32000000216067,59.749896463472396 77.75200000219047,64.25208035809919 79.91200000047684,68.2540181321092 81.64000000059605,69.25450206408277 94.60000000149012,66.25304965116084 106.69600000046194,66.75329184811562 111.01599999889731,66.25304965116084 123.54399999976158,66.25304965116084 124.40800000168383,65.25256510730833 125.70399999804795,61.25062488671392 125.27200000174344,57.24868140509352 123.97600000165403,55.74795175855979 122.24799999967217,55.24770844075829 114.47199999913573,55.24770844075829 111.01599999889731,54.247221651952714 106.26400000043213,54.7474650721997 99.78400000184774,54.7474650721997 98.05600000172853,55.24770844075829 82.0720000024885,54.7474650721997 79.04800000227988,54.7474650721997 74.72800000198185,57.24868140509352 74.2960000000894,59.249653552658856 78.18400000035763,68.75426012324169 80.77600000239909,70.25498579395935 86.82400000095367,70.75522758299485 90.7120000012219,70.25498579395935 107.56000000238419,71.25546931987628 117.9280000012368,69.75474395509809 125.70399999804795,65.75280740531161 126.1359999999404,62.75135285081342 123.97600000165403,59.249653552658856 123.11200000159442,56.24819502327591 116.63200000114739,54.247221651952714 110.15200000070035,54.247221651952714 104.10400000028312,52.746491086203605 94.60000000149012,52.746491086203605 85.09600000269711,51.746003789361566 76.88800000026822,52.746491086203605 73.43200000189245,56.24819502327591 73.43200000189245,58.7494105938822 76.02400000207126,65.25256510730833 78.18400000035763,68.75426012324169 79.91200000047684,70.25498579395935 86.39200000092387,70.75522758299485 90.2800000011921,72.75619422551244 95.46400000154972,72.25595264183357" stroke="#4dd2ff" stroke-linecap="round" stroke-linejoin="round" stroke-width="0.5"><title>2023-07-31 1.6km</title></polyline><polyline fill="none" points="186.578125,60.73280109744519 185.73437499813735,57.80168865527958 183.203125,56.8246507756412 172.234375,55.35909358225763 166.74999999813735,53.40501662995666 159.57812499813735,52.42797785392031 152.40624999813735,47.05426103249192 145.65625,45.588700853288174 141.859375,45.1001806948334 140.59374999813735,46.07722096238285 135.109375,51.939458393491805 133.84374999813735,56.33613176178187 133.0,59.75576381571591 134.26562499813735,63.175393430516124 137.64062499813735,70.50316296331584 139.75,72.45723294606432 158.734375,74.89981930470094 172.65625,72.94575031800196 180.25,73.43426763918251 186.578125,70.99168053269386 187.0,69.52612767228857 186.15624999813735,62.19835664657876 184.046875,59.2672450998798 180.671875,57.80168865527958 175.609375,57.3131697406061 171.39062499813735,57.80168865527958 164.640625,57.3131697406061 159.15624999813735,58.2902075201273 153.671875,56.8246507756412 138.484375,55.84761269716546 135.53124999813735,56.33613176178187 134.26562499813735,57.80168865527958 133.42187499813735,60.73280109744519 136.37499999813735,68.5490921814926 139.32812499813735,70.99168053269386 143.546875,71.9687155247666 146.078125,71.48019805317745 160.0,71.9687155247666 167.59374999813735,73.92278491146863 176.875,74.41130213346332 184.89062499813735,72.45723294606432 186.15624999813735,71.48019805317745 186.578125,69.52612767228857 187.0,65.1294664000161 186.15624999813735,59.2672450998798 185.3125,58.2902075201273 181.09374999813735,56.8246507756412 171.81249999813735,56.33613176178187 165.484375,56.8246507756412 155.78125,59.75576381571591 150.296875,57.3131697406061 140.59374999813735,56.33613176178187 135.953125,57.80168865527958 133.84374999813735,59.75576381571591 134.26562499813735,62.68687506299466 135.953125,68.06057436298579 141.01562499813735,72.94575031800196 160.421875,73.43426763918251 175.18749999813735,74.41130213346332 182.35937499813735,73.43426763918251 185.3125,70.99168053269386 186.15624999813735,67.08353857556358 185.73437499813735,60.2442824812606 185.3125,58.778726333752275 178.140625,56.8246507756412 173.078125,57.3131697406061 168.015625,56.8246507756412 157.04687499813735,58.778726333752275 150.71874999813735,57.80168865527958" stroke="#4dd2ff" stroke-linecap="round" stroke-linejoin="round" stroke-width="0.5"><title>2023-07-26 1.0km</title></polyline><polyline fill="none" points="48.323308270424604,127.52245746273547 56.443609019741416,129.87321822484955 64.15789473615587,127.99260970996693 66.18796992301941,126.11200042907149 67.0,123.2910850699991 66.18796992301941,118.11940243421122 64.15789473615587,115.29848218895495 62.533834585919976,113.88802141929045 46.29323308356106,108.24617402860895 41.827067667618394,108.24617402860895 27.616541352123022,111.06709858588874 21.120300751179457,109.65663652354851 17.872180450707674,110.12679059058428 14.218045111745596,113.41786773269996 13.40601503662765,116.23878912720829 16.654135338962078,124.70154296560213 18.68421052582562,127.52245746273547 21.526315789669752,128.93291406333447 24.774436090141535,128.93291406333447 28.834586465731263,125.64184798812494 34.11278195492923,124.23139038262889 44.669172931462526,127.52245746273547 58.8796992469579,128.93291406333447 63.34586465917528,127.52245746273547 64.15789473615587,125.17169550154358 64.56390977464616,121.41047387337312 61.72180451080203,113.88802141929045 58.8796992469579,113.41786773269996 50.35338345915079,113.41786773269996 43.045112781226635,112.0074063888751 36.95488721691072,113.41786773269996 26.804511277005076,113.88802141929045 18.27819548919797,112.47756021888927 13.8120300732553,113.88802141929045 13.40601503662765,116.23878912720829 17.060150373727083,125.64184798812494 19.90225563943386,127.99260970996693 27.210526315495372,130.34337023319677 29.64661654084921,130.34337023319677 33.70676691643894,129.4030661676079 38.578947369009256,130.34337023319677 42.639097744598985,129.87321822484955 51.57142857089639,131.75382597139105 54.81954887136817,130.34337023319677 58.06766917183995,129.87321822484955 61.72180451080203,127.99260970996693 64.15789473615587,124.70154296560213 64.56390977464616,119.05970879783854 62.127819549292326,113.88802141929045 60.097744358703494,113.41786773269996 48.729323307052255,112.47756021888927 37.360902255401015,113.41786773269996 31.676691729575396,110.59694461384788 23.556390976533294,108.24617402860895 20.30827067606151,108.7163282413967 15.842105261981487,110.59694461384788 13.8120300732553,112.94771399814636 13.40601503662765,114.35817505652085 15.436090225353837,120.47016798751429 16.654135338962078,123.2910850699991 19.90225563943386,127.0523051652126 23.96240601502359,129.4030661676079 26.804511277005076,126.58215282158926 37.360902255401015,125.17169550154358 51.16541353240609,128.93291406333447 55.631578946486115,127.52245746273547 60.909774435684085,127.99260970996693 63.34586465917528,126.58215282158926 63.75187969766557,125.17169550154358 62.93984962441027,119.05970879783854 61.72180451080203,116.23878912720829 59.691729322075844,114.35817505652085 58.06766917183995,114.82832864718512 43.45112781971693,112.47756021888927 40.6090225558728,112.47756021888927 36.142857141792774,114.35817505652085 33.30075187981129,114.35817505652085 30.458646615967155,112.47756021888927 21.932330826297402,111.06709858588874 17.872180450707674,111.5372525122948 15.030075186863542,112.47756021888927 13.40601503662765,116.23878912720829 14.218045111745596,119.05970879783854 19.496240600943565,126.58215282158926 22.744360903277993,128.93291406333447 24.774436090141535,128.93291406333447 36.95488721691072,127.52245746273547 42.23308270610869,127.52245746273547 53.601503759622574,130.34337023319677 61.72180451080203,129.4030661676079 64.56390977464616,127.0523051652126 65.37593984976411,122.82093234313652 65.37593984976411,118.11940243421122 64.56390977464616,115.29848218895495 62.533834585919976,113.88802141929045 57.6616541352123,112.47756021888927 47.10526315867901,111.06709858588874 44.263157894834876,111.06709858588874 38.172932328656316,112.47756021888927 24.774436090141535,111.5372525122948 17.46616541221738,112.47756021888927 14.218045111745596,113.41786773269996 13.8120300732553,115.76863568322733 15.030075186863542,119.529861909803 17.872180450707674,124.70154296560213 19.496240600943565,126.58215282158926 28.428571429103613,127.52245746273547 36.95488721691072,127.52245746273547 52.78947368077934,129.87321822484955 62.533834585919976,129.4030661676079 64.56390977464616,127.52245746273547 65.37593984976411,126.11200042907149 65.78195488452911,122.35077956691384 64.56390977464616,115.29848218895495 64.15789473615587,113.88802141929045 62.93984962441027,112.94771399814636 55.225563909858465,111.5372525122948 40.6090225558728,111.5372525122948 34.92481203004718,112.47756021888927 29.64661654084921,110.59694461384788 22.338345864787698,110.59694461384788 15.436090225353837,112.0074063888751 13.8120300732553,112.47756021888927 13.0,114.82832864718512 13.8120300732553,118.11940243421122 15.842105261981487,122.82093234313652 19.090225564315915,126.58215282158926 22.744360903277993,127.99260970996693 32.48872180469334,129.4030661676079 38.98496240749955,128.4627619101666 53.19548872113228,130.8135221945122 60.909774435684085,129.4030661676079 64.15789473615587,127.52245746273547 65.37593984976411,125.64184798812494 65.78195488452911,123.76123775029555" stroke="#4dd2ff" stroke-linecap="round" stroke-linejoin="round" stroke-width="0.5"><title>2023-07-25 1.9km</title></polyline><polyline fill="none" points="125.37593984976411,129.6381397759542 126.5939849615097,127.75753087783232 127.0,125.40676867822185 125.78195488639176,117.88432158948854 124.96992481313646,115.53355435933918 123.34586466103792,114.59324713144451 115.63157894834876,114.12309344485402 103.85714285634458,110.36186223570257 98.17293233051896,109.89170811930671 91.6766917295754,112.24247822444886 81.12030075117946,111.30217032553628 74.2180451117456,114.59324713144451 73.0,117.88432158948854 73.81203007511795,121.17539369966835 76.24812030047178,125.87692121369764 78.27819548733532,128.2276831753552 86.80451127886772,130.10829188022763 91.6766917295754,129.6381397759542 100.6090225558728,128.2276831753552 121.31578947417438,130.10829188022763 125.37593984976411,128.2276831753552 126.1879699267447,127.28737853420898 125.78195488639176,123.99631078215316 124.56390977464616,116.94401483982801 120.50375939905643,115.06340076867491 109.9473684206605,112.7126321005635 77.46616541408002,115.06340076867491 74.62406014837325,116.00370790110901 73.81203007511795,117.88432158948854 78.68421052582562,127.28737853420898 81.12030075117946,128.2276831753552 83.55639097839594,128.69783542258665 98.57894736714661,125.87692121369764 105.07518796995282,128.2276831753552 114.00751879625022,129.6381397759542 122.12781954742968,129.1679876227863 124.56390977464616,128.69783542258665 125.37593984976411,127.28737853420898 126.1879699267447,123.99631078215316 125.78195488639176,118.3544748914428 123.75187969952822,116.00370790110901 120.50375939905643,115.06340076867491 103.85714285634458,113.65293971030042 90.0526315793395,114.59324713144451 79.49624060094357,113.65293971030042 74.62406014837325,114.59324713144451 73.81203007511795,116.00370790110901 73.40601503662765,120.23508762195706 76.65413533709943,125.40676867822185 79.49624060094357,128.2276831753552 85.99248120374978,129.6381397759542 92.08270676620305,127.28737853420898 116.84962406009436,128.2276831753552 123.75187969952822,127.28737853420898 124.96992481313646,126.34707370074466 125.78195488639176,121.64554666634649 124.96992481313646,115.06340076867491 124.15789473615587,114.12309344485402 114.81954887136817,112.24247822444886 109.13533834554255,111.7723242980428 94.11278195492923,113.65293971030042 77.46616541408002,114.12309344485402 74.2180451117456,115.53355435933918 73.81203007511795,117.88432158948854 78.27819548733532,126.34707370074466 82.74436090141535,129.1679876227863 97.36090225726366,125.87692121369764 101.0150375943631,126.34707370074466 104.26315789483488,128.69783542258665 106.69924812018871,129.1679876227863 118.0676691737026,128.2276831753552 122.53383458778262,128.69783542258665 125.78195488639176,127.28737853420898 126.1879699267447,123.99631078215316 124.96992481313646,118.82462814636528 122.93984962627292,117.88432158948854 114.81954887136817,118.3544748914428 108.3233082704246,116.47386139538139 104.66917293332517,116.47386139538139 79.09022556431592,114.12309344485402 75.03007518686354,115.06340076867491 73.81203007511795,116.00370790110901 73.81203007511795,117.88432158948854 75.03007518686354,121.17539369966835 78.27819548733532,127.28737853420898 82.3383458647877,129.6381397759542 85.58646616525948,130.10829188022763 88.83458646573126,129.1679876227863 94.11278195492923,124.93661609524861 98.17293233051896,123.99631078215316 105.48120300658047,124.93661609524861 108.7293233089149,125.87692121369764 123.34586466103792,128.2276831753552 126.5939849615097,127.28737853420898 127.0,124.93661609524861 124.15789473615587,118.82462814636528 118.0676691737026,115.53355435933918 107.10526315867901,114.12309344485402 93.70676691830158,114.12309344485402 80.30827067606151,112.7126321005635 74.62406014837325,114.59324713144451 73.81203007511795,115.53355435933918 73.40601503662765,118.3544748914428 76.24812030047178,124.46646346291527" stroke="#4dd2ff" stroke-linecap="round" stroke-linejoin="round" stroke-width="0.5"><title>2023-07-24 1.8km</title></polyline><polyline fill="none" points="172.82400706410408,138.90004209801555 177.0986760854721,138.90004209801555 179.4303137343377,138.0000458578579 180.98473883233964,136.65005115559325 184.4821953047067,130.35007041646168 183.31637647934258,126.75007738685235 178.65310118347406,120.45008252328262 178.26449491083622,118.65008233953267 179.81892000697553,111.90007511759177 182.53916393220425,104.70005604019389 182.92777020670474,101.10004209820181 180.59613255783916,97.05002290848643 175.54425098747015,93.0 173.6012196149677,93.0 169.32655059359968,94.35000804951414 159.22278745286167,93.45000272989273 154.55951215699315,94.35000804951414 148.73041803762317,100.65004015015438 141.73550509475172,104.25005445862189 137.84944234602153,107.85006583062932 136.29501724801958,111.00007337424904 136.29501724801958,115.95008068857715 138.62665489688516,121.8000821787864 138.23804862238467,128.10007511638105 139.015261169523,131.70006704563275 142.12411136738956,134.4000590648502 146.3987803887576,137.10004943516105 150.28484313562512,138.0000458578579 153.39369333162904,136.65005115559325 154.94811843149364,143.40002054348588 156.8911498039961,143.8500181371346 165.05188157223165,142.950022906065 171.6581882406026,139.80003815423697 175.54425098747015,139.35004014987499 179.4303137343377,137.55004767002538 182.1505576558411,133.5000619092025 183.31637647934258,129.45007243333384 182.53916393220425,126.75007738685235 178.65310118347406,123.60008107870817 177.87588863633573,120.0000825454481 178.65310118347406,113.70007805200294 181.76195138320327,106.50006191013381 182.1505576558411,102.0000458592549 180.20752628333867,97.95002749375999 175.54425098747015,94.80001063970849 172.43540079146624,94.35000804951414 163.10885019786656,95.25001318473369 158.44557490199804,93.90000541321933 155.33672470413148,94.35000804951414 152.22787450812757,95.70001568458974 146.3987803887576,102.90004943637177 140.95829254202545,104.70005604019389 137.07222979702055,109.20006933948025 135.51780469715595,112.35007592011243 135.9064109735191,116.40008107945323 137.84944234602153,121.8000821787864 136.68362352252007,126.75007738685235 136.68362352252007,128.10007511638105 138.23804862238467,130.8000693381764 147.95320548675954,137.10004943516105 149.50763058662415,137.55004767002538 154.17090588063002,137.55004767002538 154.94811843149364,142.50002522254363 156.8911498039961,145.65000804839656 167.38351921923459,143.40002054348588 169.32655059359968,142.50002522254363 171.6581882406026,139.80003815423697 178.26449491083622,138.90004209801555 179.81892000697553,138.0000458578579 182.1505576558411,134.85005757538602 183.31637647934258,131.25006821425632 182.92777020670474,129.00007337378338 179.4303137343377,124.50008025299758 178.65310118347406,122.70008172048256 178.65310118347406,118.20008218009025 182.1505576558411,106.95006326260045 182.1505576558411,104.25005445862189 179.4303137343377,98.85003189509735 177.87588863633573,96.60002054553479 174.37843216396868,95.25001318473369 166.99491294659674,95.25001318473369 161.9430313743651,94.35000804951414 155.33672470413148,95.25001318473369 152.22787450812757,97.05002290848643 151.0620556846261,99.75003611436114 149.11902431212366,101.55004400247708 140.5696862693876,104.70005604019389 138.23804862238467,108.30006704619154 136.29501724801958,113.25007738638669 136.29501724801958,115.05007977224886 138.23804862238467,122.25008197221905 138.23804862238467,124.50008025299758 137.07222979702055,129.00007337378338 138.62665489688516,131.25006821425632 146.78738666325808,135.30005603842437 152.6164807844907,136.20005282992497 153.39369333162904,137.55004767002538 154.55951215699315,142.950022906065 155.72533098049462,144.75001318426803 157.27975607849658,144.75001318426803 166.6063066702336,143.8500181371346 168.9379443190992,142.50002522254363 171.6581882406026,139.35004014987499 177.4872823599726,138.4500440005213 182.1505576558411,135.7500544572249 183.31637647934258,128.55007426813245 181.37334510684013,125.40007924288511 178.65310118347406,123.15008142171428 177.87588863633573,120.0000825454481 178.65310118347406,113.70007805200294 181.37334510684013,105.15005757566541 181.37334510684013,101.55004400247708 180.59613255783916,99.75003611436114 177.4872823599726,96.15001813741401 175.54425098747015,94.80001063970849 169.32655059359968,95.25001318473369 154.17090588063002,94.35000804951414 151.0620556846261,96.60002054553479 146.78738666325808,102.45004767132923 141.73550509475172,104.70005604019389 137.84944234602153,108.30006704619154 135.51780469715595,112.35007592011243 135.51780469715595,117.30008172011003 137.84944234602153,123.15008142171428 137.84944234602153,129.00007337378338 139.015261169523,131.25006821425632 140.95829254202545,133.05006326269358 147.95320548675954,136.65005115559325 149.50763058662415,137.10004943516105 152.22787450812757,136.20005282992497 153.39369333162904,136.65005115559325 154.94811843149364,144.75001318426803 156.5025435294956,147.0 158.83418117649853,145.65000804839656" stroke="#4dd2ff" stroke-linecap="round" stroke-linejoin="round" stroke-width="0.5"><title>2023-07-23 1.6km</title></polyline><polyline fill="none" points="62.57377049326897,190.76343261264265 66.55737704969943,188.71325915679336 64.78688524663448,185.12545359507203 64.34426229447126,178.46237933449447 63.459016393870115,176.92474555782974 60.36065573617816,176.41220086393878 58.59016393497586,175.3871113145724 52.3934426214546,173.3369315895252 46.63934426382184,168.7240241523832 36.90163934417069,169.2365696313791 29.819672130048275,173.3369315895252 15.213114753365517,176.92474555782974 13.442622950300574,178.46237933449447 13.442622950300574,183.07527784071863 14.770491801202297,187.68817211454734 16.540983606129885,190.25088932784274 20.08196721225977,191.2759758476168 26.278688522055745,190.25088932784274 34.68852458894253,187.68817211454734 44.42622950859368,188.20071566058323 60.36065573617816,187.68817211454734 63.901639346033335,186.15054115932435 65.22950819507241,181.5376454750076 63.459016393870115,179.48746825708076 61.68852458894253,178.97492382256314 52.83606557175517,178.46237933449447 44.42622950859368,175.89965611463413 31.147540982812643,174.36202155658975 24.06557376869023,177.94983479566872 13.885245900601149,181.5376454750076 13.0,183.07527784071863 13.442622950300574,185.12545359507203 15.655737705528736,189.2258025999181 17.42622950859368,191.2759758476168 19.63934426382184,191.2759758476168 26.721311474218965,188.71325915679336 41.77049180306494,188.71325915679336 48.85245901718736,186.6630848632194 61.68852458894253,187.17562851402909 66.55737704969943,185.63799740280956 65.67213114723563,180.00001264037564 64.78688524663448,177.94983479566872 58.14754098281264,173.8494765968062 53.27868852391839,172.82438652822748 48.85245901718736,170.26166043477133 40.885245902463794,171.28675102815032 17.868852458894253,178.97492382256314 15.655737705528736,182.5627337708138 16.09836065582931,187.68817211454734 16.983606558293104,188.71325915679336 18.7540983594954,188.71325915679336 25.836065573617816,185.63799740280956 34.24590163864195,183.58782185567543 38.67213114909828,184.1003658217378 46.19672131165862,183.07527784071863 60.36065573617816,184.61290973424911 63.459016393870115,183.07527784071863 62.13114754110575,180.51255696918815 58.14754098281264,180.00001264037564 56.819672130048275,177.43729020282626 44.42622950859368,175.89965611463413 33.80327868834138,181.5376454750076 16.540983606129885,182.5627337708138 14.770491801202297,184.61290973424911 15.213114753365517,188.20071566058323 16.540983606129885,189.73834598995745 18.7540983594954,190.25088932784274 23.18032786808908,189.73834598995745 28.934426229447126,186.15054115932435 32.03278688527644,185.63799740280956 56.819672130048275,185.63799740280956 63.901639346033335,186.15054115932435 67.0,184.61290973424911 65.22950819507241,183.58782185567543" stroke="#4dd2ff" stroke-linecap="round" stroke-linejoin="round" stroke-width="0.5"><title>2023-07-22 1.1km</title></polyline><polyline fill="none" points="123.11199999973178,171.9961229255423 121.81599999964237,170.99563582940027 107.5599999986589,170.4953922079876 99.35199999809265,168.99466103035957 87.25599999912083,168.99466103035957 76.45600000023842,172.49636639514938 75.16000000014901,174.49733976693824 74.72799999825656,175.9980692616664 75.59200000017881,180.50025499146432 78.61599999852479,188.00388869876042 80.77600000053644,189.5046140635386 89.41599999926984,191.00533896917477 91.57599999941885,190.5050973854959 93.73599999956787,187.5036468077451 95.89599999971688,186.50316287577152 104.96800000034273,187.00340486690402 114.47199999913573,188.50413053762168 121.81599999964237,187.00340486690402 125.27199999988079,185.50267873751 126.5679999999702,183.0014675022103 126.5679999999702,181.00049759447575 125.27199999988079,177.99904120713472 117.06399999931455,173.49685318395495 111.87999999895692,174.49733976693824 108.42400000058115,173.49685318395495 95.89599999971688,178.9995268736966 82.503999998793,176.99855533754453 79.48000000044703,177.49879829632118 79.48000000044703,180.00001233629882 80.34400000050664,184.00195214897394 81.6399999987334,187.5036468077451 83.36799999885261,188.00388869876042 92.0080000013113,188.00388869876042 98.48799999989569,186.00292083108798 105.40000000037253,186.50316287577152 112.31199999898672,188.00388869876042 117.49599999934435,187.5036468077451 123.11199999973178,187.5036468077451 126.13600000180304,186.50316287577152 126.5679999999702,184.50219439482316 127.0,180.50025499146432 125.7039999999106,173.99709650175646 123.54399999976158,173.49685318395495 113.17599999904633,175.4978261482902 104.96800000034273,172.49636639514938 75.16000000014901,172.49636639514938 73.8640000000596,173.49685318395495 73.0,174.99758298322558 73.4320000000298,177.49879829632118 76.02399999834597,183.0014675022103 81.6399999987334,190.00485575012863 83.36799999885261,189.5046140635386 88.98400000110269,186.50316287577152 92.0080000013113,187.00340486690402 95.89599999971688,186.50316287577152 100.2160000000149,188.00388869876042 104.10399999842048,187.00340486690402 111.87999999895692,188.00388869876042 123.97599999979138,186.00292083108798 125.7039999999106,185.00243659177795 125.7039999999106,178.9995268736966 123.97599999979138,174.49733976693824 122.24800000153482,173.99709650175646 118.3600000012666,174.49733976693824 111.44800000078976,173.49685318395495 103.23999999836087,176.99855533754453 103.23999999836087,177.99904120713472 101.94399999827147,178.4992840657942 90.2800000011921,175.4978261482902 82.503999998793,175.4978261482902 81.2079999987036,175.9980692616664 80.34400000050664,177.99904120713472 80.77600000053644,186.50316287577152 82.0719999987632,188.00388869876042 88.55199999921024,189.5046140635386 93.30399999953806,187.5036468077451 99.35199999809265,187.5036468077451 104.53600000031292,187.5036468077451 111.44800000078976,189.00437232665718 114.47199999913573,188.50413053762168 124.84000000171363,184.50219439482316 125.7039999999106,183.0014675022103 125.7039999999106,178.9995268736966 123.97599999979138,174.99758298322558 121.81599999964237,173.99709650175646 108.42400000058115,175.4978261482902 99.35199999809265,174.99758298322558 93.73599999956787,173.49685318395495 83.36799999885261,173.49685318395495" stroke="#4dd2ff" stroke-linecap="round" stroke-linejoin="round" stroke-width="0.5"><title>2023-07-12 1.2km</title></polyline><polyline fill="none" points="171.88000000081956,191.0053504128009 176.2000000011176,191.50559230381623 183.54399999976158,190.50510847195983 185.7039999999106,189.0043823425658 186.5679999999702,187.00341345602646 186.1359999999404,184.00195859652013 181.81599999964237,174.49733943445608 179.22399999946356,173.49685213761404 171.0159999988973,173.49685213761404 162.3760000001639,169.99514498887584 147.68799999915063,167.49392406828701 139.4799999985844,169.4949009064585 134.7280000001192,173.49685213761404 133.4320000000298,175.9980700002052 133.4320000000298,180.00001593027264 135.5920000001788,189.0043823425658 137.32000000029802,190.50510847195983 144.23200000077486,192.50607593171299 149.41599999926984,190.50510847195983 155.03199999965727,190.00486648082733 169.28800000064075,190.50510847195983 180.0880000013858,190.00486648082733 182.24799999967217,189.50462443614379 183.54399999976158,185.50268625468016 180.95199999958277,177.99904337199405 179.22399999946356,176.49831342045218 171.44800000078976,177.99904337199405 162.80800000019372,174.99758300790563 146.82400000095367,174.99758300790563 136.02399999834597,176.99855678901076 133.4320000000298,178.4992865882814 133.4320000000298,180.50025894260034 136.45599999837577,189.50462443614379 137.75199999846518,190.50510847195983 142.07200000062585,191.0053504128009 150.71199999935925,188.00389799987897 165.8319999985397,189.50462443614379 181.81599999964237,188.50414019683376 182.68000000156462,188.00389799987897 183.11199999973178,186.5031711072661 182.24799999967217,177.49880010681227 180.95199999958277,175.4978265305981 170.5839999988675,176.99855678901076 158.9199999999255,175.4978265305981 148.12000000104308,175.9980700002052 138.61600000038743,175.4978265305981 134.2960000000894,176.49831342045218 133.0,178.4992865882814 134.7280000001192,185.00244375364855 136.02399999834597,186.5031711072661 141.2079999987036,190.50510847195983 148.98399999924004,190.00486648082733 155.46399999968708,188.50414019683376 169.28800000064075,190.50510847195983 175.76800000108778,189.0043823425658 182.68000000156462,189.50462443614379 184.839999999851,188.50414019683376 185.27199999801815,186.00292870681733 183.11199999973178,179.4997728667222 180.0880000013858,175.9980700002052 175.33599999919534,174.99758300790563 166.6959999985993,175.9980700002052 158.9199999999255,174.49733943445608 152.87199999950826,176.99855678901076 145.52800000086427,176.99855678901076 136.02399999834597,178.999529753346 134.7280000001192,179.4997728667222 133.86399999819696,181.000501901377 134.7280000001192,186.00292870681733 137.32000000029802,190.00486648082733 139.4799999985844,190.00486648082733 145.09599999897182,187.50365575402975 148.12000000104308,187.00341345602646 151.14399999938905,185.50268625468016 154.59999999962747,185.00244375364855 164.10400000028312,188.50414019683376 173.17599999904633,190.50510847195983 184.839999999851,191.0053504128009 186.1359999999404,190.00486648082733 187.0,188.50414019683376 187.0,186.5031711072661 183.11199999973178,177.49880010681227 181.81599999964237,175.9980700002052 178.35999999940395,174.99758300790563 169.7199999988079,176.99855678901076 159.35200000181794,175.9980700002052 157.6239999998361,176.49831342045218 155.03199999965727,178.4992865882814 136.88800000026822,178.999529753346 133.4320000000298,179.4997728667222 133.0,181.000501901377 135.5920000001788,189.0043823425658 139.0479999985546,192.0058341426775 142.503999998793,192.0058341426775 146.82400000095367,190.00486648082733 152.4400000013411,189.0043823425658 157.19199999794364,189.0043823425658 164.53600000031292,190.50510847195983 166.6959999985993,190.00486648082733" stroke="#4dd2ff" stroke-linecap="round" stroke-linejoin="round" stroke-width="0.5"><title>2023-07-11 1.4km</title></polyline><polyline fill="none" points="63.01639344356954,248.20070618158206 63.459016393870115,249.22579207457602 65.67213115096092,247.68816315801814 66.55737705156207,245.6379905338399 66.55737705156207,242.5627300357446 63.01639344356954,231.799303479027 45.75409836322069,231.28675878513604 36.01639344356954,229.23657947778702 16.983606558293104,230.26166923576966 13.885245904326439,231.799303479027 13.0,234.36202617827803 14.327868852764368,243.0752735817805 16.098360657691956,246.15053376881406 18.311475411057472,247.68816315801814 38.67213114909828,249.73833494260907 43.98360656015575,249.22579207457602 53.278688525781035,250.76342052221298 59.03278688713908,250.76342052221298 64.78688524663448,249.22579207457602 66.11475409939885,247.1756200795062 66.11475409939885,244.61290391115472 64.34426229819655,236.41220339620486 62.57377049326897,232.824392716866 61.2459016405046,232.31184812402353 53.278688525781035,232.31184812402353 44.8688524607569,230.7742140358314 32.91803278774023,233.33693725569174 28.049180326983333,232.31184812402353 20.52459016442299,232.824392716866 14.327868852764368,234.36202617827803 13.0,236.9247475694865 14.770491804927588,241.53764278441668 17.426229510456324,245.6379905338399 19.63934426382184,247.68816315801814 22.295081969350576,248.71324915392324 27.606557378545403,248.20070618158206 32.91803278774023,246.15053376881406 41.32786885462701,244.61290391115472 47.524590166285634,246.15053376881406 54.163934426382184,245.12544724904 63.01639344356954,246.66307695070282 65.67213115096092,245.12544724904 66.11475409939885,243.0752735817805 64.78688524663448,235.89965916937217 64.34426229819655,234.8745705615729 62.13114754110575,233.33693725569174 54.163934426382184,234.8745705615729 45.31147541292012,233.8494817437604 42.65573770739138,232.31184812402353 33.36065573990345,234.36202617827803 28.049180326983333,231.28675878513604 20.081967214122415,230.7742140358314 17.426229510456324,231.799303479027 15.655737705528736,232.824392716866 14.770491804927588,236.41220339620486 15.213114755228162,241.53764278441668 16.983606558293104,246.66307695070282 22.295081969350576,250.25087775941938 26.278688525781035,249.22579207457602 31.147540984675288,243.58781707799062 34.2459016405046,242.5627300357446 63.901639346033335,247.68816315801814 65.67213115096092,246.15053376881406 66.55737705156207,244.10036052111536 64.34426229819655,236.41220339620486 63.01639344356954,234.8745705615729 57.26229508407414,232.824392716866 53.278688525781035,234.36202617827803 48.85245901905,233.33693725569174 44.8688524607569,234.8745705615729 31.147540984675288,235.38711489038542 20.52459016442299,233.8494817437604 16.983606558293104,235.38711489038542 16.540983606129885,238.97492374293506 17.868852460756898,246.66307695070282 20.081967214122415,247.68816315801814 27.606557378545403,246.66307695070282 35.13114754296839,247.68816315801814 45.75409836322069,245.12544724904 53.72131147608161,245.6379905338399 61.2459016405046,247.1756200795062 65.2295081987977,246.66307695070282 67.0,244.61290391115472 66.55737705156207,240.51255532400683 63.459016393870115,235.89965916937217 59.91803278774023,233.8494817437604 50.18032787181437,234.8745705615729 47.524590166285634,233.33693725569174 39.11475409939885,231.799303479027 36.459016393870115,232.31184812402353 32.91803278774023,234.36202617827803 26.72131147608161,232.31184812402353 20.96721311658621,231.799303479027" stroke="#4dd2ff" stroke-linecap="round" stroke-linejoin="round" stroke-width="0.5"><title>2023-07-10 1.3km</title></polyline></svg>