<?xml version="1.0" encoding="utf-8" ?>
<svg baseProfile="full" height="200mm" version="1.1" viewBox="0,0,200,200" width="200mm" xmlns="http://www.w3.org/2000/svg" xmlns:ev="http://www.w3.org/2001/xml-events" xmlns:xlink="http://www.w3.org/1999/xlink"><defs /><rect fill="#1a1a1a" height="200" width="200" x="0" y="0" /><text alignment-baseline="middle" fill="#e1ed5e" style="dominant-baseline: central; font-size:9.0px; font-family:Arial;" text-anchor="middle" x="100.0" y="100.0">2023</text><line stroke="#e1ed5e" stroke-width="0.3" x1="100.0" x2="100.0" y1="15.0" y2="10.0" /><path d="M 100.0 14.0 a86.0,86.0 0 0,1 42.46469731375804,11.215312516191453" fill="none" id="id1" stroke="none" /><text fill="#e1ed5e" style="font-size:6.75px; font-family:Arial;" text-anchor="middle"><textPath startOffset="22.20632615414155" xlink:href="#id1">January</textPath></text><line stroke="#e1ed5e" stroke-width="0.3" x1="143.23703022742887" x2="145.7803849466894" y1="26.81831364943548" y2="22.513508569990506" /><path d="M 143.74570117128098 25.957352633546492 a86.0,86.0 0 0,1 28.547481713284135,27.462654790039103" fill="none" id="id2" stroke="none" /><text fill="#e1ed5e" style="font-size:6.75px; font-family:Arial;" text-anchor="middle"><textPath startOffset="19.985693538727396" xlink:href="#id2">February</textPath></text><line stroke="#e1ed5e" stroke-width="0.3" x1="172.23445277983987" x2="176.4835382374775" y1="55.19839476539836" y2="52.563006222186495" /><path d="M 173.08426987136738 54.67131705675599 a86.0,86.0 0 0,1 12.851231095245387,41.99856678651699" fill="none" id="id3" stroke="none" /><text fill="#e1ed5e" style="font-size:6.75px; font-family:Arial;" text-anchor="middle"><textPath startOffset="22.20632615414155" xlink:href="#id3">March</textPath></text><line stroke="#e1ed5e" stroke-width="0.3" x1="184.98032266829074" x2="189.97916517819016" y1="98.17113171792111" y2="98.06355123074" /><path d="M 185.9800911702706 98.14961562048488 a86.0,86.0 0 0,1 -9.607161424134198,41.387399972396054" fill="none" id="id4" stroke="none" /><text fill="#e1ed5e" style="font-size:6.75px; font-family:Arial;" text-anchor="middle"><textPath startOffset="21.466115282336823" xlink:href="#id4">April</textPath></text><line stroke="#e1ed5e" stroke-width="0.3" x1="174.80103733775053" x2="179.2010983576182" y1="140.37084112569926" y2="142.7455964860345" /><path d="M 175.68104954172406 140.8457921977663 a86.0,86.0 0 0,1 -30.038265399797805,32.042727171017184" fill="none" id="id5" stroke="none" /><text fill="#e1ed5e" style="font-size:6.75px; font-family:Arial;" text-anchor="middle"><textPath startOffset="22.206326154141568" xlink:href="#id5">May</textPath></text><line stroke="#e1ed5e" stroke-width="0.3" x1="143.8653032363475" x2="146.44561519142675" y1="172.8068346515853" y2="177.08958963109032" /><path d="M 144.38136562736335 173.6633856474863 a86.0,86.0 0 0,1 -40.68145358897372,12.25698825130547" fill="none" id="id6" stroke="none" /><text fill="#e1ed5e" style="font-size:6.75px; font-family:Arial;" text-anchor="middle"><textPath startOffset="21.466115282336833" xlink:href="#id6">June</textPath></text><line stroke="#e1ed5e" stroke-width="0.3" x1="102.19456741930631" x2="102.32365962044197" y1="184.97166512339345" y2="189.96999836594603" /><path d="M 102.22038585953345 185.97133177190398 a86.0,86.0 0 0,1 -42.740103519485714,-10.115201625700543" fill="none" id="id7" stroke="none" /><text fill="#e1ed5e" style="font-size:6.75px; font-family:Arial;" text-anchor="middle"><textPath startOffset="22.20632615414155" xlink:href="#id7">July</textPath></text><path d="M 97.2962882734958 120.8252237178851 l -5.290825798459844 40.752358997882745 a62.094374329364875,62.094374329364875 0 0,0 -1.0587723854994264,-0.14673620507426532 l 5.991526775146101 -40.65524822731587" fill="#ffd413" stroke="none" /><path d="M 96.93821686468263 120.77559828337769 l -6.573032467955597 44.60103019141147 a66.0827755352307,66.0827755352307 0 0,0 -1.123923688304423,-0.1755337654550684 l 7.339792019868537 -44.48127811860929" fill="#c4ff1e" stroke="none" /><path d="M 96.58105272829116 120.7198165907248 l -6.265944547629291 37.9734495670184 a59.48694496959787,59.48694496959787 0 0,0 -1.0088731730908498,-0.1754055329504848 l 6.9186666921921915 -37.859965455546906" fill="#ff8d0d" stroke="none" /><path d="M 93.08242187328487 119.8279376855182 l -11.394864015586437 32.66123627335013 a55.59189617290889,55.59189617290889 0 0,0 -0.9008016597687645,-0.3229954262051416 l 11.955385235984929 -32.460253306105024" fill="#ff1a02" stroke="none" /><path d="M 92.7421414339146 119.70592522655815 l -18.351393957525726 49.826156549804814 a74.09820653007,74.09820653007 0 0,0 -1.193086200765311,-0.451123112801407 l 19.20635037905132 -49.50288518689677" fill="#33ff52" stroke="none" /><path d="M 92.40401165467489 119.57807347666478 l -20.586133658783105 53.05917005785601 a77.91277911195135,77.91277911195135 0 0,0 -1.2461552576528865,-0.4958708947335905 l 21.496409992477847 -52.69695231871635" fill="#3dffad" stroke="none" /><path d="M 92.06813273071674 119.44442032107085 l -22.71348614646373 55.680529766173095 a81.13504675284861,81.13504675284861 0 0,0 -1.2886120822420362,-0.5386399548867074 l 23.668569688203227 -55.281304768266416" fill="#45fff3" stroke="none" /><path d="M 91.7346041902142 119.30500536409082 l -13.27674866242073 31.009731420516236 a54.73241019876348,54.73241019876348 0 0,0 -0.8628937829982031,-0.378267276355658 l 13.808563120076675 -30.776599590866127" fill="#ff0000" stroke="none" /><path d="M 90.10565033884886 118.52300852407294 l -24.97829102797477 46.7613449567662 a74.01451126667008,74.01451126667008 0 0,0 -1.1185960698444084,-0.6099477657204473 l 25.779509909687818 -46.32445653928599" fill="#33ff50" stroke="none" /><line stroke="#e1ed5e" stroke-width="0.3" x1="58.666819895761336" x2="56.23545636021788" y1="174.27360380694188" y2="178.64263932499728" /><path d="M 58.180547188652646 175.14741091055294 a86.0,86.0 0 0,1 -31.652253787137756,-30.449443065178592" fill="none" id="id8" stroke="none" /><text fill="#e1ed5e" style="font-size:6.75px; font-family:Arial;" text-anchor="middle"><textPath startOffset="22.20632615414155" xlink:href="#id8">August</textPath></text><path d="M 89.7882731507175 118.34994917583269 l -30.635180547847483 55.04984752749809 a84.0,84.0 0 0,0 -1.257404932315171,-0.7139873368214675 l 31.57823424708386 -54.51435702488198" fill="#4dd2ff" stroke="none" /><path d="M 89.4739219176387 118.17145234162733 l -25.429102842677516 43.898945721329525 a71.73220581472587,71.73220581472587 0 0,0 -1.0631127205498763,-0.6281057341776379 l 26.180983434255776 -43.454721414858135" fill="#44ff2d" stroke="none" /><line stroke="#e1ed5e" stroke-width="0.3" x1="26.63291911575756" x2="22.317208475507996" y1="142.92168965132927" y2="145.44649492493687" /><path d="M 25.769776987707644 143.4266507060508 a86.0,86.0 0 0,1 -11.730757126820373,-40.83630448921669" fill="none" id="id9" stroke="none" /><text fill="#e1ed5e" style="font-size:6.75px; font-family:Arial;" text-anchor="middle"><textPath startOffset="21.46611528233685" xlink:href="#id9">September</textPath></text><line stroke="#e1ed5e" stroke-width="0.3" x1="15.007084014347285" x2="10.007500721073583" y1="101.09737516637583" y2="101.16192664675087" /><path d="M 14.007167355692545 101.11028546245083 a86.0,86.0 0 0,1 10.666146001902534,-42.60595125391555" fill="none" id="id10" stroke="none" /><text fill="#e1ed5e" style="font-size:6.75px; font-family:Arial;" text-anchor="middle"><textPath startOffset="22.20632615414155" xlink:href="#id10">October</textPath></text><line stroke="#e1ed5e" stroke-width="0.3" x1="26.266209847984243" x2="21.928928074336255" y1="57.711370442889674" y2="55.22380399835377" /><path d="M 25.398753493254645 57.213857153982495 a86.0,86.0 0 0,1 29.58750427330803,-30.492523968695096" fill="none" id="id11" stroke="none" /><text fill="#e1ed5e" style="font-size:6.75px; font-family:Arial;" text-anchor="middle"><textPath startOffset="21.46611528233685" xlink:href="#id11">November</textPath></text><line stroke="#e1ed5e" stroke-width="0.3" x1="56.762969772571076" x2="54.21961505331055" y1="26.818313649435495" y2="22.513508569990535" /><path d="M 56.25429882871897 25.957352633546506 a86.0,86.0 0 0,1 42.265352541879196,-11.944610805530505" fill="none" id="id12" stroke="none" /><text fill="#e1ed5e" style="font-size:6.75px; font-family:Arial;" text-anchor="middle"><textPath startOffset="22.20632615414155" xlink:href="#id12">December</textPath></text></svg>